<svg width="491" height="76" viewBox="0 0 491 76" fill="none" xmlns="http://www.w3.org/2000/svg">
<path d="M18.4892 0.64975C12.275 1.27225 6.21421 3.96975 3.22218 7.47131C-0.728839 12.0623 -1.07407 18.2094 2.33991 23.0857C6.02241 28.2732 12.3133 31.5932 21.6347 33.2272C24.8185 33.7979 26.3529 33.9016 31.1862 33.9535C34.37 33.9535 37.9374 33.9016 39.1649 33.7719L41.3898 33.5904L40.776 34.3426C39.4718 36.0804 40.4691 38.4407 42.9241 39.3485C43.9982 39.7635 44.6887 39.8154 46.6834 39.6857C47.9876 39.6079 49.637 39.4004 50.2891 39.2188C51.4016 38.9076 51.6317 38.9335 53.3195 39.7376C55.4293 40.6713 57.2322 40.9826 59.2652 40.7751C62.9861 40.3601 67.7427 37.8701 72.1923 34.0054C74.9542 31.6451 80.9766 27.5988 85.8483 24.8754C90.3747 22.3335 90.5665 22.3335 87.6128 24.6679C73.0362 36.1841 68.203 51.0204 75.2994 62.4069C81.1301 71.7963 94.2106 76.6985 108.864 74.9866C118.185 73.8973 125.589 69.6694 128.619 63.7557C129.731 61.5769 130.499 58.0235 130.153 56.4154L129.923 55.2223L132.455 55.326L134.987 55.4298L137.787 57.3232C141.047 59.5279 145.382 61.1101 149.832 61.7326C152.824 62.1476 159.613 62.2254 162.72 61.8882C164.638 61.6807 164.638 61.6807 167.017 63.0294C175.724 68.0354 188.536 69.7991 197.321 67.1794C201.655 65.8826 203.842 63.7298 204.302 60.3579L204.571 58.4126L207.256 57.8419C211.437 56.9601 215.465 55.7929 221.756 53.666L227.509 51.7207L231.576 52.9916C238.557 55.1963 243.083 56.2598 245.423 56.2598C247.763 56.2598 252.29 55.1963 259.271 52.9916L263.337 51.7207L269.091 53.666C275.382 55.7929 279.41 56.9601 283.591 57.8419L286.276 58.4126L286.545 60.3579C286.698 61.4732 287.158 62.8219 287.619 63.5223C290.227 67.2313 298.091 69.021 307.719 68.0873C313.473 67.5166 319.112 65.7529 323.83 63.0294C326.208 61.6807 326.208 61.6807 328.126 61.8882C331.272 62.2254 338.023 62.1476 341.015 61.7326C345.541 61.0841 349.799 59.5279 353.06 57.3232L355.86 55.4298L358.353 55.326L360.885 55.2223L360.655 56.4154C360.348 57.9976 361.115 61.6029 362.228 63.7557C363.532 66.3235 365.296 68.191 368.403 70.3179C377.149 76.2835 393.222 77.0357 404.193 71.9779C414.051 67.4648 419.345 59.2685 418.654 49.5419C418.079 40.9048 412.593 32.0601 403.234 24.6679C400.28 22.3335 400.472 22.3335 404.998 24.8754C409.87 27.5988 415.892 31.6451 418.654 34.0054C423.104 37.8701 427.861 40.3601 431.581 40.7751C433.614 40.9826 435.417 40.6713 437.527 39.7376C439.215 38.9335 439.445 38.9076 440.557 39.2188C441.21 39.4004 442.859 39.6079 444.163 39.6857C446.158 39.8154 446.848 39.7635 447.922 39.3485C450.377 38.4407 451.375 36.0804 450.071 34.3426L449.457 33.5904L451.682 33.7719C452.909 33.9016 456.515 33.9535 459.66 33.9535C464.494 33.9016 466.028 33.7979 469.212 33.2272C476.232 31.9823 481.909 29.6479 485.4 26.5094C489.389 22.9301 491.153 19.1432 490.808 14.9154C490.425 10.6616 488.392 7.44537 484.21 4.64413C479.377 1.35006 472.127 -0.128372 464.992 0.727562C457.129 1.68725 452.909 4.82569 452.832 9.85757C452.794 11.9066 453.676 14.4485 454.559 14.8116C454.75 14.8894 455.172 14.7338 455.479 14.4226C456.323 13.6185 458.586 13.2554 460.504 13.5926C462.422 13.9557 464.609 15.486 465.184 16.9126C466.872 21.0366 462.614 25.031 454.635 26.7948C448.536 28.1435 438.678 28.2213 431.466 26.9763C426.825 26.1722 419.536 23.9676 421.109 23.8119C424.6 23.5007 426.096 23.1376 427.055 22.4113C428.167 21.5035 428.359 19.7657 427.477 18.9357C427.017 18.4948 426.978 18.5985 427.132 19.7397C427.477 22.1779 426.058 23.1376 421.8 23.4229C419.728 23.5266 419.421 23.4747 417.925 22.7744C414.665 21.1922 411.903 20.6216 411.903 21.5294C411.903 21.8926 415.24 23.2154 416.123 23.2154C416.391 23.2154 417.542 23.6044 418.731 24.0713C424.37 26.3019 431.428 27.6766 439.867 28.1694C451.298 28.8697 459.699 27.1319 463.727 23.2154C466.987 20.0769 467.064 15.9788 463.918 13.6704C462.652 12.7107 461.233 12.3216 459.047 12.3216C457.397 12.3216 456.822 12.4513 456.016 12.9701L454.981 13.6444L454.252 12.5291C453.715 11.7251 453.523 10.921 453.6 9.57225C453.753 4.43662 459.852 0.909126 468.637 0.909126C481.525 0.935066 490.156 7.36756 489.274 16.3419C488.315 25.8869 479.569 31.671 463.611 33.3569C461.809 33.5385 458.548 33.6163 455.172 33.5126C450.147 33.4088 449.342 33.3051 445.851 32.4751C441.862 31.5413 440.864 31.4894 442.092 32.3454C442.552 32.6566 443.895 32.9419 445.698 33.1494C448.383 33.4607 448.575 33.5126 449.227 34.3685C450.454 36.0026 449.418 37.9738 447.002 38.6741C445.007 39.2188 441.593 39.141 440.02 38.4926L438.716 37.9479L436.069 39.0373C433.653 40.0229 433.154 40.1266 431.505 40.0229C428.704 39.8413 426.748 38.7779 417.657 32.5529C408.067 25.9907 405.612 24.4604 399.705 21.4257C390.997 16.9644 389.885 16.5235 389.386 17.4054C389.041 18.0538 390.729 19.0135 394.449 20.2585C398.477 21.6332 398.784 21.8147 402.62 24.9013C411.289 31.8785 416.89 40.5935 417.887 48.5304C418.501 53.666 415.586 60.6432 410.752 65.5194C409.832 66.4273 407.683 68.1132 405.957 69.2544C400.702 72.7819 394.373 74.5716 387.276 74.5716C375.116 74.5716 365.718 70.2401 362.266 63.0294C361.422 61.2657 360.847 58.0235 361.154 56.4932L361.345 55.2223L364.683 54.6516C369.362 53.8476 373.122 52.4988 376.344 50.4238C378.607 48.9973 381.522 46.3516 382.098 45.1585C382.174 45.0029 383.364 45.2622 384.783 45.7291C386.586 46.3516 387.737 46.9482 388.696 47.7782C392.992 51.591 391.534 57.6344 385.895 59.3204C384.092 59.8651 381.944 59.7873 379.988 59.1129C378.876 58.7238 376.996 57.2194 376.996 56.7266C376.996 56.5451 376.804 56.4154 376.574 56.4154C376.305 56.4154 376.267 56.9082 376.459 57.8938C377.38 63.1851 381.714 65.8307 390.038 66.1938C395.677 66.4532 399.858 65.4157 403.464 62.8998C406.724 60.6691 409.486 56.6488 411.75 50.9426C412.977 47.8041 412.478 44.7954 410.56 43.706C409.563 43.1354 409.448 43.6022 410.215 45.3141C411.174 47.5448 411.213 51.5651 410.254 52.7063C409.908 53.1732 409.179 53.6141 408.642 53.7179C407.492 53.8994 405.113 53.4066 404.691 52.8619C404.423 52.5507 404.231 52.6544 403.848 53.2769C403.195 54.3404 401.738 55.1185 400.357 55.1185C395.907 55.1185 394.68 51.591 397.518 46.9741C399.398 43.9135 400.012 41.8126 400.012 38.3888C400.012 34.7316 399.283 32.5269 397.173 29.596C393.107 23.9676 385.857 19.4804 373.352 14.8116C368.902 13.1516 367.023 12.7366 367.023 13.4369C367.023 14.2929 369.516 15.2785 374.771 16.4457C382.174 18.1057 386.547 25.0051 383.901 30.8151C382.903 33.0197 382.251 33.3829 381.407 32.2416C380.18 30.6335 376.536 27.936 374.042 26.8207C373.275 26.4835 373.045 26.1204 372.93 25.1607C372.661 22.6447 370.206 20.1288 366.447 18.4429C364.529 17.561 359.964 16.4198 357.049 16.0826C355.822 15.9269 355.591 15.7454 354.21 13.826C353.06 12.2179 352.024 11.2323 349.761 9.676C347.574 8.19756 346.961 7.62694 347.421 7.52319C347.766 7.47131 350.298 7.28975 353.021 7.13412C364.798 6.51163 375.04 7.83443 392.723 12.2698C404.346 15.1748 406.609 15.5379 412.862 15.3563C418.616 15.2007 421.224 14.7598 422.835 13.6185L423.948 12.8404H421.416C419.038 12.8404 418.808 12.7885 417.887 12.0363C417.12 11.4138 416.89 10.9729 416.89 9.96131C416.89 7.62694 419.115 5.86319 422.759 5.3185C427.017 4.67007 431.083 5.86319 432.847 8.35319C433.729 9.54631 433.845 9.98725 433.653 11.2841C433.423 13.2294 432.003 14.8894 429.817 15.901C427.4 17.0163 425.943 17.2757 423.027 17.0941C421.186 16.9644 420.38 17.0163 420.15 17.2498C419.69 17.7685 420.764 18.0538 422.567 17.8982C423.488 17.7944 424.984 17.6907 425.943 17.6129C426.863 17.561 428.359 17.2757 429.28 16.9644C432.809 15.7713 434.535 13.9816 434.842 11.2323C434.995 9.70193 434.88 9.28694 433.998 8.06788C431.658 4.82569 425.405 3.71037 419.997 5.57787C416.046 6.92663 414.972 10.921 418.079 12.6847C418.731 13.0479 419.498 13.3591 419.805 13.3591C420.879 13.3591 420.304 13.826 418.731 14.2669C416.544 14.8894 411.404 15.071 407.76 14.656C403.848 14.241 401.162 13.6704 392.992 11.5176C379.067 7.86037 372.47 6.90069 360.079 6.69319C355.208 6.61538 350.95 6.66725 348.917 6.84882L345.656 7.13412L342.434 6.09663C336.757 4.281 334.149 3.91788 325.786 3.91788C318.766 3.89194 318.306 3.91788 313.703 4.74788C311.056 5.18881 308.064 5.78538 306.99 6.04475L305.072 6.51163L301.658 5.50006C295.06 3.58069 285.892 2.10225 276.571 1.42787C268.209 0.831314 255.704 1.11662 248.339 2.07631C245.807 2.38757 245.04 2.38757 242.508 2.07631C235.143 1.11662 222.638 0.831314 214.275 1.42787C204.954 2.10225 195.786 3.58069 189.188 5.50006L185.774 6.51163L183.933 6.07069C176.99 4.38475 170.009 3.63256 162.989 3.84007C156.851 3.99569 153.131 4.59225 148.412 6.09663L145.19 7.13412L141.93 6.84882C139.897 6.66725 135.639 6.61538 130.767 6.69319C118.377 6.90069 111.779 7.86037 97.8548 11.5176C89.6842 13.6704 86.9991 14.241 83.0864 14.656C79.4423 15.071 74.3021 14.8894 72.154 14.2669C70.5429 13.826 69.9675 13.3591 71.0416 13.3591C71.3484 13.3591 72.1156 13.0479 72.7677 12.6847C75.8748 10.921 74.8008 6.92663 70.8498 5.57787C65.4411 3.71037 59.1885 4.82569 56.8486 8.06788C55.9663 9.28694 55.8512 9.70193 56.0047 11.2323C56.3116 13.9816 58.0377 15.7713 61.5668 16.9644C62.4874 17.2757 63.9834 17.561 64.9041 17.6129C65.863 17.6907 67.3591 17.7944 68.2797 17.8982C70.0826 18.0538 71.1566 17.7685 70.6963 17.2498C70.4662 17.0163 69.6606 16.9644 67.8194 17.0941C64.9041 17.2757 63.4464 17.0163 61.0298 15.901C58.8433 14.8894 57.424 13.2294 57.1938 11.2841C56.6568 7.31569 61.9504 4.38475 68.0112 5.29256C71.732 5.86319 73.9569 7.601 73.9569 9.96131C73.9569 10.9729 73.7267 11.4138 72.9595 12.0363C72.0389 12.7885 71.8087 12.8404 69.4305 12.8404H66.8987L68.0112 13.6185C69.6223 14.7598 72.2307 15.2007 77.9846 15.3563C84.1988 15.5379 86.5004 15.1748 97.9315 12.3216C112.508 8.66444 118.339 7.67881 128.044 7.13412C132.378 6.90069 141.469 7.13412 143.426 7.52319C143.886 7.62694 143.272 8.19756 141.086 9.676C138.823 11.2323 137.787 12.2179 136.636 13.826C135.255 15.7454 135.025 15.9269 133.798 16.0826C130.882 16.4198 126.317 17.561 124.399 18.4429C120.64 20.1288 118.185 22.6447 117.917 25.1607C117.802 26.1722 117.571 26.4835 116.689 26.8726C114.695 27.7544 111.089 30.3223 109.938 31.7229C108.519 33.3829 108.058 33.2532 106.946 30.8151C105.45 27.521 106.179 23.371 108.787 20.6216C111.012 18.2613 113.199 17.1201 117.188 16.1863C121.024 15.2785 123.824 14.1373 123.824 13.4888C123.824 12.7366 122.06 13.0998 117.495 14.8116C104.99 19.4804 97.7397 23.9676 93.6736 29.596C91.5638 32.5269 90.835 34.7316 90.835 38.3888C90.835 41.7607 91.4487 43.8876 93.2516 46.8444C95.4381 50.4757 95.3998 53.0435 93.1366 54.3923C91.6022 55.326 89.7609 55.3519 88.2266 54.4701C87.6128 54.1069 86.9607 53.5104 86.8073 53.1213C86.5771 52.4988 86.5004 52.4729 86.1935 52.836C85.7332 53.4066 83.3933 53.9254 82.2041 53.7179C81.6671 53.6141 80.9383 53.1732 80.593 52.7063C79.6341 51.5651 79.6724 47.5448 80.6314 45.3141C81.3986 43.6022 81.2835 43.1354 80.2862 43.706C77.9462 45.0288 77.8312 48.0116 79.8642 52.7841C84.1221 62.6663 90.3747 66.6607 100.885 66.1938C107.521 65.9085 111.894 63.9632 113.582 60.5654C114.349 58.9573 114.771 56.4154 114.273 56.4154C114.042 56.4154 113.851 56.5451 113.851 56.7266C113.851 57.2194 111.971 58.7238 110.859 59.1129C105.258 61.0063 99.6577 57.9198 99.6577 52.9138C99.6577 49.6716 101.921 47.1038 106.064 45.7291C107.483 45.2622 108.672 45.0029 108.749 45.1585C109.324 46.3516 112.24 48.9973 114.503 50.4238C117.725 52.4988 121.484 53.8476 126.164 54.6516L129.501 55.2223L129.693 56.4932C130 58.0235 129.425 61.2657 128.581 63.0294C125.128 70.2401 115.73 74.5716 103.57 74.5716C92.868 74.5716 83.1631 70.0844 77.5243 62.5107C72.3074 55.5335 71.617 48.5304 75.3762 40.4897C78.1764 34.4722 83.7385 28.0397 90.3363 23.2154C92.1776 21.8666 93.3667 21.2701 96.2437 20.3104C100.08 19.0394 101.806 18.0538 101.461 17.4054C100.962 16.5235 99.8494 16.9644 91.1419 21.4257C85.2345 24.4604 82.7795 25.9907 73.1897 32.5529C64.1369 38.7519 62.1038 39.8413 59.3803 40.0229C57.5774 40.1266 56.6568 39.8932 53.3579 38.4926L52.092 37.9479L50.7878 38.4926C49.2534 39.141 45.8394 39.2188 43.8448 38.6741C42.3487 38.2591 40.9678 36.9104 40.9678 35.9247C40.9678 35.5616 41.2747 34.8613 41.6583 34.3685C42.272 33.5126 42.4638 33.4607 45.149 33.1494C46.9519 32.9419 48.2944 32.6566 48.7548 32.3454C49.9823 31.4894 48.9849 31.5413 44.9955 32.4751C41.5048 33.3051 40.6993 33.4088 35.6742 33.5126C23.4376 33.8238 14.1162 31.671 7.86366 27.1319C4.1428 24.3826 2.03304 20.7773 1.57272 16.3419C0.690458 7.36756 9.32132 0.935066 22.2101 0.909126C30.9944 0.909126 37.1702 4.46256 37.2469 9.57225C37.2469 10.7913 37.0168 11.8029 36.5565 12.5291L35.866 13.6444L34.8687 12.996C33.0274 11.8029 28.9613 12.1401 26.9283 13.6704C22.5937 16.8607 24.55 22.7744 30.8409 25.6794C35.5975 27.8841 42.3104 28.7141 51.0563 28.1694C58.4597 27.7285 64.1752 26.7169 69.9291 24.8235C72.4609 23.9935 75.5296 23.0079 76.7571 22.6188C79.0587 21.8926 79.6724 21.1404 77.9846 21.1404C76.8338 21.1404 75.2227 21.6591 72.9212 22.7744C71.4251 23.4747 71.1183 23.5266 69.0469 23.4229C64.789 23.1376 63.3697 22.1779 63.7149 19.7397C63.8684 18.5985 63.83 18.4948 63.3697 18.9357C62.4874 19.7657 62.6792 21.5035 63.7916 22.4113C64.7506 23.1376 66.2466 23.5007 69.7373 23.8119C71.3101 23.9676 64.0218 26.1722 59.3803 26.9763C49.8672 28.6104 37.9374 27.9619 31.6081 25.446C28.0023 24.0194 25.2405 21.1404 25.2405 18.8319C25.2405 15.4082 29.3066 12.7885 33.3726 13.5926C34.1398 13.7741 35.0605 14.1373 35.3673 14.4226C36.0962 15.1488 36.5565 14.9154 37.362 13.2813C38.321 11.3619 38.2059 8.2235 37.1319 6.30412C34.8303 2.12819 27.1201 -0.206184 18.4892 0.64975ZM240.705 2.69881L245.423 3.26944L250.295 2.67287C254.668 2.15413 256.394 2.07631 265.754 2.07631C277.607 2.07631 281.75 2.38757 290.534 3.89194C295.597 4.77381 302.962 6.53756 302.962 6.87475C302.962 6.9785 301.812 7.3935 300.392 7.78256C298.935 8.19756 295.559 9.261 292.835 10.1947L287.887 11.8548L284.013 11.2063C272.275 9.20913 257.353 9.10538 247.648 10.9469C245.615 11.3101 245.231 11.3101 243.237 10.9469C238.48 10.0391 233.455 9.676 226.244 9.676C218.533 9.676 213.393 10.091 206.834 11.1804L202.921 11.8288L198.586 10.3504C196.17 9.54631 192.679 8.431 190.761 7.88631L187.309 6.90069L189.188 6.38194C195.019 4.67007 202.653 3.29537 209.941 2.621C216.385 1.9985 216.615 1.9985 226.627 2.07631C234.261 2.12819 236.908 2.25787 240.705 2.69881ZM175.226 5.05913C178.985 5.68163 183.319 6.58944 183.78 6.84882C183.933 6.95256 182.552 7.65288 180.711 8.37913C178.831 9.13132 176.146 10.3763 174.65 11.1285L172.003 12.5291L170.047 12.0104C165.904 10.8432 156.008 8.71632 151.673 8.04194L147.108 7.31569L149.678 6.43382C152.018 5.62975 156.123 4.79975 159.306 4.43662C162.107 4.15131 172.003 4.51443 175.226 5.05913ZM335.645 5.03319C337.256 5.3185 339.749 5.941 341.168 6.43382L343.738 7.31569L339.174 8.04194C334.839 8.71632 324.942 10.8432 320.799 12.0104L318.843 12.5291L316.196 11.1285C314.7 10.3763 312.015 9.13132 310.136 8.37913C308.294 7.65288 306.913 6.95256 307.067 6.84882C307.796 6.40788 316.465 4.82569 320.416 4.43662C323.331 4.15131 332.768 4.51443 335.645 5.03319ZM189.879 8.45694C197.973 10.8432 202.192 12.581 200.044 12.581C199.277 12.581 191.183 15.3044 189.073 16.2901L187.04 17.1979L181.823 15.5379C178.946 14.6041 175.916 13.6444 175.072 13.411L173.576 12.9441L175.571 11.8288C177.489 10.7394 185.352 7.3935 186.005 7.3935C186.158 7.3935 187.923 7.86037 189.879 8.45694ZM308.946 8.92381C311.018 9.77975 313.78 11.0247 315.007 11.6991L317.309 12.9182L315.774 13.3851C314.969 13.6444 311.9 14.6041 309.023 15.5379L303.806 17.1979L301.773 16.2901C299.663 15.3044 291.57 12.581 290.802 12.581C289.421 12.581 290.265 11.9844 293.104 10.9988C296.825 9.676 304.151 7.41944 304.727 7.3935C304.919 7.3935 306.837 8.09381 308.946 8.92381ZM150.215 8.431C152.057 8.69038 155.087 9.23506 156.967 9.59819C160.534 10.2985 170.546 12.7107 170.929 12.9701C171.044 13.0479 169.855 14.0076 168.283 15.1229C166.71 16.2122 164.945 17.5091 164.408 18.0019L163.411 18.8838L159.844 18.1835C153.169 16.9126 144.423 15.9529 139.475 15.9529C138.094 15.9529 137.25 15.8491 137.25 15.6676C137.25 15.5119 137.902 14.5522 138.669 13.5148C140.204 11.5435 145.075 7.91225 146.226 7.91225C146.571 7.91225 148.374 8.14569 150.215 8.431ZM347.996 9.77975C350.451 11.4916 353.597 14.7857 353.597 15.6676C353.597 15.8491 352.753 15.9529 351.372 15.9529C346.424 15.9529 337.678 16.9126 331.003 18.1835L327.436 18.8838L326.438 18.0019C325.901 17.5091 324.137 16.2122 322.564 15.1229C320.991 14.0076 319.802 13.0479 319.917 12.9701C320.761 12.3994 335.069 9.261 340.938 8.35319C344.966 7.70475 344.966 7.70475 347.996 9.77975ZM234.568 10.2726C236.601 10.4282 239.861 10.8173 241.856 11.1544L245.423 11.7769L248.991 11.1544C259.309 9.39069 274.231 9.676 285.317 11.8807L287.005 12.2179L282.44 13.9816C279.908 14.9673 274.922 16.9904 271.354 18.4948L264.91 21.2182L255.167 17.8982L245.423 14.5782L235.68 17.8982L225.937 21.2182L219.492 18.4948C215.925 16.9904 210.938 14.9673 208.406 13.9816L203.803 12.2179L205.53 11.8807C208.138 11.3619 214.544 10.5319 217.805 10.2726C222.024 9.96131 230.348 9.93538 234.568 10.2726ZM207.179 14.5782C215.465 17.8204 224.402 21.711 224.057 21.9185C223.904 22.0482 221.18 23.0857 218.073 24.2529L212.357 26.3797L206.45 24.1232C203.19 22.9041 197.819 20.9588 194.52 19.7916C191.183 18.6244 188.383 17.6388 188.268 17.5869C187.961 17.3794 189.917 16.5235 193.753 15.1748C196.784 14.0854 201.425 12.6329 202 12.581C202.077 12.581 204.417 13.4629 207.179 14.5782ZM295.482 14.656C300.622 16.3938 302.962 17.3535 302.579 17.5869C302.464 17.6388 299.663 18.6244 296.326 19.7916C293.027 20.9588 287.657 22.9041 284.396 24.1232L278.489 26.3797L272.774 24.2529C269.666 23.0857 266.943 22.0482 266.789 21.9185C266.444 21.711 272.658 18.9616 282.248 15.1229C286.583 13.3851 288.808 12.6329 289.345 12.7366C289.767 12.8144 292.529 13.6704 295.482 14.656ZM180.097 15.6157C183.128 16.5494 185.659 17.3794 185.736 17.4832C185.813 17.561 184.087 18.7801 181.9 20.1807L177.911 22.7485L174.382 21.711C172.425 21.1404 169.702 20.4141 168.321 20.1029C166.94 19.7657 165.674 19.4026 165.482 19.2988C165.099 19.0654 167.324 17.146 170.546 14.8635C173.001 13.1516 171.965 13.0738 180.097 15.6157ZM323.37 17.2238C324.597 18.2873 325.518 19.221 325.326 19.3248C325.172 19.4285 323.907 19.7657 322.526 20.1029C321.145 20.4141 318.421 21.1663 316.465 21.711L312.897 22.7485L309.368 20.466C307.412 19.221 305.609 18.0279 305.302 17.8722C304.689 17.5091 305.456 17.1979 313.128 14.8894L318.114 13.3851L319.61 14.3447C320.416 14.8635 322.104 16.1604 323.37 17.2238ZM252.942 18.391C257.123 19.8694 261.112 21.296 261.803 21.5554L262.992 22.0741L257.391 24.4863L251.829 26.9244L248.607 25.8351L245.423 24.7716L242.239 25.8351L239.017 26.9244L233.417 24.4863L227.816 22.0482L228.814 21.6591C229.389 21.4516 233.302 20.0251 237.56 18.4948C241.779 16.9904 245.231 15.7194 245.27 15.7194C245.27 15.6935 248.722 16.9126 252.942 18.391ZM134.565 16.6532C134.565 16.7829 134.296 17.7685 133.989 18.8838C133.682 19.9991 133.414 21.4516 133.414 22.0741C133.414 23.3451 133.798 23.2154 128.811 23.7341C127.238 23.9157 124.553 24.3826 122.903 24.7976C121.216 25.2126 119.796 25.4979 119.681 25.446C119.336 25.1866 120.448 22.5151 121.331 21.5035C123.249 19.2988 127.238 17.5091 131.649 16.8607C134.565 16.4198 134.565 16.4198 134.565 16.6532ZM144.001 16.8607C146.494 17.0941 149.985 17.4832 151.788 17.7685C155.355 18.3132 161.877 19.5323 162.145 19.7397C162.26 19.7916 161.953 20.2844 161.493 20.8291C160.994 21.3479 159.997 22.5929 159.268 23.6044C158.501 24.5901 157.849 25.446 157.772 25.4979C157.734 25.5238 155.739 25.2126 153.322 24.7716C148.566 23.9416 141.239 23.2154 137.595 23.2154H135.332V22.3335C135.332 21.3738 136.406 17.0423 136.713 16.7051C137.02 16.3679 138.899 16.4198 144.001 16.8607ZM354.632 18.0279C354.901 18.806 355.208 20.3104 355.361 21.3219L355.63 23.2154H353.29C349.607 23.2154 342.281 23.9416 337.524 24.7716C335.108 25.2126 333.113 25.5238 333.074 25.4979C332.998 25.446 332.346 24.5901 331.578 23.6044C330.85 22.5929 329.852 21.3479 329.354 20.8291C328.893 20.2844 328.586 19.7916 328.702 19.7397C328.97 19.5582 336.604 18.1057 339.787 17.6388C343.969 17.0423 350.029 16.4976 352.254 16.5494L354.172 16.6013L354.632 18.0279ZM360.31 17.0423C363.954 17.6648 367.79 19.5063 369.516 21.5035C370.398 22.5151 371.511 25.1866 371.165 25.446C371.05 25.4979 369.631 25.2126 367.943 24.7976C366.294 24.3826 363.609 23.9157 362.036 23.7341C357.049 23.2154 357.433 23.3451 357.433 22.0741C357.433 21.4516 357.164 19.9991 356.857 18.8838C356.55 17.7685 356.282 16.7829 356.282 16.6791C356.282 16.4716 357.74 16.6013 360.31 17.0423ZM109.478 19.2469C106.447 21.9444 104.644 25.1866 104.644 27.9619C104.644 29.7257 105.795 32.2676 107.061 33.4088C108.02 34.2647 108.02 34.3166 107.483 35.821C106.601 38.3629 106.946 42.1757 108.25 44.2247C108.442 44.5101 107.982 44.7435 106.486 45.1066C105.105 45.4179 103.839 46.0404 102.304 47.0519C100.502 48.2969 99.9645 48.8416 99.3124 50.2941C97.9315 53.3288 98.4685 56.2598 100.808 58.4385C102.343 59.8651 104.414 60.5654 107.138 60.5654C109.401 60.5654 112.163 59.8391 112.585 59.1388C112.7 58.9313 112.93 58.7498 113.122 58.7498C113.544 58.7498 112.47 60.6432 111.319 61.8882C109.976 63.3407 107.061 64.9229 104.913 65.3638C99.6193 66.4273 93.1749 65.3638 88.4567 62.6144C85.6565 61.0063 82.4343 57.401 81.0917 54.4182C80.8232 53.8994 80.8999 53.8735 81.974 54.1588C82.8179 54.3663 83.5851 54.3663 84.6591 54.1848C85.9634 53.9513 86.1935 53.9513 86.3469 54.3663C86.8456 55.5854 90.3363 56.1041 92.7146 55.2741C95.8601 54.1588 96.2437 50.6054 93.7503 45.7032C91.5638 41.3716 91.0268 37.4291 92.1776 33.7201C93.3284 29.9851 98.1233 24.8235 103.34 21.7888C105.258 20.6476 110.36 18.0538 110.705 18.0279C110.782 18.0279 110.245 18.5726 109.478 19.2469ZM193.446 20.0769C199.737 22.2816 211.283 26.5872 211.283 26.7169C211.283 26.8466 200.696 30.7372 200.313 30.7372C200.121 30.7372 198.165 30.011 195.94 29.1551C193.715 28.2732 189.035 26.5354 185.506 25.3163L179.1 23.0597L180.097 22.2038C181.286 21.1923 186.695 18.0279 187.232 18.0279C187.462 18.0279 190.262 18.9357 193.446 20.0769ZM306.875 19.6879C308.448 20.5957 310.212 21.7369 310.749 22.2038L311.747 23.0597L305.341 25.3163C301.812 26.5354 297.132 28.2732 294.907 29.1551C292.682 30.011 290.726 30.7372 290.534 30.7372C290.15 30.7372 279.563 26.8466 279.563 26.7169C279.563 26.4316 302.771 18.0538 303.576 18.0279C303.806 18.0279 305.302 18.7801 306.875 19.6879ZM386.586 21.296C394.871 26.0166 399.206 31.6191 399.244 37.6107C399.244 40.4638 398.669 42.5907 397.096 45.7032C394.603 50.6054 394.987 54.1588 398.132 55.2741C400.51 56.1041 404.001 55.5854 404.5 54.3663C404.653 53.9513 404.883 53.9513 406.187 54.1848C407.262 54.3663 408.029 54.3663 408.873 54.1588C409.947 53.8735 410.023 53.8994 409.755 54.4182C408.412 57.401 405.19 61.0063 402.39 62.6144C397.672 65.3638 391.227 66.4273 385.934 65.3638C383.786 64.9229 380.87 63.3407 379.528 61.8882C378.377 60.6432 377.303 58.7498 377.725 58.7498C377.917 58.7498 378.147 58.9313 378.262 59.1388C378.684 59.8391 381.446 60.5654 383.786 60.5654C386.624 60.5654 388.657 59.8132 390.307 58.1532C392.416 56.0004 392.877 53.2251 391.534 50.2941C390.882 48.8416 390.345 48.2969 388.542 47.0519C387.008 46.0404 385.742 45.4179 384.361 45.1066C382.865 44.7435 382.405 44.5101 382.596 44.2247C383.901 42.1757 384.246 38.3629 383.364 35.821C382.827 34.3166 382.827 34.2647 383.786 33.4088C385.051 32.2676 386.202 29.7257 386.202 27.9619C386.202 25.1607 384.821 22.5929 381.676 19.6101L379.95 17.9501L381.829 18.806C382.865 19.2729 385.013 20.4141 386.586 21.296ZM171.505 22.0741C172.809 22.4632 174.535 22.9819 175.302 23.2413L176.722 23.7341L174.267 26.1982C172.924 27.5469 171.773 28.7919 171.697 28.9216C171.62 29.0513 169.28 28.5326 166.441 27.7544C163.641 26.9763 161.071 26.3279 160.764 26.3279C159.422 26.3279 160.15 24.7716 163.219 21.2182L164.14 20.1288L166.633 20.7773C168.014 21.1144 170.239 21.711 171.505 22.0741ZM329.277 23.2673C330.965 25.4979 331.195 26.3279 330.082 26.3279C329.776 26.3279 327.206 26.9763 324.405 27.7544C321.567 28.5326 319.227 29.0513 319.15 28.9216C319.073 28.7919 317.884 27.5469 316.542 26.1722C315.161 24.7976 314.125 23.6304 314.163 23.6044C314.317 23.5266 323.216 21.0107 325.019 20.5438C326.86 20.051 326.745 19.9732 329.277 23.2673ZM231.882 25.0051C234.798 26.276 237.138 27.3913 237.099 27.4951C237.061 27.5988 234.529 28.5844 231.46 29.6479L225.898 31.5932L220.336 29.4404C217.268 28.2732 214.736 27.2357 214.736 27.1319C214.736 26.9244 225.476 22.7485 226.129 22.7226C226.397 22.6966 228.967 23.7341 231.882 25.0051ZM270.51 24.8235C273.579 25.9907 276.111 27.0282 276.111 27.1319C276.111 27.2357 273.579 28.2732 270.51 29.4404L264.948 31.5932L259.463 29.6738C256.432 28.6104 253.901 27.6507 253.862 27.521C253.747 27.2616 263.721 22.7485 264.45 22.7226C264.718 22.6966 267.403 23.6563 270.51 24.8235ZM133.606 25.2126C134.45 29.4922 137.288 33.6941 141.393 36.7547L142.659 37.7144L141.047 38.2851C138.938 38.9854 135.255 41.3716 134.028 42.7723C131.342 45.8848 131.189 49.9569 133.606 53.4066C134.104 54.1329 134.488 54.7554 134.411 54.8073C134.335 54.8591 133.26 54.8073 132.071 54.6776L129.846 54.4701L129.348 53.1213C128.005 49.5419 124.553 46.611 120.065 45.1844C117.84 44.4841 117.034 44.3544 113.851 44.3026L110.206 44.2247L109.708 43.2651C108.749 41.3976 108.404 38.8816 108.826 37.066C109.017 36.1063 109.286 35.3022 109.363 35.2504C109.439 35.1726 110.283 35.3801 111.204 35.6654C115.001 36.8066 120.41 36.1322 123.402 34.0832C124.821 33.0976 126.509 30.9188 126.509 30.011C126.509 29.5441 126.317 29.4404 125.282 29.4404C123.671 29.4404 121.714 28.6363 120.755 27.5729C120.333 27.106 119.988 26.6391 119.988 26.5354C119.988 26.1982 126.126 24.7716 129.079 24.4085C133.529 23.8638 133.337 23.8119 133.606 25.2126ZM147.3 24.5122C151.174 24.9532 156.66 25.8869 157.082 26.1463C157.158 26.1982 156.66 27.3394 156.008 28.6882C155.355 30.011 154.512 32.1638 154.166 33.4347L153.514 35.7691L150.177 36.2101C148.374 36.4694 146.264 36.7807 145.535 36.9622C144.768 37.1179 144.001 37.1957 143.809 37.1179C143.08 36.8066 139.82 33.6682 138.784 32.2935C137.442 30.4779 136.214 27.7285 135.792 25.6016L135.447 23.9935H139.206C141.239 23.9935 144.883 24.2269 147.3 24.5122ZM193.523 29.6219C195.901 30.5557 197.934 31.3857 198.011 31.4894C198.088 31.5672 195.978 32.4491 193.331 33.3829L188.46 35.1207L183.435 33.2532C180.673 32.2157 177.144 30.9966 175.648 30.5038C174.152 30.011 172.924 29.4922 172.924 29.3626C172.924 29.0254 175.494 26.1463 176.875 24.9532L177.987 23.9676L183.626 25.9647C186.695 27.0541 191.183 28.7141 193.523 29.6219ZM316.388 27.4432C317.232 28.4288 317.923 29.3107 317.923 29.4144C317.923 29.5182 316.695 30.011 315.199 30.5038C313.703 30.9966 310.174 32.2157 307.412 33.2532L302.387 35.1207L297.515 33.3829C294.869 32.4491 292.759 31.5672 292.835 31.4635C293.066 31.2041 301.428 28.0138 307.565 25.8351L312.744 23.9935L313.818 24.8235C314.393 25.2904 315.583 26.4835 316.388 27.4432ZM355.054 25.6016C354.364 29.1032 352.254 32.6307 349.224 35.3282C348.226 36.236 347.229 37.0141 347.037 37.1179C346.845 37.1957 346.078 37.1179 345.311 36.9622C344.582 36.7807 342.511 36.4694 340.67 36.2101L337.371 35.7691L336.642 33.331C336.22 31.9823 335.376 29.8294 334.762 28.5844C334.11 27.3135 333.65 26.2241 333.765 26.1722C333.842 26.0944 335.108 25.8091 336.565 25.5238C341.015 24.6679 347.076 24.0454 351.334 24.0194L355.4 23.9935L355.054 25.6016ZM361.46 24.3826C364.683 24.7716 370.858 26.1722 370.858 26.5354C370.858 26.6391 370.513 27.106 370.091 27.5729C369.132 28.6363 367.176 29.4404 365.603 29.4404C364.529 29.4404 364.337 29.5441 364.337 30.011C364.337 30.9188 366.025 33.0976 367.444 34.0832C370.437 36.1322 375.845 36.8066 379.643 35.6654C380.563 35.3801 381.407 35.1726 381.484 35.2504C381.561 35.3022 381.829 36.1063 382.021 37.066C382.443 38.8816 382.098 41.3976 381.139 43.2651L380.64 44.2247L376.996 44.3026C373.812 44.3544 373.007 44.4841 370.782 45.1844C366.294 46.611 362.841 49.5419 361.499 53.1213L361 54.4701L358.775 54.6776C357.586 54.8073 356.512 54.8591 356.435 54.8073C356.359 54.7554 356.742 54.1329 357.241 53.4066C359.658 49.9569 359.504 45.8848 356.819 42.7723C355.591 41.3716 351.909 38.9854 349.799 38.2851L348.188 37.7144L349.454 36.7547C353.558 33.6941 356.397 29.4922 357.241 25.2126C357.356 24.5382 357.624 23.9935 357.778 23.9935C357.97 23.9935 359.619 24.1751 361.46 24.3826ZM247.38 27.0282C248.415 27.4432 249.259 27.8063 249.259 27.8841C249.259 28.0916 245.96 29.4404 245.423 29.4404C244.886 29.4404 241.587 28.0916 241.587 27.8841C241.587 27.7804 245.04 26.3538 245.385 26.3279C245.423 26.3279 246.344 26.6391 247.38 27.0282ZM165.444 28.1694C167.976 28.8697 170.277 29.5441 170.546 29.6479C170.929 29.8294 170.814 30.1926 170.047 31.3338C169.548 32.1379 168.743 33.5904 168.283 34.5241L167.439 36.236L165.482 36.0804C164.408 36.0026 161.838 35.8469 159.805 35.7691C156.314 35.5876 156.046 35.5357 156.046 35.0429C156.084 34.2129 157.504 30.011 158.386 28.1954C159.306 26.3019 158.654 26.3019 165.444 28.1694ZM332.461 28.1954C333.343 30.011 334.762 34.2129 334.801 35.0429C334.801 35.5357 334.532 35.5876 331.08 35.7691C329.008 35.8469 326.438 36.0026 325.364 36.0804L323.37 36.236L322.526 34.4722C322.027 33.4866 321.26 32.0601 320.761 31.2819C320.262 30.5297 319.84 29.8554 319.84 29.8294C319.84 29.6738 330.696 26.6651 331.425 26.6132C331.54 26.5872 332.039 27.3135 332.461 28.1954ZM118.914 28.1435C119.758 29.1291 121.638 29.9072 123.709 30.1147C124.63 30.1926 125.358 30.3741 125.358 30.5297C125.358 31.1263 123.747 32.8122 122.366 33.6423C120.525 34.7576 117.15 35.6654 114.733 35.6654C112.661 35.6654 110.015 34.7576 110.015 34.0572C110.015 32.8641 113.122 29.8294 115.884 28.3769C116.919 27.8322 117.878 27.3654 117.993 27.3654C118.147 27.3654 118.569 27.7285 118.914 28.1435ZM220.221 30.0888C222.715 31.0485 224.632 31.9304 224.441 32.0601C224.287 32.1638 221.679 33.1494 218.648 34.2388L213.125 36.2101L210.593 35.1726C203.765 32.3454 202.729 31.8785 202.768 31.671C202.768 31.5413 205.184 30.5297 208.1 29.4404L213.393 27.4172L214.544 27.8841C215.196 28.1435 217.728 29.1291 220.221 30.0888ZM283.706 29.8294C286.314 30.7891 288.309 31.671 288.117 31.8007C287.81 32.0082 279.601 35.4838 278.336 35.9507C277.799 36.1322 276.379 35.7432 272.198 34.2388C269.168 33.1494 266.559 32.1638 266.406 32.0601C266.214 31.9304 268.631 30.841 271.776 29.6219C276.801 27.6766 277.53 27.4432 278.221 27.7285C278.642 27.9101 281.136 28.8438 283.706 29.8294ZM374.963 28.3769C377.725 29.8294 380.832 32.8641 380.832 34.0572C380.832 34.7576 378.185 35.6654 376.114 35.6654C373.697 35.6654 370.321 34.7576 368.48 33.6423C367.099 32.8122 365.488 31.1263 365.488 30.5297C365.488 30.3741 366.217 30.1926 367.138 30.1147C369.209 29.9072 371.089 29.1291 371.933 28.1435C372.278 27.7285 372.7 27.3654 372.853 27.3654C372.968 27.3654 373.927 27.8322 374.963 28.3769ZM242.623 29.596L245.423 30.7632L248.3 29.5701L251.139 28.351L256.739 30.3482C259.808 31.4376 262.301 32.4232 262.301 32.501C262.301 32.6047 260.077 33.5385 257.353 34.576L252.366 36.4435L248.914 35.2244L245.423 33.9794L241.933 35.2244L238.48 36.4435L233.494 34.576C230.77 33.5385 228.584 32.5788 228.66 32.4751C228.737 32.2935 239.171 28.4288 239.631 28.4029C239.708 28.4029 241.05 28.9476 242.623 29.596ZM176.99 31.8007C183.665 34.1351 186.849 35.4319 186.465 35.6654C185.928 36.0285 178.218 38.311 177.566 38.311C177.029 38.311 169.894 36.7288 169.51 36.5472C169.165 36.3397 171.888 30.2185 172.31 30.2185C172.387 30.2185 174.458 30.9447 176.99 31.8007ZM319.457 31.6969C320.301 33.2532 321.375 35.821 321.375 36.3397C321.375 36.4954 320.339 36.8326 319.035 37.0919C317.731 37.3254 315.966 37.7404 315.046 37.9997L313.396 38.4666L309.061 37.1957C306.683 36.4954 304.573 35.821 304.382 35.6913C304.151 35.5357 304.88 35.1207 306.261 34.576C309.445 33.3569 318.076 30.2704 318.383 30.2444C318.536 30.2185 318.997 30.8929 319.457 31.6969ZM205.491 34.4463C208.33 35.6135 210.593 36.7029 210.593 36.8326C210.555 36.9882 208.522 37.8182 206.028 38.7001L201.502 40.3082L195.863 38.0516L190.224 35.7951L195.096 34.0832C197.781 33.1494 200.044 32.3454 200.159 32.3454C200.274 32.3194 202.653 33.2791 205.491 34.4463ZM295.559 34.0572L300.622 35.7951L294.984 38.0516L289.345 40.3082L284.742 38.6741C282.21 37.7663 280.139 36.9363 280.139 36.8326C280.139 36.7029 282.478 35.6394 285.317 34.4722C288.156 33.2791 290.496 32.2935 290.496 32.2935C290.496 32.2935 292.759 33.0976 295.559 34.0572ZM232.765 34.9391C234.99 35.7951 236.908 36.5732 237.061 36.6769C237.214 36.7547 235.833 37.4032 233.992 38.0776C232.151 38.726 229.427 39.7635 227.931 40.3082L225.208 41.3457L220.835 39.5041C218.418 38.5185 216.232 37.5329 215.963 37.3513C215.503 37.0919 216.462 36.651 221.295 34.9391C226.244 33.1754 227.318 32.8901 227.97 33.1235C228.392 33.2791 230.54 34.1091 232.765 34.9391ZM269.475 34.9132C274.385 36.651 275.344 37.0919 274.883 37.3513C274.615 37.5329 272.428 38.5185 270.012 39.5041L265.639 41.3457L262.915 40.3082C261.419 39.7635 258.696 38.7519 256.854 38.0776C255.013 37.4032 253.594 36.7807 253.709 36.7029C253.901 36.5732 263.107 32.8901 263.414 32.8382C263.491 32.8122 266.214 33.7719 269.475 34.9132ZM247.802 36.4694L250.18 37.2735L247.878 38.1554C246.651 38.6482 245.538 39.0373 245.423 39.0373C245.308 39.0373 244.196 38.6482 242.968 38.1554L240.667 37.2735L242.968 36.4954C244.196 36.0544 245.27 35.6913 245.347 35.6654C245.385 35.6654 246.497 36.0285 247.802 36.4694ZM194.29 38.4147C197.282 39.6338 199.776 40.6713 199.776 40.7491C199.776 40.801 197.743 41.5532 195.211 42.3832L190.684 43.9394L188.421 42.7723C187.194 42.1497 184.624 41.0085 182.744 40.2822C180.864 39.5301 179.484 38.9076 179.675 38.8557C179.867 38.8038 181.939 38.2072 184.24 37.5069C186.58 36.8066 188.536 36.236 188.613 36.2101C188.69 36.2101 191.26 37.1957 194.29 38.4147ZM306.798 37.5847C309.215 38.2851 311.248 38.8816 311.325 38.9076C311.363 38.9335 309.905 39.556 308.064 40.2822C306.185 41.0085 303.653 42.1497 302.425 42.7723L300.162 43.9394L295.559 42.3832C293.027 41.5272 291.109 40.7232 291.301 40.6194C291.992 40.1785 302.003 36.1841 302.195 36.236C302.31 36.2879 304.382 36.8844 306.798 37.5847ZM153.322 37.6626C153.322 38.3629 153.207 39.3485 153.054 39.8932L152.785 40.8529L150.292 40.0488C147.684 39.2188 145.305 38.1294 145.305 37.7663C145.305 37.5069 150.215 36.6769 152.9 36.4694C153.207 36.4435 153.361 36.8326 153.322 37.6626ZM162.989 36.7288C164.792 36.8844 166.48 37.0919 166.71 37.1957C166.94 37.2994 167.017 38.0257 166.902 39.0891C166.633 41.1641 166.863 41.0863 160.381 41.2938L155.662 41.4494V38.9335V36.4435H157.657C158.731 36.4435 161.148 36.5732 162.989 36.7288ZM335.184 38.9076V41.3716H331.77C328.97 41.3716 324.52 41.0344 324.252 40.7751C324.213 40.7491 324.06 39.9451 323.945 38.9854C323.715 37.4291 323.792 37.2216 324.444 37.0919C325.671 36.8326 329.852 36.5213 332.614 36.4694L335.184 36.4435V38.9076ZM342.971 37.1438C344.391 37.3513 345.541 37.6366 345.541 37.7663C345.541 38.311 338.56 41.0085 337.869 40.7232C337.716 40.6454 337.563 39.6597 337.524 38.5185L337.447 36.4176L338.905 36.5732C339.711 36.651 341.514 36.9104 342.971 37.1438ZM172.54 38.1554C174.267 38.5185 175.609 38.8557 175.532 38.9335C175.264 39.0891 169.779 40.3341 169.318 40.3341C169.05 40.3341 168.935 39.8154 169.011 38.9076C169.088 38.1294 169.203 37.481 169.28 37.481C169.357 37.481 170.853 37.7922 172.54 38.1554ZM321.835 38.9076C321.912 39.7376 321.797 40.3341 321.567 40.3341C320.876 40.3341 315.199 38.9854 315.352 38.8557C315.544 38.726 320.953 37.5069 321.452 37.481C321.567 37.481 321.758 38.1294 321.835 38.9076ZM218.188 39.7116C220.835 40.7751 223.098 41.7347 223.252 41.8385C223.405 41.9422 221.449 42.8241 218.879 43.7838L214.275 45.5476L208.944 43.3947C206.028 42.2276 203.727 41.1901 203.842 41.1122C204.034 40.9826 212.818 37.8441 213.201 37.7663C213.316 37.7663 215.541 38.6222 218.188 39.7116ZM242.776 38.7001L245.385 39.6857L248.224 38.6741L251.062 37.6366L256.394 39.6338C264.181 42.5129 263.836 42.0719 259.386 43.7838C257.315 44.5619 254.783 45.4697 253.824 45.8069L252.021 46.3776L248.722 45.1585L245.423 43.9654L242.124 45.1585L238.825 46.3776L237.023 45.8069C232.956 44.4582 227.74 42.3313 228.046 42.1238C228.507 41.8126 239.401 37.7404 239.823 37.7404C239.976 37.7404 241.319 38.1813 242.776 38.7001ZM282.594 39.5041C286.851 40.9826 287.273 41.1901 286.621 41.4754C286.199 41.6569 283.783 42.6426 281.251 43.6801L276.571 45.5476L271.93 43.7838C269.398 42.8241 267.442 41.9422 267.633 41.8126C268.17 41.4494 277.453 37.7404 277.645 37.8182C277.76 37.8441 279.985 38.6222 282.594 39.5041ZM145.037 38.8816C146.111 39.4522 149.026 40.4379 152.248 41.3197C153.169 41.5532 153.246 41.7347 153.476 43.7579C153.706 45.9626 154.78 49.4382 155.816 51.4613C156.161 52.0838 156.43 52.6285 156.43 52.6544C156.43 53.0435 147.53 54.2107 141.508 54.6257C136.022 54.9888 136.329 55.0666 134.91 52.5507C132.685 48.5563 133.951 43.9913 138.132 40.9048C139.666 39.7894 142.735 38.2591 143.502 38.2591C143.656 38.2591 144.385 38.5444 145.037 38.8816ZM349.416 38.9854C355.937 41.8126 358.699 47.5448 355.937 52.5507C354.517 55.0666 354.824 54.9888 349.339 54.6257C344.621 54.3144 338.061 53.5363 335.645 53.0176C334.762 52.8101 334.417 52.6026 334.57 52.3691C335.913 49.9829 337.486 44.8213 337.486 42.7463C337.486 41.7607 337.601 41.5791 338.56 41.3197C341.629 40.4897 345.081 39.2966 345.925 38.8298C347.152 38.1035 347.383 38.1294 349.416 38.9854ZM183.856 41.631C185.352 42.2276 187.194 43.0835 187.999 43.4985L189.457 44.2766L187.04 45.0548C185.698 45.4697 181.785 46.6369 178.333 47.6226C173.499 49.0232 171.965 49.3604 171.735 49.101C170.814 48.1154 169.395 44.6138 169.203 42.8501C168.973 40.8788 168.973 40.8529 169.894 40.8269C170.392 40.8269 172.272 40.4897 174.075 40.1007L177.335 39.3744L179.253 39.9451C180.327 40.2563 182.399 41.0085 183.856 41.631ZM321.106 40.8529C321.797 40.8529 321.835 41.0085 321.643 42.7204C321.49 44.4063 319.956 48.2191 319.15 49.101C318.882 49.3604 317.385 49.0232 312.514 47.6226C309.061 46.6369 305.149 45.4697 303.806 45.0548L301.39 44.2766L302.847 43.4985C304.842 42.4351 309.292 40.6194 311.555 39.9451L313.434 39.3744L316.925 40.1266C318.805 40.5157 320.723 40.8529 321.106 40.8529ZM167.822 43.706C168.283 45.0029 169.165 46.8444 169.817 47.7782C170.776 49.101 170.929 49.5419 170.546 49.7235C169.932 49.9829 159.728 52.2654 159.153 52.2654C158.424 52.2654 156.353 46.7926 155.854 43.4466L155.586 41.7347L158.232 41.8385C159.652 41.8644 161.877 41.8126 163.142 41.6829C167.247 41.2419 166.902 41.0863 167.822 43.706ZM331.847 41.7607H335.261L334.992 43.4466C334.455 46.9741 332.422 52.2654 331.617 52.2654C331.041 52.2654 320.953 49.9829 320.301 49.7235C319.917 49.5419 320.109 49.101 321.03 47.7782C321.682 46.8444 322.564 45.0029 323.024 43.706L323.868 41.3716L326.17 41.5532C327.436 41.6829 330.006 41.7607 331.847 41.7607ZM206.604 43.4726C209.059 44.5101 211.475 45.5216 211.974 45.7291C212.818 46.0922 212.703 46.1701 206.795 48.4526C203.458 49.7235 200.543 50.8129 200.274 50.8907C200.044 50.9426 199.277 50.4498 198.586 49.7754C197.896 49.101 196.131 47.7004 194.674 46.6369C192.104 44.7954 192.027 44.7435 192.909 44.5101C193.408 44.3804 195.633 43.6801 197.858 42.9538C200.082 42.2535 201.924 41.6569 202 41.631C202.077 41.631 204.149 42.461 206.604 43.4726ZM292.529 42.8241C294.562 43.4726 296.825 44.1988 297.515 44.4063L298.82 44.7694L296.134 46.6629C294.677 47.7004 292.951 49.101 292.26 49.7754C291.57 50.4498 290.802 50.9426 290.572 50.8907C290.304 50.8129 287.388 49.7235 284.051 48.4266L277.952 46.0922L281.558 44.6138C283.514 43.8097 285.892 42.7982 286.851 42.3832C287.81 41.9682 288.616 41.631 288.693 41.631C288.731 41.631 290.457 42.1757 292.529 42.8241ZM231.921 44.951C234.951 46.0144 237.368 46.8963 237.291 46.9482C237.253 47.0001 234.99 47.856 232.304 48.8416L227.394 50.6832L222.83 48.9454C215.58 46.1701 215.771 46.6629 221.103 44.6657C223.597 43.706 225.86 42.9538 226.052 43.0057C226.282 43.0316 228.929 43.9135 231.921 44.951ZM269.705 44.6657C275.075 46.6629 275.267 46.1701 268.017 48.9454L263.452 50.6832L258.542 48.8416C255.857 47.856 253.632 47.0001 253.555 46.9482C253.402 46.8444 264.219 43.0057 264.756 42.9538C264.948 42.9538 267.173 43.706 269.705 44.6657ZM119.681 45.5735C122.251 46.3776 124.86 47.9338 126.509 49.6457C127.737 50.9426 129.425 54.0032 129.079 54.2366C128.696 54.496 124.399 53.5104 121.484 52.4988C119.911 51.9282 117.61 50.8907 116.421 50.1904C114.349 48.9194 110.782 45.6513 110.782 45.0029C110.782 44.7694 111.626 44.7176 114.158 44.7954C116.689 44.8732 117.993 45.0548 119.681 45.5735ZM380.065 44.9251C380.065 45.0548 379.528 45.781 378.837 46.5591C377.034 48.7119 373.122 51.176 369.516 52.4469C366.486 53.5104 362.151 54.5219 361.767 54.2626C361.652 54.1848 361.882 53.4844 362.228 52.7323C363.992 48.9973 368.02 46.1441 372.892 45.1326C374.618 44.7435 380.065 44.6138 380.065 44.9251ZM247.84 45.9107C249.029 46.3257 250.026 46.7666 250.026 46.8444C250.026 46.9482 248.991 47.2594 247.725 47.5707L245.423 48.1413L243.122 47.5707C241.856 47.2594 240.82 46.9482 240.82 46.8444C240.82 46.6629 245.116 45.0288 245.462 45.0807C245.577 45.1066 246.651 45.4697 247.84 45.9107ZM193.868 47.1297C195.364 48.1672 197.129 49.5679 197.781 50.2423L199.008 51.4354L191.337 54.0551L183.665 56.7007L182.245 56.1819C179.56 55.2741 176.07 53.3288 174.458 51.9023C173.576 51.1241 172.962 50.3719 173.077 50.2423C173.193 50.1126 174.612 49.6716 176.261 49.2826C177.911 48.8676 181.747 47.8041 184.815 46.9222C187.884 46.0404 190.569 45.2882 190.8 45.2882C191.03 45.2622 192.411 46.1182 193.868 47.1297ZM304.765 46.5851C307.259 47.3113 311.095 48.3748 313.319 48.9454C315.544 49.516 317.501 50.0607 317.692 50.1904C318.651 50.8129 312.591 54.8332 308.601 56.1819L307.182 56.7007L299.51 54.0551L291.838 51.4354L293.066 50.2423C294.37 48.9454 299.433 45.2622 299.932 45.2622C300.085 45.2622 302.272 45.8588 304.765 46.5851ZM219.761 48.7638C222.139 49.6716 224.556 50.6054 225.054 50.7869C225.937 51.1501 225.86 51.176 222.369 52.4469C217.459 54.2107 211.782 55.9485 207.716 56.9082C205.836 57.3491 204.264 57.7123 204.187 57.7123C204.11 57.7123 203.765 57.0379 203.42 56.2338C203.075 55.4298 202.346 54.1588 201.809 53.4585C201.272 52.7323 200.965 52.1098 201.157 52.0838C201.348 52.0319 204.455 50.8907 208.023 49.5679C211.629 48.2191 214.736 47.1038 214.966 47.1038C215.158 47.0779 217.344 47.8301 219.761 48.7638ZM282.9 49.5938C286.66 50.9685 289.767 52.1098 289.843 52.1616C289.92 52.1876 289.537 52.7841 289.038 53.4844C288.501 54.1848 287.772 55.4298 287.427 56.2338C286.698 57.9457 287.273 57.9198 281.481 56.4932C278.182 55.6632 265.984 51.7466 265.255 51.2538C265.102 51.1501 266.751 50.3979 268.899 49.5938C271.086 48.7898 273.387 47.9079 274.001 47.6226C274.653 47.3372 275.344 47.1038 275.612 47.1038C275.842 47.0779 279.141 48.2191 282.9 49.5938ZM241.741 47.9857C244.925 48.7897 245.922 48.7897 249.067 47.9857L251.599 47.3372L256.586 49.1788C259.309 50.1904 261.534 51.1241 261.534 51.2279C261.534 51.4873 253.977 53.8216 249.374 54.9888L245.423 55.9744L241.511 54.9888C236.409 53.7179 229.274 51.4613 229.389 51.176C229.466 51.0463 238.135 47.6226 239.132 47.3632C239.171 47.3372 240.36 47.6226 241.741 47.9857ZM173.423 51.8763C174.995 53.4066 178.755 55.6891 180.864 56.3635C181.555 56.5969 182.13 56.8563 182.13 56.9341C182.13 57.2454 173.384 59.476 169.011 60.306L166.365 60.7988L164.677 59.3204C162.605 57.5566 159.306 53.3288 159.767 53.0694C159.92 52.9657 161.646 52.5507 163.526 52.1876C165.444 51.7985 167.937 51.2798 169.088 50.9944C170.239 50.7091 171.39 50.4757 171.581 50.4757C171.812 50.4757 172.617 51.0982 173.423 51.8763ZM324.52 51.6169C327.474 52.2654 330.121 52.7841 330.389 52.7841C330.696 52.7841 331.041 52.8879 331.156 53.0435C331.502 53.4066 328.203 57.6085 326.17 59.3204L324.482 60.7988L321.835 60.306C317.462 59.476 308.716 57.2454 308.716 56.9341C308.716 56.8563 309.292 56.5969 309.982 56.3635C312.092 55.6891 315.851 53.4066 317.424 51.8763C318.229 51.0982 318.958 50.4757 319.035 50.4498C319.112 50.4498 321.567 50.9685 324.52 51.6169ZM201.233 54.3923C201.847 55.4298 202.499 56.6488 202.653 57.1157C202.883 57.9198 202.844 57.9457 201.425 58.1532C198.932 58.5163 192.487 58.3607 189.15 57.8419C187.386 57.5826 185.966 57.2973 185.966 57.2194C185.966 57.0898 199.277 52.6026 199.852 52.5507C199.967 52.5248 200.62 53.3807 201.233 54.3923ZM298.129 54.8591C301.812 56.0782 304.88 57.1416 304.88 57.2194C304.88 57.2973 303.461 57.5826 301.735 57.8419C298.359 58.3607 291.915 58.5163 289.421 58.1532C288.002 57.9457 287.964 57.9198 288.194 57.1157C288.578 55.8707 290.726 52.4988 291.071 52.5766C291.224 52.6285 294.408 53.6401 298.129 54.8591ZM158.616 55.7151C159.537 56.8823 161.033 58.5423 161.992 59.3982C163.104 60.3838 163.564 61.0323 163.334 61.1879C163.142 61.3176 160.572 61.4991 157.695 61.551C151.558 61.6807 149.065 61.3694 144.653 59.9169C142.083 59.061 137.25 56.2857 137.25 55.6632C137.25 55.5335 138.592 55.3519 140.242 55.2482C143.349 55.0666 154.972 53.8476 155.24 53.666C155.317 53.6141 155.777 53.5623 156.199 53.5623C156.813 53.5623 157.389 54.0551 158.616 55.7151ZM341.897 54.4441C345.081 54.8073 348.994 55.1704 350.643 55.2482C352.254 55.3519 353.597 55.5076 353.597 55.6373C353.597 56.2598 348.725 59.061 346.193 59.9169C341.782 61.3694 339.289 61.6807 333.151 61.551C327.129 61.4213 326.438 61.2138 327.973 60.1244C329.277 59.1648 331.694 56.5969 332.883 54.8851C333.765 53.5882 333.88 53.5104 334.992 53.6401C335.606 53.7179 338.752 54.081 341.897 54.4441ZM191.106 58.7498C192.833 58.9573 195.786 59.0351 198.433 58.9573C201.847 58.8535 202.844 58.9054 202.998 59.1648C203.305 59.6835 202.576 62.2513 201.885 63.2629C200.926 64.6116 198.318 66.116 195.71 66.8163C193.715 67.361 192.794 67.4129 188.076 67.4388C182.092 67.4388 179.714 67.0757 174.804 65.3379C172.502 64.5079 166.94 61.6548 167.247 61.4473C167.324 61.3954 169.472 60.9544 171.965 60.4616C174.497 59.9688 178.294 59.1129 180.404 58.5682L184.24 57.5566L186.196 57.9976C187.309 58.231 189.495 58.5941 191.106 58.7498ZM319.84 60.6951C321.797 61.0323 323.485 61.3694 323.561 61.4473C323.868 61.6548 317.884 64.7154 315.621 65.4935C310.941 67.1016 308.64 67.4388 302.771 67.4388C296.096 67.4129 293.871 66.946 290.841 64.871C288.808 63.4444 288.041 62.1994 287.887 60.0466L287.81 58.8794L292.797 58.9573C297.784 59.0351 301.696 58.6979 305.034 57.9198C306.453 57.5566 306.683 57.6085 311.401 58.8016C314.087 59.476 317.884 60.3319 319.84 60.6951Z" fill="#BB8B5E"/>
</svg>
