<svg width="45" height="45" viewBox="0 0 45 45" fill="none" xmlns="http://www.w3.org/2000/svg">
<path d="M21.9133 0.605671C21.9022 0.622997 21.7655 0.73735 21.6065 0.855164C21.3218 1.07001 21.1111 1.17743 20.7488 1.28831C20.6453 1.3195 20.5677 1.35069 20.5751 1.35762C20.6194 1.3992 21.5954 1.21208 22.4864 0.990307C22.8302 0.900211 23.2738 0.896748 23.5252 0.97298C23.6435 1.0111 23.7877 1.09773 23.9319 1.22247C24.2091 1.46504 24.3015 1.61058 24.0539 1.41306C23.6065 1.05961 23.1 1.01456 22.3274 1.25366C22.1832 1.29871 22.1093 1.3299 22.1721 1.3195C22.2313 1.3091 22.442 1.29178 22.6342 1.28138C23.1185 1.25019 23.3366 1.3091 23.6028 1.5482C23.7655 1.6972 23.7766 1.71107 23.6694 1.64869C23.4328 1.51355 23.2849 1.46504 23.0483 1.44771C22.771 1.43039 22.3385 1.4685 22.3385 1.51355C22.3385 1.53088 22.3644 1.54474 22.3939 1.54474C22.5566 1.54474 23.174 1.77344 23.4771 1.94323C23.662 2.05066 23.9097 2.16847 24.0243 2.20659C24.3274 2.30361 24.7267 2.29322 25.052 2.18579C25.1962 2.14075 25.3145 2.1061 25.3219 2.11303C25.3441 2.13382 24.9855 2.36945 24.8672 2.4145C24.808 2.43876 24.6195 2.46648 24.4457 2.47687L24.1315 2.50113L24.3496 2.54618C24.4679 2.57043 24.6934 2.58429 24.8487 2.57736C25.1703 2.5635 25.4291 2.46648 25.7396 2.23431C25.8432 2.15807 25.9245 2.1061 25.9245 2.11649C25.9245 2.16154 25.6287 2.50806 25.4846 2.62934C25.3219 2.76448 25.2406 2.80606 24.9633 2.87883L24.7969 2.92388L24.93 2.92735C25.1555 2.93428 25.4328 2.83032 25.6842 2.65359C25.9467 2.46648 25.9504 2.51152 25.6916 2.76102C25.4698 2.97932 25.2553 3.09021 24.9448 3.14912C24.6527 3.20456 24.6306 3.19416 25.2849 3.32931C26.3496 3.55108 26.8894 3.80057 27.4217 4.31689L27.6435 4.53519L27.3552 4.32035C27.089 4.1263 26.5973 3.87334 26.3681 3.81443C26.3164 3.80057 26.3903 3.85601 26.5345 3.93918C27.5252 4.50401 28.1426 5.20051 28.1426 5.74801C28.1426 5.95938 28.0502 6.19155 27.9023 6.35095L27.7766 6.48263L27.8728 6.29897C27.98 6.09106 27.9985 5.87968 27.9208 5.69949C27.8654 5.56782 27.6214 5.20744 27.6029 5.22823C27.5955 5.23169 27.6251 5.33565 27.662 5.45693C27.7471 5.70989 27.7582 6.03908 27.6842 6.19848C27.6214 6.34402 27.4328 6.51728 27.2517 6.60391C27.052 6.70093 27.0483 6.69054 27.2221 6.54153C27.4772 6.32669 27.54 6.09106 27.4069 5.82424C27.2849 5.57475 26.7341 5.14853 26.2202 4.90597C26.0576 4.82973 26.0613 4.83666 26.3866 5.152C26.9005 5.65098 27.0003 5.90741 26.8524 6.35788C26.808 6.49302 26.7674 6.60391 26.7637 6.60391C26.7563 6.60391 26.7526 6.48956 26.7526 6.35095C26.7563 6.03562 26.6897 5.90394 26.3755 5.599L26.1426 5.37377L26.1685 5.5297C26.2055 5.76534 26.3903 6.27818 26.5419 6.55886C26.7045 6.86033 26.9855 7.16873 27.1962 7.26922C27.3848 7.36279 27.6694 7.36971 27.8469 7.28308C27.9171 7.24843 28.0761 7.14794 28.1981 7.05785C28.3903 6.91924 28.4088 6.91231 28.3386 7.0024C28.0539 7.36625 27.9134 7.44595 27.5142 7.4702L27.1999 7.48753L27.4032 7.55684C27.5216 7.59495 27.7064 7.62267 27.8469 7.62614C28.2424 7.62614 28.5123 7.42862 28.7341 6.97815L28.8081 6.82914L28.7859 6.95043C28.7157 7.35239 28.5493 7.65039 28.3164 7.78207C28.1981 7.85138 27.9763 7.92068 27.662 7.98652C27.5105 8.0177 27.5252 8.02117 27.7951 8.01077C28.1352 7.99691 28.3497 7.92414 28.5604 7.74742C28.7822 7.56723 28.7563 7.64693 28.5308 7.84791C28.0132 8.30531 27.3256 8.37115 26.4642 8.03849C26.3977 8.01424 26.3977 8.02117 26.4753 8.12166C26.6232 8.31571 26.8228 8.39541 27.3663 8.47857C28.1389 8.59293 28.394 8.70728 28.5419 9.00528C28.6787 9.2721 28.6824 9.3414 28.553 9.17854C28.3238 8.8944 28.0095 8.78698 27.4217 8.79044H27.052L27.4032 8.88747C27.8284 9.00182 28.028 9.09538 28.1537 9.23745C28.2905 9.38992 28.3164 9.55278 28.2314 9.78841L28.1611 9.98246L28.15 9.80227C28.1352 9.5805 28.0243 9.46615 27.7582 9.39685C27.5659 9.34487 26.9596 9.28943 26.9596 9.32408C26.9596 9.33101 27.041 9.37952 27.1371 9.42457C27.5216 9.60822 27.6916 9.92009 27.6509 10.3602C27.6399 10.4884 27.6509 10.6547 27.6842 10.7829C27.821 11.3443 27.8173 11.9888 27.6768 12.4601C27.5326 12.9313 27.1593 13.4373 26.7082 13.7768C26.3533 14.0402 26.2868 14.0541 26.5382 13.808C26.8154 13.5343 26.9596 13.3368 27.0742 13.0665C27.1482 12.8863 27.1593 12.8031 27.1556 12.4254C27.1556 12.1759 27.1297 11.8883 27.0964 11.7497L27.041 11.5071L27.0373 11.923C27.0299 12.4982 26.9855 12.7408 26.8117 13.0665C26.6565 13.3645 26.4458 13.614 26.1574 13.8288L25.9799 13.9674L26.1315 13.7942C26.7563 13.0838 26.8302 12.4601 26.4162 11.3893C26.2942 11.0671 26.1944 10.873 26.235 11.022C26.3607 11.5071 26.4125 11.8814 26.3977 12.2175C26.3866 12.5502 26.3755 12.6021 26.2498 12.8482C26.1759 12.9937 26.0502 13.2051 25.9688 13.316C25.7618 13.6036 25.6805 13.7664 25.6287 13.9951C25.4402 14.851 26.5086 15.2669 27.4069 14.6917L27.5955 14.5669L27.4439 14.754C27.3626 14.8545 27.2369 14.9758 27.163 15.0208C27.0262 15.1075 26.7156 15.1976 26.5567 15.1976C26.3755 15.1976 26.5234 15.2426 26.8561 15.2877C27.5548 15.3847 28.2535 15.6273 28.5456 15.8733C28.9264 16.1955 28.9005 16.4658 28.4532 16.8609C28.1833 17.0965 28.065 17.145 28.2905 16.9267C28.5382 16.6876 28.5493 16.4935 28.3275 16.348C28.102 16.2059 27.8728 16.1609 26.8894 16.0812C26.6047 16.0604 26.6232 16.0985 26.9227 16.1574C27.3441 16.2371 27.5142 16.3653 27.4624 16.5594C27.4402 16.6529 27.1556 16.9371 27.0262 17.0029C26.9522 17.041 26.9522 17.0376 27.0299 16.9336C27.0742 16.8747 27.1223 16.7742 27.1334 16.7084C27.1482 16.6114 27.1371 16.5732 27.0594 16.5005C26.9227 16.3757 26.6491 16.3134 25.943 16.2544C25.2923 16.2025 25.0298 16.147 24.7341 16.0084C24.3015 15.804 24.1019 15.5129 24.0982 15.0867C24.0945 14.7921 24.0649 14.7991 24.0058 15.104C23.9355 15.4609 24.0539 15.7624 24.3644 16.0361C24.6749 16.3099 25.1075 16.4832 25.7766 16.601L26.0539 16.6495L25.4624 16.6356C24.8339 16.6218 24.4938 16.5698 24.1093 16.4312C23.9799 16.3861 23.8394 16.3376 23.7988 16.3238C23.6361 16.2718 24.113 16.6287 24.3644 16.7465C24.6084 16.8609 24.6675 16.8747 25.0224 16.8886C25.2369 16.899 25.3995 16.9163 25.381 16.9302C25.3663 16.944 25.1962 16.9752 25.0077 16.9995C24.6491 17.041 24.3015 17.0133 23.9873 16.9094C23.906 16.8816 23.8357 16.8678 23.8283 16.8747C23.7988 16.899 24.1315 17.145 24.3126 17.2316C24.479 17.3113 24.5271 17.3183 24.7932 17.3009C24.9596 17.2905 25.1333 17.2732 25.1851 17.2628C25.2369 17.249 25.1703 17.2905 25.0372 17.3529C24.8228 17.4534 24.7637 17.4673 24.4827 17.4673C24.3089 17.4673 24.0871 17.4534 23.9873 17.4361C23.8209 17.4084 23.8136 17.4118 23.8468 17.4707C23.9725 17.6856 24.6269 18.3855 25.2184 18.9434C25.9208 19.6018 26.6121 20.1459 27.2702 20.5617L27.6435 20.7973L28.15 20.8562C28.9929 20.9602 29.6658 21.1715 30.0096 21.4418C30.0909 21.5077 30.3497 21.6844 30.5826 21.8334C31.1778 22.2146 31.444 22.419 31.7878 22.7586C32.1464 23.1155 32.4163 23.5799 32.5752 24.1204L32.6787 24.4669L32.8229 24.4773C33.6991 24.5466 35.5328 23.7566 36.5124 22.8833C36.908 22.5334 37.8137 22.0448 38.3535 21.8888C38.8045 21.7606 39.1779 21.7294 39.5106 21.7918C39.8877 21.8646 40.1428 21.9893 40.4349 22.2423C40.8674 22.6131 41.2149 23.1883 41.5144 24.0338C41.6068 24.2902 41.6844 24.5051 41.6881 24.5085C41.6881 24.512 41.8397 24.4981 42.0208 24.4773C42.653 24.415 42.9598 24.2278 43.2334 23.7393C43.3924 23.462 43.4035 23.4724 43.3037 23.7947C43.2112 24.0962 43.1373 24.2313 42.9525 24.4115L42.8009 24.564L43.0042 24.4635C43.1151 24.408 43.3111 24.2694 43.4368 24.1516C43.7214 23.8883 43.7806 23.7289 43.7843 23.1883L43.788 22.8036L43.8397 22.9942C43.9876 23.5556 43.9802 24.013 43.8101 24.3422C43.7029 24.557 43.3406 24.8897 43.0227 25.0664C42.7528 25.2189 42.7602 25.2431 43.0449 25.1634C43.3406 25.0803 43.5846 24.9417 43.8434 24.7199L44.0911 24.5016L43.921 24.713C43.666 25.0248 43.2704 25.3506 42.9894 25.4822C42.7491 25.5966 42.2833 25.7352 41.995 25.7837C41.8951 25.801 41.8545 25.8288 41.8434 25.8842C41.8323 25.9223 41.799 26.0956 41.7657 26.2688C41.6918 26.6396 41.507 27.246 41.3258 27.7242C41.1742 28.1158 41.1779 28.1227 41.4811 28.1227C41.7768 28.1227 42.372 28.1885 42.5828 28.244C43.0116 28.3583 43.2519 28.6598 43.2852 29.1311L43.3037 29.3875L43.226 29.1969C43.1336 28.9647 42.9857 28.788 42.8009 28.691C42.6345 28.6009 42.2242 28.5385 41.8101 28.5385L41.507 28.542L41.6918 28.6148C42.2463 28.8365 42.6345 29.1969 42.6345 29.4984C42.6345 29.6959 42.568 29.8137 42.3536 29.9904C42.165 30.1464 42.0985 30.1568 42.2242 30.0112C42.2648 29.9593 42.3092 29.8657 42.324 29.8068C42.4016 29.4048 41.8323 29.0756 40.7602 28.9058C40.6456 28.8885 40.6308 28.8989 40.4866 29.0964C40.3129 29.3355 40.1798 29.6093 40.1428 29.786L40.1206 29.9107L40.5753 29.9697C41.714 30.1152 42.2759 30.3993 42.5754 30.9746C42.6641 31.1444 42.7898 31.4839 42.7639 31.4839C42.7565 31.4839 42.7122 31.425 42.6678 31.3523C42.5421 31.1617 42.2796 30.9122 42.0874 30.7944C41.9062 30.6869 41.3554 30.5033 41.1003 30.4652C40.9783 30.4444 41.0227 30.4756 41.3332 30.6211C41.7879 30.8325 42.0245 31.0369 42.1872 31.3523C42.287 31.5567 42.4238 31.9344 42.3942 31.9344C42.3868 31.9344 42.3314 31.8512 42.2722 31.7473C41.9617 31.2344 41.5033 30.9434 40.6973 30.7563C40.1132 30.6176 40.1428 30.6142 40.1724 30.8325C40.213 31.1132 40.3166 31.2934 40.5864 31.5567C40.7232 31.6884 40.823 31.7958 40.8082 31.7958C40.7935 31.7958 40.7158 31.7646 40.6345 31.7265C40.4312 31.626 40.2093 31.432 40.0947 31.2518C40.043 31.1686 39.9949 31.1062 39.9875 31.1132C39.9801 31.1201 40.0134 31.2656 40.0652 31.4354C40.1798 31.7958 40.335 32.0869 40.531 32.2948L40.6715 32.4438L41.2297 32.2948C41.5365 32.2116 41.9321 32.1181 42.1059 32.0903C42.5162 32.0245 43.1114 32.0245 43.3924 32.0903C43.7066 32.1666 44.0911 32.3537 44.361 32.5581C44.6161 32.7522 44.6752 32.8527 44.4571 32.7106C44.2649 32.5893 44.0246 32.475 43.7806 32.3987C43.6179 32.3468 43.4848 32.3364 43.1151 32.3398C42.86 32.3433 42.5606 32.3676 42.4497 32.3953L42.2463 32.4403L42.7454 32.4646C43.544 32.5027 43.9543 32.6448 44.3573 33.0225C44.5606 33.2131 44.9266 33.6878 44.9266 33.7571C44.9266 33.771 44.8638 33.7155 44.7898 33.6289C44.5347 33.3413 44.2796 33.1438 44.0061 33.0156C43.7658 32.9047 43.6881 32.8873 43.4183 32.8735C43.2482 32.8665 43.0042 32.8804 42.8785 32.9047C42.6419 32.9462 41.9839 33.1472 41.7288 33.2546C41.5957 33.3101 41.592 33.317 41.6733 33.3309C41.7251 33.3413 41.9728 33.3655 42.2279 33.3863C43.5107 33.4937 44.3314 33.8299 44.5976 34.3531C44.7122 34.5784 44.7122 34.9561 44.6013 35.261C44.5273 35.462 44.3684 35.76 44.4275 35.5936C44.5089 35.3511 44.531 35.0565 44.483 34.8937C44.4016 34.6234 44.1429 34.4051 43.7103 34.2457C43.3332 34.1036 43.2223 34.0967 43.5107 34.2318C43.7621 34.3531 44.0209 34.5784 44.1133 34.762C44.2649 35.0531 44.1983 35.5001 43.9432 35.8674C43.873 35.9748 43.8545 35.9852 43.873 35.9194C44.0061 35.3892 43.9691 35.1848 43.6881 34.9561C43.4848 34.7863 43.2112 34.7239 42.6715 34.7239C42.4164 34.7239 42.0911 34.7377 41.9506 34.7551L41.6918 34.7897L42.0245 34.8174C42.738 34.8764 43.1225 35.0323 43.2889 35.3268C43.3554 35.4481 43.3739 35.5313 43.3702 35.7427V36.006L43.2852 35.8293C43.1151 35.4828 42.7787 35.3546 42.2205 35.4239C42.0504 35.4481 41.7879 35.5036 41.6364 35.5521L41.3591 35.6387L41.6364 35.6214C41.9987 35.5936 42.2981 35.6491 42.616 35.7981C42.7565 35.8674 42.8342 35.9124 42.7824 35.9021C41.8914 35.7184 41.5144 35.7427 40.6123 36.0441C39.2371 36.505 38.5494 36.6471 37.6918 36.6471C36.8156 36.6471 36.2241 36.4599 35.6141 35.9921C35.3664 35.8016 34.9671 35.2956 34.7564 34.9041C34.5383 34.4917 34.5272 34.4779 34.5937 34.6788C35.0448 36.0718 35.8322 36.7372 37.2001 36.8862C37.7916 36.952 37.7916 36.9555 37.1816 36.9416C35.9653 36.9174 35.0669 36.6228 34.468 36.0545C33.9727 35.5833 33.6769 34.9422 33.566 34.1071C33.5438 33.9234 33.5142 33.771 33.4995 33.771C33.4884 33.771 33.4477 33.8992 33.4144 34.0551C33.3368 34.4224 33.3368 34.8798 33.4144 35.1258C33.4847 35.3476 33.6806 35.7253 33.8396 35.9402C33.8987 36.0233 33.9357 36.0926 33.9209 36.0926C33.9061 36.0926 33.8654 36.0545 33.8359 36.0095C33.8063 35.9679 33.6769 35.7877 33.5512 35.6144C33.1446 35.0462 33.0004 34.5784 33.0336 33.9165C33.0558 33.4487 33.163 33.0883 33.4403 32.5685L33.6067 32.2601L33.5586 32.0349C33.4884 31.7404 33.4921 31.2102 33.5586 30.933C33.6325 30.6419 33.8359 30.285 34.0355 30.0979L34.1945 29.9489L33.9948 29.5816C33.6621 28.9509 33.529 28.3791 33.5401 27.6029C33.5512 27.052 33.5475 27.0173 33.5068 27.0832C33.4884 27.1109 33.4662 27.2599 33.4551 27.4123C33.4181 27.8732 33.2518 28.2197 32.9301 28.5039L32.7933 28.6252L32.8858 28.4519C33.1482 27.9494 33.1852 27.5267 33.0041 27.0138L32.8969 26.7193L32.8488 26.9619C32.8229 27.0935 32.7823 27.2599 32.7601 27.3257C32.675 27.5648 32.0281 28.7742 31.736 29.2385C31.5697 29.4984 31.4329 29.7306 31.4329 29.7513C31.4329 29.8518 31.1852 30.2191 30.9079 30.531C30.5826 30.9018 30.4717 31.0439 30.4717 31.0993C30.4717 31.1166 30.5678 31.2795 30.6861 31.4562C30.9634 31.872 31.3294 32.4819 31.7841 33.2858C32.0318 33.719 32.2129 33.9927 32.346 34.1313C32.4532 34.2457 32.5937 34.4328 32.6529 34.5437C32.8118 34.8382 32.8044 35.008 32.6196 35.3511L32.4754 35.6179L32.6233 35.7912C32.7933 35.9956 32.9264 36.2347 32.9597 36.3941C32.9893 36.5362 32.8858 36.8619 32.7379 37.0871C32.6787 37.1772 32.59 37.347 32.542 37.4614C32.3904 37.8252 31.9689 38.6326 31.6584 39.1593C31.444 39.5128 31.3146 39.7831 31.2222 40.0533C31.1519 40.2647 30.9042 40.9335 30.6713 41.5434C30.4384 42.1532 30.2499 42.6973 30.2499 42.7493C30.2499 42.9017 30.1722 43.2032 30.0983 43.3418C30.0022 43.5185 29.7915 43.7022 29.6066 43.768L29.4513 43.8235L29.407 44.1284C29.3478 44.5442 29.2924 44.6932 29.1741 44.7452C28.9338 44.8526 28.0317 44.8942 27.6251 44.8145L27.4217 44.7729L27.4254 44.5304C27.4254 44.3225 27.4439 44.2566 27.5511 44.0695C27.6214 43.9447 27.7619 43.775 27.8838 43.671C28.0724 43.5047 28.0946 43.47 28.1168 43.3106C28.15 43.0299 28.2535 42.8844 28.6417 42.5725C29.248 42.0874 29.4181 41.8241 29.8432 40.684C30.1722 39.8073 30.3497 39.2529 30.4162 38.889C30.4754 38.5945 30.4828 38.0955 30.4421 37.8252L30.4162 37.6693L29.6879 38.5876C27.6694 41.1379 27.4513 41.4256 27.4032 41.6335C27.3034 42.0562 27.0668 42.3958 26.7822 42.524C26.7082 42.5587 26.5493 42.6003 26.431 42.621L26.2165 42.6592L26.1241 42.9121C25.9984 43.2656 25.8875 43.418 25.7064 43.4839C25.455 43.5809 24.9411 43.6225 24.5344 43.5774C24.2276 43.5463 23.9282 43.4666 23.9282 43.4146C23.9282 43.4076 23.9614 43.3418 23.9984 43.269C24.1537 42.9884 24.6269 42.4998 25.015 42.226C25.1814 42.1082 25.2221 42.0597 25.2221 41.98C25.2221 41.7859 25.3034 41.533 25.4106 41.3978C25.4956 41.2835 25.5992 41.2211 25.9356 41.0686C26.3164 40.8988 26.3792 40.8573 26.6454 40.5939C27.4661 39.7727 28.0909 38.896 29.2147 36.9728C29.651 36.2312 29.7323 36.0684 29.7027 36.0095C29.6214 35.8501 29.0114 35.1813 28.6824 34.8937C28.4421 34.6788 28.2203 34.5264 27.9726 34.3947C27.3404 34.062 27.0225 33.7051 26.8709 33.1576C26.8191 32.974 26.7785 32.9151 26.5899 32.7349C26.2683 32.4369 26.1796 32.2324 26.1537 31.7646L26.1352 31.3938L25.8801 31.1894C25.4106 30.8186 25.2184 30.4998 25.1666 29.9904C25.1223 29.5365 25.1297 29.5538 24.8967 29.4429C24.5788 29.2905 24.1758 29.0098 24.0243 28.84C23.8431 28.6321 23.6842 28.2925 23.6176 27.9668C23.5622 27.7104 23.4476 26.8683 23.4476 26.7262C23.4476 26.6777 23.4106 26.6673 23.1962 26.6673C23.0594 26.6673 22.7414 26.6431 22.4864 26.6188C19.27 26.2792 16.6415 24.3457 14.8744 21.0191C14.697 20.6864 14.4862 20.2602 14.4086 20.0765L14.2607 19.737H13.8319C13.0888 19.737 12.7672 19.5845 12.342 19.0335C12.2533 18.9157 11.4659 18.1534 10.5934 17.3425C9.07767 15.9322 8.34937 15.3015 8.23107 15.3015C8.14235 15.3015 7.03697 16.3619 6.80407 16.6703C6.46025 17.1277 6.30498 17.4291 6.25692 17.7445C6.21256 18.0252 6.10905 18.3232 5.96117 18.59L5.87984 18.739L5.96487 18.888C6.0425 19.0231 6.0462 19.0578 6.01293 19.2103C5.97966 19.3731 5.97966 19.387 6.07578 19.4875C6.34935 19.7751 6.2902 20.3087 5.93899 20.6726C5.66542 20.9567 5.17003 21.2166 4.98149 21.1715C4.78186 21.1265 4.59332 20.78 4.48241 20.2567C4.44913 20.0973 4.40477 20.0003 4.33083 19.9275C4.21253 19.8097 4.11272 19.6053 4.11272 19.484C4.11272 19.3281 4.22362 19.0543 4.37519 18.8325C4.46022 18.7113 4.6044 18.4444 4.69313 18.2365C4.99628 17.5331 5.5656 16.5282 6.17929 15.6203C6.31977 15.4089 6.35304 15.3362 6.30498 15.3466C6.26801 15.357 6.00923 15.4228 5.73196 15.4886C4.63768 15.7555 4.31974 15.8975 3.91678 16.2926C3.57666 16.6252 3.47315 16.6703 3.11455 16.6425L2.86686 16.6218L2.84098 16.9059C2.8114 17.2351 2.73746 17.4049 2.5748 17.5019C2.47129 17.5643 2.4528 17.6024 2.41214 17.8138C2.34929 18.1707 2.19402 18.4618 2.00178 18.59C1.79845 18.7286 1.39918 18.8395 1.0221 18.8637C0.645012 18.8845 0.46756 18.8533 0.356655 18.7494C0.197685 18.6004 0.238354 18.3647 0.534107 17.7445C0.811375 17.1623 1.10713 16.8158 1.48421 16.6356C1.7319 16.5213 2.06093 16.1401 2.0979 15.9322C2.13487 15.7139 2.32341 15.3916 2.46759 15.2842C2.66722 15.1456 2.9408 15.0416 3.4103 14.9377C3.64321 14.8892 4.16817 14.7228 4.57483 14.5738C5.38445 14.2793 5.69869 14.1719 6.756 13.8323C7.43993 13.6105 7.46212 13.6001 7.63218 13.4303C7.73199 13.3298 7.80962 13.2189 7.80962 13.1774C7.80962 12.9036 8.33459 12.3215 8.75234 12.1309C9.00373 12.0131 9.32906 11.9784 9.57675 12.0408C9.84293 12.1101 10.172 12.3492 10.4123 12.6541C10.708 13.0214 11.0555 13.3368 11.5731 13.6971C12.5823 14.3971 12.7191 14.4976 12.9705 14.7298C13.1147 14.8614 13.3032 15.0659 13.392 15.1768L13.5509 15.3812L13.6618 15.1768C13.7875 14.9377 13.9428 14.7748 14.1572 14.657C14.2903 14.5808 14.3162 14.5496 14.3532 14.3902C14.4234 14.0852 14.6045 13.6105 14.8116 13.2086C14.9964 12.8412 15.1961 12.519 15.8689 11.4933C16.2423 10.9181 16.246 10.9146 16.087 11.0012C16.0168 11.0393 15.8874 11.0879 15.795 11.1087C15.6914 11.1364 15.5657 11.2057 15.4585 11.2992C15.1332 11.5834 14.8744 11.6388 14.6859 11.4586C14.6193 11.3963 14.5232 11.3512 14.4234 11.3374C14.1239 11.2923 13.721 11.0012 13.5214 10.679C13.3883 10.4641 13.2884 10.1072 13.2441 9.66367C13.2256 9.46615 13.1849 9.26517 13.1591 9.20973C13.0112 8.93944 13.0814 8.7246 13.392 8.47857C13.6175 8.29839 13.7173 8.16671 14.0611 7.57416C14.6489 6.56579 14.7857 6.18462 14.8264 5.4604L14.8559 4.98913L15.0482 4.62182C15.1517 4.41738 15.3476 4.11591 15.477 3.95304L15.7173 3.6585H15.5399C15.3254 3.6585 15.1924 3.57187 15.1295 3.40208C15.1073 3.3397 15.0593 3.26001 15.0186 3.22535C14.7228 2.97586 15.0962 2.41103 15.7432 2.13035C15.917 2.05412 16.0463 1.97789 16.0353 1.96056C16.002 1.91205 16.2053 1.80463 16.6268 1.65216C17.2515 1.42345 17.9576 1.29178 18.771 1.25019C19.6471 1.20515 20.5603 1.11852 20.8228 1.05614C21.137 0.979912 21.4845 0.834373 21.7248 0.681908C21.8912 0.571018 21.954 0.550228 21.9133 0.605671ZM16.6009 9.89237L16.3569 10.0379L16.3754 10.3221C16.3865 10.478 16.4012 10.6097 16.4049 10.6166C16.4086 10.6235 16.5269 10.4433 16.6674 10.2181C16.8042 9.99286 16.9447 9.77109 16.9743 9.72258L17.0334 9.63594L16.941 9.69139C16.8892 9.72258 16.7377 9.81267 16.6009 9.89237ZM27.0077 11.4274C27.0188 11.4517 27.0262 11.4344 27.0262 11.3859C27.0262 11.3374 27.0188 11.32 27.0077 11.3408C27.0003 11.3651 27.0003 11.4067 27.0077 11.4274Z" fill="#BB8B5E"/>
</svg>
