<svg width="199" height="136" viewBox="0 0 199 136" fill="none" xmlns="http://www.w3.org/2000/svg">
<path d="M1.57314 104.064C1.57314 102.564 1.3394 102.485 0.809002 102.485C0.755063 102.485 0.00439453 102.518 0.00439453 102.383C0.00439453 102.304 0.0583544 102.247 0.278605 102.247H4.16669C4.31502 102.247 4.45437 102.27 4.45437 102.383C4.45437 102.462 4.35997 102.462 4.30603 102.462C3.17331 102.462 3.15983 102.918 3.15983 103.985V106.915C3.15983 111.142 5.68598 111.485 7.24122 111.485C7.60981 111.485 7.9649 111.428 8.30652 111.349C10.6394 110.776 11.1338 109.015 11.1338 106.677V100.645C11.1338 99.8453 10.972 99.3174 9.9067 99.3174C9.56509 99.3174 9.55162 99.2835 9.55162 99.2156C9.55162 99.1251 9.646 99.1138 9.85277 99.1138C11.6013 99.1138 11.7226 99.1025 13.2105 99.1025C13.4037 99.1025 13.5656 99.1251 13.5656 99.2269C13.5656 99.2495 13.5656 99.2721 13.5386 99.2948C12.6531 99.2948 12.3115 99.5361 12.3115 100.211C12.3115 101.813 12.2845 102.409 12.2845 106.406C12.2845 107.288 12.2036 108.099 11.9699 108.891C11.3945 110.78 9.49766 112.062 6.7288 112.062C6.22537 112.062 4.38245 111.994 3.16433 110.972C2.42717 110.433 1.58211 109.381 1.58211 106.986V104.068L1.57314 104.064ZM7.91996 96.6442C7.91996 97.206 7.38954 97.6509 6.7198 97.6509C6.05006 97.6509 5.51966 97.206 5.51966 96.6442C5.51966 96.0824 6.03657 95.6375 6.7198 95.6375C7.40303 95.6375 7.91996 96.105 7.91996 96.6442Z" fill="url(#paint0_linear_0_87)"/>
<path d="M20.6991 109.23C16.1683 108.921 16.0559 106.138 16.0559 103.299V95.1472C16.0559 94.5401 16.0694 94.1744 15.8087 93.9783C15.6738 93.8878 14.9636 93.8539 14.9636 93.7257C14.9636 93.6465 15.031 93.6239 15.2108 93.6239H18.609C18.7438 93.6239 18.8697 93.6239 18.8697 93.7257C18.8697 93.771 18.8023 93.8275 18.7349 93.8275C17.7774 93.8275 17.5482 94.0462 17.5482 94.5703C17.5482 97.3303 17.5212 102.586 17.5212 104.694C17.5212 106.364 17.7954 108.551 20.7036 108.725V109.23H20.6991Z" fill="url(#paint1_linear_0_87)"/>
<path d="M26.6504 101.112C29.4642 101.112 32.3005 101.214 35.4829 101.033C37.1909 100.931 39.0024 100.588 39.9328 99.2457C39.5373 99.898 38.6518 101.696 36.4942 102.153C33.6534 102.76 30.3092 102.349 27.419 102.349C25.0457 102.349 22.8881 102.451 22.8881 104.924C22.8881 106.643 24.0209 108.336 26.0705 108.713H40.3464V109.23H20.7036V108.713H24.0748C22.6005 108.061 21.5891 106.79 21.5891 105.154C21.5891 102.933 23.8411 101.112 26.6549 101.112" fill="url(#paint2_linear_0_87)"/>
<path d="M45.5738 108.404C46.1762 108.611 46.801 108.702 47.4437 108.702C50.5407 108.702 51.7858 106.492 51.7858 104.362C51.7858 101.546 49.7406 99.6001 46.9133 99.6001C46.4773 99.6001 46.0278 99.6454 45.5738 99.7509V99.257C46.0773 99.1665 46.5987 99.1326 47.1156 99.1326C51.0756 99.1326 53.4085 101.365 53.4085 104.012C53.4085 104.125 53.4085 104.242 53.395 104.355C53.395 105.738 53.3545 107.458 54.9637 108.295C55.4537 108.559 56.0425 108.694 56.5864 108.717V109.234C54.7704 109.12 53.1208 108.295 52.5589 106.658C51.4127 108.317 49.2552 109.222 46.9493 109.222C46.4863 109.222 46.0368 109.188 45.5693 109.12V108.412L45.5738 108.404Z" fill="url(#paint3_linear_0_87)"/>
<path d="M78.5127 108.713V109.23C76.89 109.117 75.4426 108.487 74.7324 107.194C74.0357 108.246 72.7817 109.23 71.2399 109.23H56.5955V108.713H70.8893C72.9659 108.713 74.0402 106.628 74.0402 104.901C74.0402 103.732 73.3165 102.473 71.8287 102.383C71.0511 102.36 70.287 102.349 69.5228 102.349C66.5337 102.349 63.3963 102.556 60.4611 102.153C58.2361 101.685 57.472 99.8527 57.0225 99.2457C57.9529 100.584 59.7644 100.927 61.4724 101.033C64.5155 101.218 67.4237 101.112 70.3049 101.112C72.9659 101.112 75.2853 103.012 75.3258 105.267C75.3527 106.824 76.0359 108.611 78.5216 108.713M67.0686 111.153C67.0686 111.726 66.5382 112.159 65.8685 112.159C65.1987 112.159 64.6683 111.726 64.6683 111.153C64.6683 110.58 65.1987 110.146 65.8685 110.146C66.5382 110.146 67.0686 110.591 67.0686 111.153Z" fill="url(#paint4_linear_0_87)"/>
<path d="M78.5127 108.725C81.3939 108.555 81.6906 106.379 81.6906 104.694V101.135C81.6906 100.95 81.6906 95.2716 81.6771 95.1472C81.6771 94.3704 81.6906 94.001 81.1287 93.8878C80.9939 93.8539 80.3376 93.8652 80.3376 93.7257C80.3376 93.6239 80.459 93.6239 80.5983 93.6239H83.9965C84.1718 93.6239 84.2437 93.6465 84.2437 93.7257C84.2437 93.771 84.1763 93.8275 84.1223 93.8275C83.2773 93.8275 83.1515 94.0914 83.1515 94.8229V101.84C83.1515 105.09 83.7538 108.872 78.5127 109.226V108.721V108.725Z" fill="url(#paint5_linear_0_87)"/>
<path d="M86.8775 94.5854C86.8505 94.001 86.5629 93.854 85.9246 93.8426C85.8302 93.8426 85.8032 93.8087 85.8032 93.7748C85.8032 93.7182 85.8976 93.6353 86.0504 93.6353H89.4486C89.597 93.6353 89.6958 93.7145 89.6958 93.7748C89.6958 93.8087 89.6554 93.8426 89.5745 93.8426C88.8912 93.854 88.4283 93.8879 88.3878 94.5854C88.3069 95.7429 88.3339 96.9193 88.3608 107.695C88.3608 108.943 88.662 109 89.5745 109.011C89.6554 109.022 89.6958 109.045 89.6958 109.09C89.6958 109.147 89.6014 109.226 89.4486 109.226H86.0504C85.9021 109.226 85.8032 109.147 85.8032 109.09C85.8032 109.045 85.8302 109.022 85.9246 109.011C86.7562 108.989 86.864 108.691 86.891 108.016L86.8775 94.5854Z" fill="url(#paint6_linear_0_87)"/>
<path d="M116.337 108.713C116.899 108.702 117.443 108.54 117.947 108.28C119.407 107.514 119.515 106.036 119.515 104.683V100.343C119.515 99.9433 119.596 99.3815 118.846 99.3815C118.625 99.3815 118.176 99.4154 118.176 99.2457C118.176 99.2005 118.176 99.1779 118.23 99.1552C119.403 99.1552 120.621 99.1326 121.808 99.1326C122.19 99.1326 122.19 99.34 121.781 99.34H121.605C121.21 99.3513 121.003 99.4531 121.003 100.098C121.003 100.177 120.976 102.583 120.976 102.858C120.976 105.848 121.111 108.917 116.333 109.234H105.087C102.003 109.098 99.041 107.22 99.041 104C99.041 103.393 99.1624 102.797 99.4231 102.247H101.104C100.803 102.888 100.655 103.646 100.655 104.389C100.655 106.542 101.936 108.717 105.091 108.717H116.337V108.713ZM109.703 96.6328C109.703 97.2059 109.173 97.6395 108.503 97.6395C107.833 97.6395 107.303 97.2059 107.303 96.6328C107.303 96.0597 107.86 95.6261 108.503 95.6261C109.146 95.6261 109.703 96.071 109.703 96.6328ZM112.638 96.6328C112.638 97.2059 112.076 97.6395 111.438 97.6395C110.8 97.6395 110.238 97.2059 110.238 96.6328C110.238 96.0597 110.768 95.6261 111.438 95.6261C112.108 95.6261 112.638 96.071 112.638 96.6328Z" fill="url(#paint7_linear_0_87)"/>
<path d="M126.855 103.917C126.842 103.197 126.842 102.511 126.842 101.787C126.842 99.4606 126.855 97.1832 126.855 94.8606C126.855 94.2762 126.788 93.8652 125.885 93.8313C125.804 93.8313 125.763 93.8087 125.763 93.7634C125.763 93.7069 125.858 93.6277 126.01 93.6277H129.409C129.557 93.6277 129.656 93.7069 129.656 93.7634C129.656 93.8087 129.615 93.8313 129.534 93.8313C128.622 93.8652 128.321 93.8878 128.321 95.1472C128.321 97.2888 128.294 99.3852 128.294 101.527C128.294 102.341 128.294 103.129 128.307 103.921H126.86L126.855 103.917ZM126.909 105.143H128.316C128.37 106.722 128.86 108.728 131.499 108.728C134.407 108.728 134.695 106.368 134.695 104.698C134.695 102.386 134.668 98.288 134.668 94.8305C134.668 94.0952 134.56 93.8351 133.467 93.8351C133.373 93.8351 133.166 93.6277 133.589 93.6277H137.234C137.468 93.6277 137.495 93.6729 137.495 93.7295C137.468 93.7747 137.414 93.8087 137.333 93.8313C137.266 93.8539 137.113 93.8652 136.897 93.8652C136.681 93.8652 136.529 93.8992 136.434 93.9557C136.187 94.1178 136.146 94.4609 136.146 94.7927V95.1472C136.146 98.2276 136.133 101.01 136.133 104.698C136.133 106.383 136.421 108.547 139.329 108.728V109.234C137.198 109.098 136.025 108.397 135.409 107.401C134.793 108.397 133.647 109.234 131.503 109.234C127.939 109.234 127.134 107.243 126.918 105.146" fill="url(#paint8_linear_0_87)"/>
<path d="M145.5 108.28C146.004 108.555 146.566 108.702 147.123 108.713V109.23C144.993 109.094 143.846 108.393 143.204 107.409C142.588 108.393 141.442 109.09 139.315 109.23V108.713C142.071 108.6 142.453 106.285 142.48 104.649V100.343C142.48 99.7811 142.399 99.3588 141.635 99.3588C141.347 99.3588 141.131 99.3249 141.131 99.2457C141.131 99.1552 141.253 99.1326 141.392 99.1326H145.051C145.258 99.1326 145.312 99.1891 145.312 99.2457C145.312 99.3588 144.862 99.3588 144.808 99.3588C144.031 99.3588 143.963 99.815 143.963 100.207C143.963 100.286 143.963 100.366 143.936 104.683C143.936 106.082 144.044 107.511 145.505 108.28M144.413 111.153C144.413 111.726 143.878 112.159 143.213 112.159C142.547 112.159 142.012 111.726 142.012 111.153C142.012 110.58 142.547 110.146 143.213 110.146C143.878 110.146 144.413 110.591 144.413 111.153Z" fill="url(#paint9_linear_0_87)"/>
<path d="M147.123 109.23V108.713H150.359C150.346 106.138 150.373 95.2603 150.332 94.5741C150.292 93.8992 149.784 93.8313 149.132 93.8313C149.038 93.82 148.997 93.7974 148.997 93.7521C148.997 93.6955 149.105 93.6239 149.245 93.6239H152.656C152.805 93.6239 152.917 93.7031 152.917 93.7634C152.917 93.7973 152.877 93.82 152.796 93.8313C152.139 93.8313 151.825 94.016 151.825 94.5741C151.825 94.9059 151.798 97.6998 151.798 100.769C152.683 99.9771 153.847 99.1551 155.169 99.1551H161.61C161.718 99.1551 161.83 99.1438 162.334 99.1778C165.39 99.3851 167.687 101.206 167.714 103.974C167.714 105.953 167.755 108.381 170.951 108.713V109.23C169.094 109.117 167.485 108.302 166.923 106.632C165.885 108.133 163.988 109.23 161.75 109.23H147.132H147.123ZM155.164 99.6679C152.993 99.6679 151.793 101.659 151.793 103.344C151.793 105.644 151.82 107.752 151.82 108.713H161.606C164.433 108.713 166.137 106.813 166.137 104.373C166.137 102.198 164.77 99.6679 162.015 99.6679H155.164Z" fill="url(#paint10_linear_0_87)"/>
<path d="M182.601 107.409C181.878 108.544 180.282 109.23 178.709 109.23C176.592 109.083 175.472 108.381 174.861 107.409C174.245 108.381 173.099 109.102 170.946 109.23V108.713C171.508 108.713 172.065 108.555 172.569 108.28C174.03 107.51 174.137 106.048 174.137 104.683V100.298C174.137 100.068 174.111 99.6792 173.85 99.4832C173.674 99.3701 172.785 99.3927 172.785 99.2419C172.785 99.1853 172.784 99.1288 173.045 99.1288H176.677C176.911 99.1288 176.924 99.1627 176.924 99.2419C176.924 99.3437 176.789 99.355 176.421 99.355C175.657 99.355 175.576 99.7207 175.576 100.041C175.576 100.086 175.576 101.632 175.589 104.679C175.589 106.387 176.093 108.709 178.713 108.709C181.334 108.709 181.882 106.432 181.882 104.679V100.788C181.882 100.754 181.882 100.592 181.869 100.305C181.855 100.007 181.828 99.8112 181.774 99.7094C181.72 99.6076 181.639 99.5247 181.527 99.4681C181.159 99.2947 180.462 99.3889 180.543 99.2381C180.543 99.1816 180.529 99.125 180.79 99.125H184.422C184.602 99.125 184.683 99.1589 184.683 99.2381C184.683 99.3399 184.507 99.3512 184.179 99.3512C183.536 99.3512 183.361 99.6378 183.361 100.083C183.361 101.033 183.334 101.617 183.334 104.675C183.334 106.025 183.442 107.503 184.903 108.272C185.433 108.547 185.941 108.706 186.525 108.706C189.186 108.706 189.708 106.462 189.708 104.675C189.694 101.745 189.681 100.222 189.667 100.12C189.667 100.019 189.6 99.8564 189.461 99.6491C189.326 99.4417 189.119 99.3399 188.858 99.3512C188.355 99.3625 188.341 99.2947 188.341 99.2155C188.341 99.1702 188.368 99.1476 188.422 99.1476C189.622 99.1476 190.809 99.125 192 99.125C192.176 99.125 192.261 99.1589 192.261 99.2381C192.261 99.4794 191.169 99.1137 191.169 100.086V103.623C191.169 106.327 190.908 109.222 186.53 109.222C184.372 109.222 183.24 108.385 182.615 107.401" fill="url(#paint11_linear_0_87)"/>
<path d="M194.886 94.5854C194.859 94.001 194.571 93.854 193.929 93.8426C193.834 93.8426 193.807 93.8087 193.807 93.7748C193.807 93.7182 193.902 93.6353 194.054 93.6353H197.453C197.601 93.6353 197.7 93.7145 197.7 93.7748C197.7 93.8087 197.659 93.8426 197.578 93.8426C196.895 93.854 196.432 93.8879 196.392 94.5854C196.311 95.7429 196.338 96.9193 196.365 107.695C196.365 108.943 196.666 109 197.578 109.011C197.659 109.022 197.7 109.045 197.7 109.09C197.7 109.147 197.605 109.226 197.453 109.226H194.054C193.906 109.226 193.807 109.147 193.807 109.09C193.807 109.045 193.834 109.022 193.929 109.011C194.76 108.989 194.872 108.691 194.899 108.016L194.886 94.5854Z" fill="url(#paint12_linear_0_87)"/>
<path d="M7.92004 117.359C8.18524 116.744 8.27962 116.624 8.41897 116.624C8.54482 116.624 8.63921 116.714 8.9179 117.306C9.24602 118.026 12.8105 125.888 14.2039 128.772C15.0175 130.465 15.6738 130.778 16.1412 130.883C16.7211 131.068 17.2829 130.921 17.2829 131.121C17.2829 131.291 17.1751 131.279 15.8311 131.279C14.5815 131.279 12.5947 131.253 12.5947 131.095C12.5947 130.936 12.9408 131.015 12.9408 130.687C12.9408 130.623 12.9229 130.544 12.8779 130.45L10.7833 125.767C10.7383 125.703 10.6889 125.661 10.581 125.661H5.69955C5.59167 125.661 5.51075 125.714 5.4658 125.805L4.10383 129.175C3.91505 129.62 3.78921 130.069 3.78921 130.397C3.78921 130.816 4.21172 131 4.64773 131H4.88147C5.03879 131 5.10172 131.042 5.10172 131.117C5.10172 131.223 4.96237 131.261 4.7556 131.261H0.422496C0.139316 131.261 0 131.223 0 131.117C0 131.038 0.0943713 131 0.202249 131C1.76648 131 2.25194 130.359 2.76886 129.175L7.91554 117.355L7.92004 117.359ZM10.2799 124.968C10.3428 124.968 10.3742 124.941 10.3742 124.915C10.3742 124.888 10.3743 124.862 10.3563 124.836L8.21219 119.708C8.14926 119.565 8.08634 119.497 8.02341 119.497C7.97846 119.497 7.91554 119.561 7.8661 119.708L5.86136 124.836C5.84787 124.862 5.84786 124.888 5.84786 124.904C5.84786 124.956 5.87934 124.968 5.94226 124.968H10.2754H10.2799Z" fill="url(#paint13_linear_0_87)"/>
<path d="M21.3867 126.608C21.3867 128.983 21.4316 129.952 21.7912 130.243C22.1058 130.506 22.87 130.623 24.4342 130.623C25.4815 130.623 26.3715 130.608 26.8435 130.126C27.0952 129.888 27.248 129.534 27.3289 129.221C27.3424 129.104 27.4054 129.01 27.5312 129.01C27.6076 129.01 27.6571 129.089 27.6571 129.258C27.6571 129.428 27.5312 130.401 27.3739 130.872C27.2345 131.253 27.1536 131.306 26.0928 131.306C24.668 131.306 23.5577 131.291 22.6183 131.253C21.7103 131.227 21.0406 131.212 20.4427 131.212C20.3483 131.212 20.0202 131.212 19.6292 131.227C19.2246 131.253 18.7841 131.264 18.4695 131.264C18.2672 131.264 18.1548 131.227 18.1548 131.132C18.1548 131.08 18.1998 131 18.3121 131C18.5009 131 18.7481 130.963 18.9234 130.921C19.3145 130.842 19.3595 130.54 19.4404 130.069C19.5662 129.398 19.5662 128.127 19.5662 126.566V123.72C19.5662 121.201 19.5662 120.756 19.5168 120.228C19.4718 119.678 19.3595 119.414 18.7032 119.335C18.5324 119.32 18.2043 119.293 18.0155 119.293C17.9525 119.293 17.8582 119.229 17.8582 119.161C17.8582 119.071 17.9526 119.029 18.1728 119.029C19.0808 119.029 20.3304 119.067 20.4427 119.067C20.5371 119.067 22.0384 119.029 22.6497 119.029C22.852 119.029 22.9644 119.067 22.9644 119.161C22.9644 119.225 22.87 119.278 22.8071 119.278C22.6677 119.278 22.3845 119.293 22.1508 119.32C21.5575 119.41 21.4451 119.659 21.4001 120.224C21.3867 120.749 21.3867 121.193 21.3867 123.716V126.6V126.608Z" fill="url(#paint14_linear_0_87)"/>
<path d="M33.123 126.974C33.123 130.058 33.123 131.223 32.4353 132.576C31.9678 133.534 30.9655 134.428 29.136 135.487C28.8394 135.657 28.4798 135.868 28.246 135.974C28.2011 135.985 28.1517 136 28.0887 136C28.0258 136 27.9314 135.974 27.9314 135.894C27.9314 135.778 28.0393 135.725 28.246 135.608C28.5292 135.476 28.8394 135.242 29.0417 135.069C30.5115 133.821 31.2172 132.81 31.2172 127.905V122.408C31.2172 119.429 31.2172 118.905 31.1722 118.286C31.1273 117.642 30.952 117.34 30.2013 117.212C30.0125 117.174 29.6395 117.148 29.4372 117.148C29.3428 117.148 29.2484 117.121 29.2484 117.042C29.2484 116.925 29.3563 116.884 29.608 116.884C30.6239 116.884 32.0622 116.948 32.1746 116.948C32.287 116.948 33.7253 116.884 34.3951 116.884C34.6468 116.884 34.7547 116.925 34.7547 117.042C34.7547 117.121 34.6603 117.148 34.5839 117.148C34.4265 117.148 34.2872 117.174 34.004 117.212C33.3927 117.302 33.2219 117.63 33.1725 118.286C33.1275 118.905 33.1275 119.429 33.1275 122.408V126.974H33.123Z" fill="url(#paint15_linear_0_87)"/>
<path d="M42.3556 119.365C42.6073 118.826 42.7017 118.735 42.8231 118.735C43.0433 118.735 43.1063 118.958 43.3085 119.327C43.6681 120.01 46.873 126.687 48.0956 129.142C48.8148 130.586 49.3632 130.793 49.7992 130.914C50.0824 130.993 50.379 131.004 50.5813 131.004C50.7071 131.004 50.833 131.046 50.833 131.136C50.833 131.227 50.6128 131.268 50.379 131.268C50.0823 131.268 48.6125 131.268 47.2371 131.23C46.846 131.215 46.5314 131.215 46.5314 131.125C46.5314 131.046 46.5763 131.046 46.6707 131.008C46.7786 130.97 46.9854 130.838 46.8415 130.574L45.0571 126.86C45.0121 126.781 44.9806 126.77 44.8682 126.77H40.27C40.1756 126.77 40.0991 126.808 40.0677 126.902L38.926 129.488C38.7372 129.896 38.6293 130.288 38.6293 130.578C38.6293 130.891 38.9754 131.012 39.317 131.012H39.4878C39.6452 131.012 39.6901 131.065 39.6901 131.144C39.6901 131.234 39.5822 131.276 39.4069 131.276C38.9215 131.276 37.8292 131.223 37.609 131.223C37.4067 131.223 36.4043 131.276 35.5908 131.276C35.339 131.276 35.1997 131.238 35.1997 131.144C35.1997 131.065 35.2941 131.012 35.3885 131.012C35.5278 131.012 35.811 130.997 35.9818 130.974C36.8898 130.884 37.2629 130.307 37.6539 129.492L42.3466 119.376L42.3556 119.365ZM44.5761 126.095C44.6705 126.095 44.6705 126.057 44.639 125.978L42.6703 121.544C42.5624 121.307 42.45 121.307 42.3421 121.544L40.4812 125.978C40.4498 126.057 40.4812 126.095 40.5441 126.095H44.5806H44.5761Z" fill="url(#paint16_linear_0_87)"/>
<path d="M52.4466 123.72C52.4466 121.201 52.4466 120.756 52.3971 120.228C52.3522 119.678 52.2398 119.414 51.5836 119.335C51.4128 119.32 51.0847 119.297 50.8959 119.297C50.8329 119.297 50.7385 119.233 50.7385 119.165C50.7385 119.074 50.8329 119.033 51.0532 119.033C51.9611 119.033 53.2602 119.074 53.3681 119.074C53.6018 119.074 54.8694 119.033 56.0425 119.033C58.0428 119.033 61.6882 118.875 64.0525 120.884C65.0549 121.71 66.0078 123.064 66.0078 124.99C66.0078 127.026 64.9605 128.584 63.8502 129.53C62.9917 130.276 61.1937 131.408 57.7955 131.408C56.937 131.408 55.8717 131.344 55.0132 131.302C54.1367 131.249 53.467 131.212 53.3726 131.212C53.3276 131.212 52.968 131.227 52.559 131.227C52.1544 131.253 51.669 131.264 51.3544 131.264C51.1521 131.264 51.0397 131.227 51.0397 131.132C51.0397 131.08 51.0846 131 51.197 131C51.3858 131 51.633 130.963 51.8083 130.921C52.1994 130.842 52.2443 130.54 52.3252 130.069C52.4511 129.398 52.4511 128.127 52.4511 126.566V123.72H52.4466ZM54.2626 125.465C54.2626 127.185 54.2626 128.682 54.276 128.983C54.3075 129.39 54.3524 129.979 54.5098 130.152C54.7615 130.454 55.4627 130.793 57.809 130.793C59.6565 130.793 61.2836 130.28 62.4882 129.323C63.5356 128.508 64.0525 126.974 64.0525 125.492C64.0525 123.433 62.9872 122.121 62.1781 121.439C60.2857 119.84 58.0967 119.629 55.7189 119.629C55.3278 119.629 54.6851 119.682 54.5143 119.746C54.3255 119.798 54.2626 119.878 54.2626 120.059V125.465Z" fill="url(#paint17_linear_0_87)"/>
<path d="M72.8175 119.365C73.0693 118.826 73.1636 118.735 73.285 118.735C73.5053 118.735 73.5682 118.958 73.7705 119.327C74.1301 120.01 77.3349 126.687 78.5575 129.142C79.2767 130.586 79.8251 130.793 80.2611 130.914C80.5443 130.993 80.841 131.004 81.0432 131.004C81.1691 131.004 81.2949 131.046 81.2949 131.136C81.2949 131.227 81.0747 131.268 80.841 131.268C80.5443 131.268 79.0745 131.268 77.699 131.23C77.308 131.215 76.9933 131.215 76.9933 131.125C76.9933 131.046 77.0383 131.046 77.1327 131.008C77.2405 130.97 77.4473 130.838 77.3035 130.574L75.519 126.86C75.474 126.781 75.4426 126.77 75.3302 126.77H70.7319C70.6375 126.77 70.5611 126.808 70.5296 126.902L69.3879 129.488C69.1991 129.896 69.0912 130.288 69.0912 130.578C69.0912 130.891 69.4374 131.012 69.779 131.012H69.9498C70.1071 131.012 70.152 131.065 70.152 131.144C70.152 131.234 70.0442 131.276 69.8689 131.276C69.3834 131.276 68.2911 131.223 68.0709 131.223C67.8686 131.223 66.8663 131.276 66.0527 131.276C65.801 131.276 65.6616 131.238 65.6616 131.144C65.6616 131.065 65.756 131.012 65.8504 131.012C65.9898 131.012 66.2729 130.997 66.4437 130.974C67.3517 130.884 67.7248 130.307 68.1159 129.492L72.8085 119.376L72.8175 119.365ZM75.038 126.095C75.1324 126.095 75.1324 126.057 75.1009 125.978L73.1322 121.544C73.0243 121.307 72.9119 121.307 72.804 121.544L70.9431 125.978C70.9117 126.057 70.9432 126.095 71.0061 126.095H75.0425H75.038Z" fill="url(#paint18_linear_0_87)"/>
<path d="M85.9428 119.365C86.1945 118.826 86.2889 118.735 86.4103 118.735C86.6305 118.735 86.6934 118.958 86.8957 119.327C87.2553 120.01 90.4602 126.687 91.6828 129.142C92.402 130.586 92.9503 130.793 93.3863 130.914C93.6695 130.993 93.9662 131.004 94.1685 131.004C94.2943 131.004 94.4202 131.046 94.4202 131.136C94.4202 131.227 94.1999 131.268 93.9662 131.268C93.6695 131.268 92.1997 131.268 90.8243 131.23C90.4332 131.215 90.1186 131.215 90.1186 131.125C90.1186 131.046 90.1635 131.046 90.2579 131.008C90.3658 130.97 90.5725 130.838 90.4287 130.574L88.6442 126.86C88.5993 126.781 88.5678 126.77 88.4554 126.77H83.8571C83.7627 126.77 83.6863 126.808 83.6549 126.902L82.5131 129.488C82.3244 129.896 82.2165 130.288 82.2165 130.578C82.2165 130.891 82.5626 131.012 82.9042 131.012H83.075C83.2323 131.012 83.2773 131.065 83.2773 131.144C83.2773 131.234 83.1694 131.276 82.9941 131.276C82.5086 131.276 81.4164 131.223 81.1961 131.223C80.9939 131.223 79.9915 131.276 79.1779 131.276C78.9262 131.276 78.7869 131.238 78.7869 131.144C78.7869 131.065 78.8813 131.012 78.9756 131.012C79.115 131.012 79.3982 130.997 79.569 130.974C80.4769 130.884 80.85 130.307 81.2411 129.492L85.9338 119.376L85.9428 119.365ZM88.1632 126.095C88.2576 126.095 88.2577 126.057 88.2262 125.978L86.2574 121.544C86.1495 121.307 86.0372 121.307 85.9293 121.544L84.0684 125.978C84.0369 126.057 84.0684 126.095 84.1313 126.095H88.1677H88.1632Z" fill="url(#paint19_linear_0_87)"/>
<path d="M96.8653 129.062C96.9103 130.401 97.0991 130.793 97.6474 130.914C98.007 130.993 98.461 131.004 98.6318 131.004C98.7262 131.004 98.8026 131.057 98.8026 131.136C98.8026 131.227 98.6633 131.268 98.425 131.268C97.3013 131.268 96.5012 131.215 96.3304 131.215C96.1416 131.215 95.2966 131.268 94.3886 131.268C94.1864 131.268 94.074 131.257 94.074 131.136C94.074 131.057 94.1369 131.004 94.2313 131.004C94.3886 131.004 94.7617 130.993 95.0449 130.914C95.5438 130.797 95.6247 130.363 95.6247 128.893V119.629C95.6247 118.984 95.7326 118.814 95.8899 118.814C96.1236 118.814 96.4518 119.127 96.6586 119.301C96.9867 119.576 99.8814 122.162 102.96 124.824C104.947 126.529 107.073 128.459 107.685 128.983L107.482 120.888C107.469 119.84 107.343 119.47 106.732 119.38C106.372 119.327 105.918 119.301 105.761 119.301C105.621 119.301 105.603 119.21 105.603 119.157C105.603 119.052 105.761 119.04 105.976 119.04C106.884 119.04 107.837 119.082 108.071 119.082C108.291 119.082 108.948 119.04 109.761 119.04C109.963 119.04 110.139 119.056 110.139 119.157C110.139 119.21 110.044 119.301 109.905 119.301C109.811 119.301 109.653 119.301 109.438 119.342C108.781 119.459 108.732 119.787 108.732 120.76L108.687 130.231C108.687 131.294 108.655 131.385 108.53 131.385C108.327 131.385 108.125 131.253 107.01 130.401C106.79 130.242 103.913 127.871 101.801 126.02C99.4993 123.987 97.2519 122.004 96.6406 121.442L96.8608 129.066L96.8653 129.062Z" fill="url(#paint20_linear_0_87)"/>
<path d="M117.142 131.031C116.827 130.887 116.814 130.819 116.814 130.295C116.814 129.349 116.89 128.591 116.922 128.289C116.94 128.078 116.985 127.988 117.092 127.988C117.232 127.988 117.263 128.041 117.263 128.184C117.263 128.369 117.263 128.629 117.326 128.893C117.672 130.295 119.156 130.834 120.675 130.834C122.864 130.834 123.929 129.522 123.929 128.301C123.929 126.989 123.273 126.227 121.318 124.877L120.302 124.183C117.893 122.517 117.344 121.337 117.344 120.051C117.344 118.019 119.16 116.627 122.037 116.627C122.927 116.627 123.588 116.707 124.149 116.812C124.585 116.891 124.761 116.918 124.945 116.918C125.129 116.918 125.179 116.955 125.179 117.05C125.179 117.144 125.084 117.77 125.084 119.056C125.084 119.369 125.039 119.501 124.927 119.501C124.788 119.501 124.756 119.41 124.738 119.252C124.725 119.029 124.581 118.505 124.442 118.294C124.302 118.098 123.691 117.295 121.61 117.295C120.046 117.295 118.827 118.109 118.827 119.501C118.827 120.575 119.407 121.273 121.578 122.687L122.221 123.105C124.896 124.877 125.538 126.057 125.538 127.581C125.538 128.369 125.179 129.813 123.615 130.74C122.63 131.306 121.408 131.54 120.189 131.54C119.111 131.54 118.077 131.408 117.142 131.027" fill="url(#paint21_linear_0_87)"/>
<path d="M134.506 126.566C134.506 128.127 134.506 129.402 134.6 130.069C134.663 130.54 134.758 130.842 135.364 130.921C135.648 130.959 136.102 131 136.272 131C136.412 131 136.43 131.08 136.43 131.132C136.43 131.211 136.353 131.264 136.115 131.264C135.018 131.264 133.755 131.211 133.643 131.211C133.548 131.211 132.173 131.264 131.58 131.264C131.359 131.264 131.265 131.227 131.265 131.132C131.265 131.08 131.31 131.027 131.422 131.027C131.611 131.027 131.827 130.989 132.016 130.948C132.42 130.868 132.533 130.54 132.596 130.069C132.69 129.402 132.69 128.127 132.69 126.566V119.783L129.813 119.81C128.564 119.836 128.092 119.953 127.795 120.334C127.561 120.609 127.543 120.726 127.48 120.847C127.435 120.979 127.354 120.99 127.278 120.99C127.229 120.99 127.139 120.948 127.139 120.858C127.139 120.688 127.548 119.244 127.561 119.112C127.606 119.022 127.701 118.81 127.763 118.81C127.903 118.81 128.11 118.942 128.653 118.995C129.215 119.048 129.997 119.074 130.218 119.074H137.742C138.416 119.074 138.87 119.033 139.181 118.995C139.477 118.954 139.648 118.916 139.742 118.916C139.837 118.916 139.837 119.022 139.837 119.112C139.837 119.61 139.774 120.764 139.774 120.948C139.774 121.092 139.679 121.159 139.585 121.159C139.491 121.159 139.446 121.107 139.428 120.884L139.396 120.715C139.333 120.217 138.897 119.847 137 119.81L134.497 119.783V126.566H134.506Z" fill="url(#paint22_linear_0_87)"/>
<path d="M145.959 119.365C146.211 118.826 146.305 118.735 146.426 118.735C146.647 118.735 146.705 118.958 146.912 119.327C147.271 120.01 150.476 126.687 151.699 129.142C152.418 130.586 152.967 130.793 153.403 130.914C153.686 130.993 153.982 131.004 154.185 131.004C154.31 131.004 154.436 131.046 154.436 131.136C154.436 131.227 154.216 131.268 153.982 131.268C153.686 131.268 152.216 131.268 150.84 131.23C150.449 131.215 150.135 131.215 150.135 131.125C150.135 131.046 150.18 131.046 150.274 131.008C150.382 130.97 150.584 130.838 150.445 130.574L148.66 126.86C148.615 126.781 148.584 126.77 148.472 126.77H143.873C143.779 126.77 143.702 126.808 143.671 126.902L142.529 129.488C142.34 129.896 142.233 130.288 142.233 130.578C142.233 130.891 142.579 131.012 142.92 131.012H143.091C143.248 131.012 143.293 131.065 143.293 131.144C143.293 131.234 143.186 131.276 143.01 131.276C142.525 131.276 141.428 131.223 141.212 131.223C141.01 131.223 140.008 131.276 139.194 131.276C138.942 131.276 138.803 131.238 138.803 131.144C138.803 131.065 138.897 131.012 138.992 131.012C139.131 131.012 139.414 130.997 139.585 130.974C140.493 130.884 140.866 130.307 141.257 129.492L145.95 119.376L145.959 119.365ZM148.179 126.095C148.274 126.095 148.274 126.057 148.242 125.978L146.269 121.544C146.161 121.307 146.049 121.307 145.941 121.544L144.08 125.978C144.049 126.057 144.08 126.095 144.143 126.095H148.179Z" fill="url(#paint23_linear_0_87)"/>
<path d="M156.054 123.72C156.054 121.201 156.054 120.756 156.005 120.228C155.96 119.678 155.848 119.376 155.191 119.297C155.021 119.282 154.693 119.255 154.504 119.255C154.441 119.255 154.346 119.229 154.346 119.165C154.346 119.074 154.441 119.033 154.661 119.033C155.569 119.033 156.868 119.074 156.976 119.074C157.461 119.074 158.383 119.033 159.322 119.033C162.653 119.033 163.516 120.647 163.516 121.514C163.516 122.785 162.514 123.588 161.498 124.349C163.017 124.73 164.999 125.884 164.999 127.709C164.999 129.534 163.404 131.302 159.992 131.302C159.632 131.302 158.895 131.287 158.27 131.249C157.628 131.223 157.066 131.208 156.971 131.208C156.927 131.208 156.562 131.223 156.158 131.223C155.753 131.249 155.268 131.261 154.953 131.261C154.751 131.261 154.639 131.223 154.639 131.129C154.639 131.076 154.688 131.038 154.796 131.038C154.985 131.038 155.232 130.985 155.407 130.959C155.798 130.906 155.843 130.54 155.924 130.065C156.05 129.398 156.05 128.124 156.05 126.563V123.716L156.054 123.72ZM157.776 124.059C157.776 124.176 157.821 124.202 157.915 124.229C158.023 124.244 158.383 124.308 159.138 124.308C160.248 124.308 160.684 124.266 161.093 123.889C161.516 123.482 161.857 122.932 161.857 122.159C161.857 120.926 161.044 119.55 159.044 119.55C158.823 119.55 158.338 119.576 158.028 119.629C157.839 119.666 157.776 119.708 157.776 119.798V124.063V124.059ZM157.776 125.842C157.776 127.102 157.776 129.044 157.79 129.292C157.87 130.065 157.87 130.265 158.477 130.499C159.026 130.71 159.853 130.736 160.23 130.736C161.543 130.736 163.156 130.318 163.156 128.244C163.156 127.524 162.81 126.133 161.251 125.292C160.563 124.938 159.938 124.953 159.453 124.873C159.201 124.832 158.203 124.832 157.888 124.832C157.826 124.832 157.781 124.873 157.781 124.949V125.842H157.776Z" fill="url(#paint24_linear_0_87)"/>
<path d="M171.431 126.608C171.431 128.983 171.476 129.952 171.836 130.243C172.151 130.506 172.915 130.623 174.479 130.623C175.526 130.623 176.421 130.608 176.888 130.126C177.14 129.888 177.293 129.534 177.374 129.221C177.392 129.104 177.45 129.01 177.576 129.01C177.652 129.01 177.702 129.089 177.702 129.258C177.702 129.428 177.576 130.401 177.419 130.872C177.279 131.253 177.198 131.306 176.138 131.306C174.713 131.306 173.602 131.291 172.663 131.253C171.755 131.227 171.081 131.212 170.487 131.212C170.393 131.212 170.065 131.212 169.674 131.227C169.265 131.253 168.829 131.264 168.514 131.264C168.312 131.264 168.2 131.227 168.2 131.132C168.2 131.08 168.244 131 168.357 131C168.546 131 168.793 130.963 168.968 130.921C169.359 130.842 169.404 130.54 169.485 130.069C169.611 129.398 169.611 128.127 169.611 126.566V123.72C169.611 121.201 169.611 120.756 169.561 120.228C169.517 119.678 169.404 119.414 168.748 119.335C168.577 119.32 168.249 119.293 168.06 119.293C167.997 119.293 167.903 119.229 167.903 119.161C167.903 119.071 167.997 119.029 168.218 119.029C169.125 119.029 170.375 119.067 170.487 119.067C170.582 119.067 172.083 119.029 172.694 119.029C172.897 119.029 173.009 119.067 173.009 119.161C173.009 119.225 172.915 119.278 172.852 119.278C172.712 119.278 172.429 119.293 172.195 119.32C171.602 119.41 171.49 119.659 171.445 120.224C171.431 120.749 171.431 121.193 171.431 123.716V126.6V126.608Z" fill="url(#paint25_linear_0_87)"/>
<path d="M180.74 123.72C180.74 121.201 180.74 120.756 180.696 120.228C180.646 119.678 180.538 119.414 179.882 119.335C179.711 119.32 179.383 119.293 179.194 119.293C179.131 119.293 179.037 119.229 179.037 119.161C179.037 119.071 179.131 119.029 179.352 119.029C180.26 119.029 181.559 119.067 181.666 119.067C181.806 119.067 185.982 119.078 186.436 119.067C186.813 119.041 187.186 118.988 187.343 118.976C187.42 118.95 187.514 118.897 187.609 118.897C187.672 118.897 187.703 118.976 187.703 119.041C187.703 119.157 187.595 119.354 187.546 119.802C187.514 119.961 187.469 120.681 187.42 120.877C187.406 120.941 187.343 121.046 187.249 121.046C187.141 121.046 187.092 120.967 187.092 120.835C187.092 120.718 187.06 120.454 186.966 120.258C186.84 119.994 186.638 119.878 185.541 119.772C185.199 119.734 182.885 119.708 182.664 119.708C182.57 119.708 182.556 119.772 182.556 119.878V124.274C182.556 124.395 182.556 124.444 182.664 124.444C182.916 124.444 185.541 124.444 185.995 124.406C186.48 124.364 186.764 124.353 186.966 124.183C187.105 124.063 187.2 123.972 187.263 123.972C187.339 123.972 187.388 124.014 187.388 124.104C187.388 124.195 187.263 124.47 187.218 124.998C187.186 125.326 187.141 125.929 187.141 126.046C187.141 126.178 187.096 126.348 186.952 126.348C186.858 126.348 186.813 126.295 186.813 126.204C186.813 126.046 186.813 125.876 186.732 125.665C186.656 125.443 186.48 125.247 185.698 125.168C185.15 125.115 183.024 125.103 182.678 125.103C182.57 125.103 182.552 125.156 182.552 125.209V126.559C182.552 127.109 182.52 128.998 182.552 129.315C182.601 130.405 182.956 130.616 184.93 130.616C185.447 130.616 186.4 130.616 186.93 130.446C187.447 130.261 187.712 129.975 187.838 129.319C187.869 129.134 187.914 129.081 188.04 129.081C188.148 129.081 188.166 129.213 188.166 129.319C188.166 129.436 188.009 130.54 187.901 130.88C187.762 131.298 187.555 131.298 186.791 131.298C185.289 131.298 184.13 131.261 183.321 131.245C182.475 131.204 181.959 131.204 181.662 131.204C181.617 131.204 181.239 131.204 180.803 131.219C180.412 131.246 179.958 131.257 179.648 131.257C179.446 131.257 179.334 131.219 179.334 131.125C179.334 131.072 179.378 130.993 179.491 130.993C179.68 130.993 179.927 130.94 180.102 130.914C180.493 130.861 180.538 130.533 180.619 130.062C180.745 129.39 180.745 128.12 180.745 126.559V123.712L180.74 123.72Z" fill="url(#paint26_linear_0_87)"/>
<path d="M190.477 131.042C190.211 130.925 190.193 130.872 190.193 130.439C190.193 129.639 190.27 128.983 190.301 128.719C190.301 128.55 190.346 128.455 190.459 128.455C190.571 128.455 190.647 128.508 190.647 128.64C190.647 128.772 190.647 129.006 190.71 129.232C191.025 130.412 192.526 130.831 193.852 130.831C195.839 130.831 196.855 129.899 196.855 128.678C196.855 127.524 196.104 126.974 194.338 125.869L193.43 125.292C191.272 123.942 190.566 122.958 190.566 121.827C190.566 119.923 192.364 118.784 194.994 118.784C195.789 118.784 196.572 118.875 197.057 118.98C197.448 119.044 197.605 119.044 197.763 119.044C197.92 119.044 197.965 119.071 197.965 119.161C197.965 119.24 197.871 119.78 197.871 120.88C197.871 121.129 197.857 121.235 197.713 121.235C197.57 121.235 197.556 121.156 197.525 121.024C197.507 120.839 197.354 120.394 197.241 120.224C197.102 120.04 196.446 119.425 194.643 119.425C193.191 119.425 192 120.043 192 121.182C192 122.204 192.612 122.796 194.58 123.923L195.142 124.236C197.565 125.627 198.41 126.755 198.41 128.146C198.41 129.093 197.974 130.114 196.549 130.902C195.704 131.362 194.468 131.468 193.376 131.468C192.454 131.468 191.295 131.362 190.468 131.034" fill="url(#paint27_linear_0_87)"/>
<path d="M110.791 26.1782C110.629 27.7731 110.845 29.368 111.465 30.8158C111.613 31.1778 111.802 31.5285 112.004 31.8678C112.22 32.2034 112.454 32.5276 112.714 32.833C113.231 33.4476 113.861 33.9906 114.566 34.4543C115.267 34.9219 116.045 35.3102 116.872 35.6194C117.695 35.9361 118.544 36.1699 119.421 36.2905C120.293 36.4112 121.183 36.415 122.077 36.3207C122.972 36.234 123.871 36.053 124.792 35.8607C125.714 35.6722 126.662 35.4686 127.646 35.3479C128.631 35.2235 129.656 35.1858 130.672 35.2763C131.184 35.3253 131.669 35.3932 132.15 35.4761C132.636 35.5591 133.117 35.6571 133.598 35.774C134.555 36.004 135.499 36.3433 136.367 36.7355C136.798 36.9277 137.212 37.1314 137.603 37.2935C137.998 37.4594 138.376 37.58 138.771 37.6554C139.167 37.7271 139.585 37.7572 140.008 37.7497C140.417 37.7422 140.826 37.6894 141.217 37.5913C141.999 37.3953 142.722 37.0182 143.338 36.5281C143.959 36.0379 144.475 35.4347 144.884 34.7861C145.294 34.1339 145.599 33.4288 145.792 32.7086C145.981 31.9922 146.058 31.2495 145.941 30.5632C145.887 30.2201 145.774 29.8996 145.613 29.6282C145.442 29.3529 145.244 29.1682 144.934 28.9985C144.314 28.6592 143.419 28.4819 142.52 28.3424C140.7 28.0672 138.735 27.8938 136.83 27.347C135.877 27.0793 134.946 26.7174 134.088 26.2385C133.229 25.7635 132.461 25.1677 131.818 24.4966C131.494 24.161 131.206 23.8066 130.946 23.4409C130.815 23.2561 130.694 23.0714 130.577 22.8828L130.254 22.3286C129.836 21.5896 129.462 20.8355 129.116 20.0776C128.424 18.5657 127.876 17.0311 127.143 15.6134C126.419 14.192 125.439 12.91 124.082 11.9108C122.738 10.9004 121.106 10.1463 119.398 9.543L118.603 9.29415L119.192 8.72481C119.668 8.26481 120.064 7.74826 120.383 7.19778C120.702 6.64352 120.94 6.0591 121.124 5.4596C121.304 4.85633 121.426 4.24175 121.484 3.62717C121.515 3.31799 121.529 3.01259 121.529 2.71095C121.529 2.56013 121.52 2.40931 121.506 2.2698C121.493 2.13407 121.47 1.97949 121.448 1.92293L123.156 2.35653C122.199 3.15586 121.165 3.8911 120.059 4.53585C118.958 5.18436 117.794 5.74992 116.602 6.25139C114.225 7.2581 111.761 8.00089 109.366 8.7776C106.97 9.55054 104.628 10.3649 102.421 11.3754C101.311 11.8731 100.245 12.4274 99.2117 13.0231C98.1733 13.6151 97.189 14.2674 96.2405 14.9536C94.3482 16.3336 92.5996 17.8795 91.0534 19.5347C89.5521 21.1522 88.4239 23.0374 87.6642 25.0094C86.9001 26.9851 86.5045 29.0626 86.5045 31.1363C86.5045 33.2101 86.9091 35.2838 87.7002 37.2482C88.4868 39.2164 89.6825 41.0602 91.1568 42.7418C92.6671 44.4385 94.3527 46.0522 96.0742 47.6547C99.5263 50.8482 103.082 54.0456 106.174 57.5898C107.716 59.3619 109.141 61.217 110.359 63.1738C111.573 65.1307 112.589 67.1818 113.317 69.3083C113.681 70.3716 113.968 71.4537 114.171 72.5434C114.36 73.6368 114.494 74.7378 114.521 75.8388C114.593 78.0407 114.328 80.2389 113.712 82.3541C113.73 80.1748 113.654 78.0256 113.357 75.9066C113.204 74.8471 113.016 73.7952 112.75 72.7583C112.494 71.7176 112.184 70.6921 111.82 69.6778C111.092 67.6493 110.089 65.6925 108.889 63.8223C107.689 61.9522 106.282 60.1725 104.758 58.4645C101.702 55.041 98.1329 51.9454 94.6493 48.7292C92.9098 47.1193 91.1792 45.4829 89.5925 43.7146C87.9968 41.9123 86.6888 39.9177 85.8213 37.7761C84.9493 35.642 84.5088 33.3835 84.5088 31.1288C84.5088 28.8741 84.9313 26.6231 85.7584 24.4815C86.5855 22.3399 87.8036 20.2925 89.4712 18.4865C91.1073 16.737 92.9233 15.1233 94.928 13.6603C95.9304 12.9364 96.9777 12.2426 98.0744 11.6167C99.1667 10.9833 100.299 10.3989 101.464 9.87102C103.787 8.80399 106.228 7.95941 108.646 7.17516C111.065 6.38714 113.465 5.65566 115.699 4.70928C117.933 3.77044 119.983 2.59406 121.736 1.13867L123.111 0L123.439 1.57227C123.489 1.83997 123.484 2.01718 123.484 2.20948C123.484 2.398 123.471 2.57898 123.453 2.7562C123.417 3.11439 123.363 3.46127 123.295 3.80815C123.156 4.49814 122.949 5.17682 122.675 5.83664C122.401 6.49647 122.059 7.14122 121.628 7.74826C121.201 8.3553 120.679 8.92088 120.064 9.4148L119.857 8.59661C121.659 9.19988 123.444 9.96151 124.963 11.07C126.496 12.1635 127.638 13.6302 128.424 15.1308C129.229 16.6352 129.795 18.1622 130.492 19.6252C130.838 20.3566 131.206 21.073 131.611 21.7743C131.818 22.1287 132.016 22.4681 132.245 22.781C132.474 23.1015 132.726 23.4032 133 23.6897C134.097 24.8435 135.616 25.6541 137.324 26.1216C139.037 26.608 140.884 26.7739 142.808 27.0567C143.289 27.1321 143.779 27.2151 144.278 27.3433C144.777 27.4677 145.289 27.6298 145.783 27.8975C146.031 28.0295 146.264 28.1916 146.48 28.3877C146.691 28.5838 146.858 28.7987 146.997 29.0173C147.267 29.4585 147.411 29.9185 147.487 30.3634C147.635 31.2645 147.537 32.1355 147.325 32.9763C147.105 33.8171 146.745 34.624 146.264 35.3819C145.779 36.1397 145.168 36.8486 144.404 37.4518C143.639 38.0551 142.7 38.5453 141.657 38.8017C141.136 38.9299 140.592 38.9977 140.048 39.0053C139.518 39.0128 138.983 38.9751 138.448 38.8733C137.913 38.7715 137.4 38.598 136.946 38.4058C136.488 38.2135 136.079 38.0099 135.67 37.8251C134.865 37.4556 134.052 37.1653 133.18 36.9428C132.748 36.8335 132.303 36.7392 131.858 36.6563C131.409 36.5733 130.955 36.5055 130.523 36.4602C129.642 36.3773 128.752 36.3961 127.858 36.5017C126.959 36.6035 126.055 36.7845 125.125 36.9692C124.194 37.1502 123.237 37.3387 122.239 37.4254C121.246 37.5197 120.212 37.5084 119.205 37.3613C117.191 37.0522 115.357 36.2943 113.802 35.216C113.029 34.673 112.368 34.0132 111.833 33.3006C111.294 32.5842 110.925 31.7962 110.674 30.9931C110.211 29.3793 110.247 27.6939 110.8 26.1518" fill="url(#paint28_linear_0_87)"/>
<path d="M104.965 9.0792C103.886 9.50149 102.767 9.8333 101.652 10.1576C101.095 10.3159 100.538 10.478 99.9758 10.6326L98.3036 11.0964C96.0742 11.711 93.8717 12.3708 91.7456 13.1739C87.5024 14.7726 83.5379 16.9029 80.342 19.6892C78.7463 21.0768 77.3394 22.6151 76.1572 24.2628C74.975 25.9143 74.0131 27.675 73.249 29.4962C72.8714 30.4086 72.5433 31.3362 72.2556 32.2712C71.9814 33.2101 71.7387 34.1564 71.5454 35.1104C71.1544 37.0182 70.9611 38.9525 70.7768 40.9206C70.3992 44.8419 70.161 48.8009 69.716 52.7636C69.4957 54.7431 69.208 56.7263 68.8305 58.6983C68.6417 59.6861 68.4304 60.6702 68.1787 61.6505C67.9225 62.6309 67.6393 63.6036 67.3157 64.5726C66.6639 66.5069 65.8908 68.4223 64.866 70.2472C64.3581 71.1634 63.7962 72.057 63.1759 72.9242C62.5511 73.7876 61.8634 74.6247 61.1217 75.4165C59.6339 77.0076 57.8854 78.4252 55.9391 79.5903C54.9682 80.1785 53.9433 80.6951 52.8915 81.1551C51.8397 81.6151 50.7519 82.0185 49.6372 82.3503C50.689 81.8978 51.7139 81.4114 52.6937 80.8723C53.6736 80.3331 54.6041 79.7411 55.4941 79.1115C57.2651 77.8446 58.8203 76.393 60.1328 74.8019C62.7623 71.6121 64.4524 67.951 65.5807 64.1843C65.8638 63.2417 66.1066 62.2877 66.3268 61.33C66.5516 60.3724 66.7538 59.4109 66.9246 58.4457C67.2707 56.5114 67.527 54.5621 67.7472 52.6052C68.1877 48.6915 68.3945 44.7476 68.7496 40.7849C68.8485 39.7933 68.9429 38.8054 69.0912 37.8062C69.226 36.8071 69.4193 35.8117 69.6396 34.82C69.8643 33.8284 70.1385 32.8443 70.4487 31.8678C70.7723 30.895 71.1364 29.9298 71.5544 28.9796C72.3994 27.0831 73.4513 25.2469 74.7368 23.5276C76.0268 21.812 77.5416 20.2133 79.2587 18.7881C80.9757 17.3629 82.8816 16.1073 84.9088 15.0252C86.9405 13.9469 89.0936 13.0533 91.2961 12.2916C93.5031 11.5375 95.764 10.9041 98.0474 10.38C100.335 9.85215 102.646 9.47134 104.965 9.07544" fill="url(#paint29_linear_0_87)"/>
<path d="M99.1396 42.7908C99.2025 43.2885 99.3778 43.7598 99.6205 44.2047C99.8588 44.6497 100.16 45.0682 100.488 45.4716C101.144 46.2747 101.908 47.0213 102.709 47.7377C103.504 48.4578 104.331 49.1591 105.176 49.8453C106.026 50.5316 106.871 51.2253 107.729 51.904C111.168 54.63 114.598 57.4164 117.713 60.4742C119.263 62.0088 120.747 63.5962 122.086 65.2816C123.421 66.9632 124.639 68.724 125.615 70.5828C126.105 71.5103 126.563 72.4492 126.932 73.4182C127.3 74.3834 127.61 75.3637 127.849 76.3554C128.312 78.3424 128.469 80.3709 128.253 82.3617C127.826 78.3801 126.365 74.6096 124.185 71.1672C122.005 67.721 119.196 64.5765 116.162 61.5865C113.123 58.5928 109.82 55.7687 106.597 52.8391C104.983 51.3761 103.387 49.8793 101.94 48.2731C101.585 47.8659 101.234 47.4549 100.911 47.0288C100.582 46.6065 100.268 46.1692 100.003 45.7129C99.7329 45.2567 99.4947 44.7892 99.3284 44.2952C99.1711 43.8051 99.0812 43.2923 99.1351 42.7946" fill="url(#paint30_linear_0_87)"/>
<path d="M110.791 29.0286C110.018 29.1116 109.226 29.2737 108.471 29.4886C107.712 29.696 106.983 29.9712 106.282 30.2804C105.59 30.6009 104.916 30.9553 104.313 31.3776C103.702 31.7924 103.131 32.2523 102.632 32.7651C102.115 33.2666 101.679 33.8284 101.293 34.4128C100.897 34.9972 100.569 35.6194 100.295 36.2641C99.7376 37.5536 99.4095 38.9336 99.1443 40.3475C98.8971 38.9336 98.9196 37.4631 99.2837 36.0266C99.6388 34.59 100.362 33.1836 101.441 31.9733C101.994 31.3776 102.619 30.8233 103.316 30.3445C104.021 29.8732 104.776 29.4547 105.59 29.1342C106.395 28.8062 107.244 28.5573 108.116 28.3914C108.988 28.2368 109.878 28.1388 110.791 28.2104V29.0248V29.0286Z" fill="url(#paint31_linear_0_87)"/>
<defs>
<linearGradient id="paint0_linear_0_87" x1="4.89137" y1="99.2427" x2="16.9987" y2="104.789" gradientUnits="userSpaceOnUse">
<stop stop-color="#BB8B5E"/>
<stop offset="1" stop-color="#BB8B5E" stop-opacity="0"/>
</linearGradient>
<linearGradient id="paint1_linear_0_87" x1="17.0321" y1="97.0496" x2="22.9843" y2="98.2642" gradientUnits="userSpaceOnUse">
<stop stop-color="#BB8B5E"/>
<stop offset="1" stop-color="#BB8B5E" stop-opacity="0"/>
</linearGradient>
<linearGradient id="paint2_linear_0_87" x1="27.7822" y1="101.437" x2="37.464" y2="112.005" gradientUnits="userSpaceOnUse">
<stop stop-color="#BB8B5E"/>
<stop offset="1" stop-color="#BB8B5E" stop-opacity="0"/>
</linearGradient>
<linearGradient id="paint3_linear_0_87" x1="49.5395" y1="101.35" x2="58.25" y2="106.621" gradientUnits="userSpaceOnUse">
<stop stop-color="#BB8B5E"/>
<stop offset="1" stop-color="#BB8B5E" stop-opacity="0"/>
</linearGradient>
<linearGradient id="paint4_linear_0_87" x1="64.4969" y1="102.08" x2="77.0453" y2="113.901" gradientUnits="userSpaceOnUse">
<stop stop-color="#BB8B5E"/>
<stop offset="1" stop-color="#BB8B5E" stop-opacity="0"/>
</linearGradient>
<linearGradient id="paint5_linear_0_87" x1="80.578" y1="97.0488" x2="86.5215" y2="98.26" gradientUnits="userSpaceOnUse">
<stop stop-color="#BB8B5E"/>
<stop offset="1" stop-color="#BB8B5E" stop-opacity="0"/>
</linearGradient>
<linearGradient id="paint6_linear_0_87" x1="87.206" y1="97.0576" x2="91.3314" y2="97.6291" gradientUnits="userSpaceOnUse">
<stop stop-color="#BB8B5E"/>
<stop offset="1" stop-color="#BB8B5E" stop-opacity="0"/>
</linearGradient>
<linearGradient id="paint7_linear_0_87" x1="107.347" y1="98.6131" x2="120.568" y2="111.038" gradientUnits="userSpaceOnUse">
<stop stop-color="#BB8B5E"/>
<stop offset="1" stop-color="#BB8B5E" stop-opacity="0"/>
</linearGradient>
<linearGradient id="paint8_linear_0_87" x1="130.652" y1="97.0534" x2="142.54" y2="102.787" gradientUnits="userSpaceOnUse">
<stop stop-color="#BB8B5E"/>
<stop offset="1" stop-color="#BB8B5E" stop-opacity="0"/>
</linearGradient>
<linearGradient id="paint9_linear_0_87" x1="142.129" y1="101.992" x2="149.723" y2="104.517" gradientUnits="userSpaceOnUse">
<stop stop-color="#BB8B5E"/>
<stop offset="1" stop-color="#BB8B5E" stop-opacity="0"/>
</linearGradient>
<linearGradient id="paint10_linear_0_87" x1="155.71" y1="97.0496" x2="170.694" y2="109.743" gradientUnits="userSpaceOnUse">
<stop stop-color="#BB8B5E"/>
<stop offset="1" stop-color="#BB8B5E" stop-opacity="0"/>
</linearGradient>
<linearGradient id="paint11_linear_0_87" x1="178.627" y1="101.343" x2="188.343" y2="112.714" gradientUnits="userSpaceOnUse">
<stop stop-color="#BB8B5E"/>
<stop offset="1" stop-color="#BB8B5E" stop-opacity="0"/>
</linearGradient>
<linearGradient id="paint12_linear_0_87" x1="195.21" y1="97.0576" x2="199.335" y2="97.6291" gradientUnits="userSpaceOnUse">
<stop stop-color="#BB8B5E"/>
<stop offset="1" stop-color="#BB8B5E" stop-opacity="0"/>
</linearGradient>
<linearGradient id="paint13_linear_0_87" x1="6.22816" y1="119.841" x2="19.3006" y2="128.394" gradientUnits="userSpaceOnUse">
<stop stop-color="#BB8B5E"/>
<stop offset="1" stop-color="#BB8B5E" stop-opacity="0"/>
</linearGradient>
<linearGradient id="paint14_linear_0_87" x1="21.3893" y1="121.724" x2="30.2383" y2="125.643" gradientUnits="userSpaceOnUse">
<stop stop-color="#BB8B5E"/>
<stop offset="1" stop-color="#BB8B5E" stop-opacity="0"/>
</linearGradient>
<linearGradient id="paint15_linear_0_87" x1="30.3903" y1="121.08" x2="37.4823" y2="122.485" gradientUnits="userSpaceOnUse">
<stop stop-color="#BB8B5E"/>
<stop offset="1" stop-color="#BB8B5E" stop-opacity="0"/>
</linearGradient>
<linearGradient id="paint16_linear_0_87" x1="40.8334" y1="121.488" x2="52.2557" y2="129.388" gradientUnits="userSpaceOnUse">
<stop stop-color="#BB8B5E"/>
<stop offset="1" stop-color="#BB8B5E" stop-opacity="0"/>
</linearGradient>
<linearGradient id="paint17_linear_0_87" x1="56.241" y1="121.747" x2="67.4727" y2="129.434" gradientUnits="userSpaceOnUse">
<stop stop-color="#BB8B5E"/>
<stop offset="1" stop-color="#BB8B5E" stop-opacity="0"/>
</linearGradient>
<linearGradient id="paint18_linear_0_87" x1="71.2953" y1="121.488" x2="82.7176" y2="129.388" gradientUnits="userSpaceOnUse">
<stop stop-color="#BB8B5E"/>
<stop offset="1" stop-color="#BB8B5E" stop-opacity="0"/>
</linearGradient>
<linearGradient id="paint19_linear_0_87" x1="84.4206" y1="121.488" x2="95.8429" y2="129.388" gradientUnits="userSpaceOnUse">
<stop stop-color="#BB8B5E"/>
<stop offset="1" stop-color="#BB8B5E" stop-opacity="0"/>
</linearGradient>
<linearGradient id="paint20_linear_0_87" x1="99.8632" y1="121.574" x2="111.411" y2="129.761" gradientUnits="userSpaceOnUse">
<stop stop-color="#BB8B5E"/>
<stop offset="1" stop-color="#BB8B5E" stop-opacity="0"/>
</linearGradient>
<linearGradient id="paint21_linear_0_87" x1="119.958" y1="119.901" x2="128.483" y2="122.668" gradientUnits="userSpaceOnUse">
<stop stop-color="#BB8B5E"/>
<stop offset="1" stop-color="#BB8B5E" stop-opacity="0"/>
</linearGradient>
<linearGradient id="paint22_linear_0_87" x1="131.715" y1="121.544" x2="142.105" y2="127.422" gradientUnits="userSpaceOnUse">
<stop stop-color="#BB8B5E"/>
<stop offset="1" stop-color="#BB8B5E" stop-opacity="0"/>
</linearGradient>
<linearGradient id="paint23_linear_0_87" x1="144.437" y1="121.488" x2="155.859" y2="129.388" gradientUnits="userSpaceOnUse">
<stop stop-color="#BB8B5E"/>
<stop offset="1" stop-color="#BB8B5E" stop-opacity="0"/>
</linearGradient>
<linearGradient id="paint24_linear_0_87" x1="158.185" y1="121.726" x2="167.525" y2="126.225" gradientUnits="userSpaceOnUse">
<stop stop-color="#BB8B5E"/>
<stop offset="1" stop-color="#BB8B5E" stop-opacity="0"/>
</linearGradient>
<linearGradient id="paint25_linear_0_87" x1="171.434" y1="121.724" x2="180.283" y2="125.643" gradientUnits="userSpaceOnUse">
<stop stop-color="#BB8B5E"/>
<stop offset="1" stop-color="#BB8B5E" stop-opacity="0"/>
</linearGradient>
<linearGradient id="paint26_linear_0_87" x1="182.327" y1="121.619" x2="190.778" y2="125.071" gradientUnits="userSpaceOnUse">
<stop stop-color="#BB8B5E"/>
<stop offset="1" stop-color="#BB8B5E" stop-opacity="0"/>
</linearGradient>
<linearGradient id="paint27_linear_0_87" x1="193.154" y1="121.568" x2="201.014" y2="124.393" gradientUnits="userSpaceOnUse">
<stop stop-color="#BB8B5E"/>
<stop offset="1" stop-color="#BB8B5E" stop-opacity="0"/>
</linearGradient>
<linearGradient id="paint28_linear_0_87" x1="107.23" y1="18.0777" x2="164.923" y2="42.5835" gradientUnits="userSpaceOnUse">
<stop stop-color="#BB8B5E"/>
<stop offset="1" stop-color="#BB8B5E" stop-opacity="0"/>
</linearGradient>
<linearGradient id="paint29_linear_0_87" x1="69.5754" y1="25.1602" x2="120.416" y2="46.4583" gradientUnits="userSpaceOnUse">
<stop stop-color="#BB8B5E"/>
<stop offset="1" stop-color="#BB8B5E" stop-opacity="0"/>
</linearGradient>
<linearGradient id="paint30_linear_0_87" x1="109.653" y1="51.4771" x2="136.684" y2="62.5551" gradientUnits="userSpaceOnUse">
<stop stop-color="#BB8B5E"/>
<stop offset="1" stop-color="#BB8B5E" stop-opacity="0"/>
</linearGradient>
<linearGradient id="paint31_linear_0_87" x1="103.237" y1="30.856" x2="113.123" y2="36.1828" gradientUnits="userSpaceOnUse">
<stop stop-color="#BB8B5E"/>
<stop offset="1" stop-color="#BB8B5E" stop-opacity="0"/>
</linearGradient>
</defs>
</svg>
