<svg width="576" height="68" viewBox="0 0 576 68" fill="none" xmlns="http://www.w3.org/2000/svg">
<path d="M285.775 1.33044C281.591 5.58646 279.971 14.7434 281.996 22.8685C282.895 26.6731 285.01 31.1226 286.899 33.1216L287.979 34.3469L290.363 30.7357C296.167 21.7722 295.942 7.26308 289.868 1.33044C288.114 -0.475143 287.484 -0.41066 285.775 1.33044ZM289.823 2.55566C290.453 3.265 291.533 5.26404 292.253 6.87617C293.332 9.52006 293.467 10.5518 293.467 15.3882C293.467 20.0311 293.287 21.3853 292.253 24.4161C291.578 26.3507 290.318 28.9946 289.419 30.2198L287.844 32.4123L286.269 30.2198C285.37 28.9946 284.11 26.3507 283.435 24.4161C282.401 21.3853 282.221 20.0311 282.221 15.3882C282.221 10.5518 282.356 9.52006 283.435 6.87617C284.83 3.58742 286.629 1.20147 287.844 1.20147C288.294 1.20147 289.149 1.78184 289.823 2.55566Z" fill="#BB8B5E"/>
<path d="M222.118 19.8377C217.034 21.2564 211.816 27.318 209.431 34.6048C208.082 38.6029 207.992 39.4412 207.992 45.6963C207.992 51.6289 208.127 52.9186 209.161 56.0139C210.781 60.9793 212.355 63.4297 215.325 65.4932C217.529 67.0409 218.429 67.2988 221.713 67.2988C226.526 67.2988 229.091 65.9446 231.52 62.2045C234.534 57.4971 235.074 52.0158 233.139 46.4056C231.52 41.8272 229.271 39.6992 225.582 39.3767C223.377 39.1833 222.433 39.4412 220.813 40.6664C218.429 42.4075 217.034 45.4384 217.484 47.9533L217.799 49.6299L219.059 47.4374C220.678 44.6 223.917 43.3748 226.796 44.4711C231.745 46.4056 233.634 55.885 230.125 61.5596C227.921 65.2353 225.627 66.5895 221.668 66.5895C218.654 66.654 218.024 66.396 216.044 64.7194C211.951 61.0438 209.701 53.0476 210.106 43.6328C210.736 30.2198 219.328 20.4181 228.596 22.5461C234.309 23.9003 238.943 27.1246 247.76 35.959C257.073 45.3094 263.461 50.1458 271.648 53.9504C283.75 59.6251 291.983 59.6251 304.039 53.9504C312.272 50.0813 318.66 45.2449 327.927 35.959C336.745 27.1246 341.378 23.9003 347.092 22.5461C356.359 20.4181 364.952 30.2198 365.581 43.6328C365.986 53.0476 363.737 61.0438 359.643 64.7194C357.664 66.396 357.034 66.654 354.02 66.5895C350.061 66.5895 347.766 65.2353 345.562 61.5596C342.053 55.885 343.943 46.4056 348.891 44.4711C351.77 43.3748 355.009 44.6 356.629 47.4374L357.889 49.6299L358.203 47.9533C358.653 45.4384 357.259 42.4075 354.874 40.6664C353.255 39.4412 352.31 39.1833 350.106 39.3767C346.417 39.6992 344.168 41.8272 342.548 46.4056C340.614 52.0158 341.153 57.4971 344.168 62.2045C346.597 65.9446 349.161 67.2988 353.975 67.2988C360.273 67.2988 363.917 64.0101 366.526 56.0139C367.561 52.9186 367.696 51.6289 367.696 45.6963C367.696 39.4412 367.606 38.6029 366.256 34.6048C364.457 29.0591 361.308 24.5452 357.529 21.9657C349.611 16.549 340.614 19.8377 328.467 32.6058C316.006 45.6963 306.513 52.2738 295.267 55.6915C286.179 58.3999 276.147 55.8205 264.226 47.6953C258.152 43.5038 254.868 40.602 247.22 32.6058C237.053 21.9657 229.091 17.9032 222.118 19.8377Z" fill="#BB8B5E"/>
<path d="M260.897 22.5461C259.817 22.8685 258.872 23.1909 258.782 23.3199C258.692 23.4489 259.682 24.6096 261.032 25.9638C263.866 28.7367 266.655 32.9282 270.659 40.344C275.472 49.243 280.511 52.9831 287.844 52.9831C295.492 52.9831 300.08 49.3719 305.794 38.9898C309.663 31.8964 312.227 28.2208 315.286 25.3189C317.13 23.5778 317.13 23.5134 316.096 22.933C314.296 21.9657 307.953 21.6433 305.209 22.4171C301.7 23.3199 299.631 24.8676 295.267 29.6395C293.287 31.7675 290.813 34.1534 289.778 34.9272L287.844 36.2814L285.954 34.9272C284.875 34.1534 282.4 31.7675 280.421 29.6395C278.442 27.447 276.012 25.1255 275.023 24.4162C271.559 22.0302 265.575 21.1919 260.897 22.5461ZM268.185 23.1265C272.098 24.0292 275.023 26.2862 279.476 31.7675C281.681 34.5403 284.47 37.4422 285.64 38.345L287.844 39.8926L290.048 38.345C291.218 37.4422 294.007 34.5403 296.212 31.7675C300.665 26.2862 303.589 24.0292 307.503 23.062C309.843 22.5461 314.521 22.804 315.421 23.5778C315.646 23.7713 314.746 24.932 313.397 26.2217C312.092 27.447 308.493 32.2189 305.389 36.7328C302.285 41.1823 298.956 45.5028 297.966 46.2121C291.533 50.8551 284.155 50.8551 277.722 46.2121C276.732 45.5028 273.403 41.1823 270.299 36.7328C267.195 32.2189 263.596 27.447 262.246 26.1573C259.727 23.7713 259.727 23.4489 262.426 22.933C264.901 22.4816 265.575 22.4816 268.185 23.1265Z" fill="#BB8B5E"/>
<path d="M199.849 41.8272C197.645 43.1169 196.88 46.7925 198.095 50.1458C199.399 53.7569 203.718 53.8859 205.023 50.3392C206.912 45.2449 203.538 39.6992 199.849 41.8272ZM202.818 44.9225C203.628 45.8252 203.763 46.5346 203.538 47.8243C203.178 50.0813 201.334 50.7906 200.119 49.243C198.994 47.7598 198.994 46.6636 200.119 45.0514C201.244 43.4393 201.559 43.4393 202.818 44.9225Z" fill="#BB8B5E"/>
<path d="M371.61 42.7944C369.18 45.6962 369.72 50.7906 372.645 52.5317C375.434 54.2083 378.268 51.242 378.268 46.728C378.268 44.4065 376.513 41.8271 374.624 41.4402C373.364 41.1178 372.779 41.3757 371.61 42.7944ZM375.569 45.0514C376.693 46.6635 376.693 47.7598 375.569 49.2429C374.354 50.7906 372.51 50.0812 372.15 47.8243C371.925 46.5346 372.06 45.8252 372.869 44.9224C374.129 43.4393 374.444 43.4393 375.569 45.0514Z" fill="#BB8B5E"/>
<path d="M0.646497 45.2449C-0.433193 46.4056 -0.118283 48.3401 1.27632 49.3719C2.17606 50.0168 21.6554 50.1457 97.9085 50.0168C191.886 49.8878 193.461 49.8878 194.091 48.6626C194.901 47.0504 194.901 46.6635 194.001 45.4383C193.371 44.5355 183.969 44.4066 97.3687 44.4066C18.7763 44.4066 1.3213 44.5355 0.646497 45.2449Z" fill="#BB8B5E"/>
<path d="M381.687 45.4383C380.787 46.6635 380.787 47.0505 381.597 48.6626C382.227 49.8878 383.801 49.8878 477.779 50.0168C578.82 50.2102 575.311 50.2747 575.671 47.3084C576.121 44.2776 580.305 44.4066 478.319 44.4066C391.719 44.4066 382.317 44.5355 381.687 45.4383Z" fill="#BB8B5E"/>
<path d="M246.996 49.6944C244.656 50.9196 240.607 55.6915 240.607 57.1746C240.607 57.5615 241.102 58.7223 241.687 59.6896C242.722 61.4307 242.947 61.4951 246.771 61.4307C250.145 61.4307 251.584 60.9793 256.578 58.7223C259.817 57.2391 263.551 55.8204 264.9 55.627C268.859 54.9821 268.994 54.4663 265.755 52.2738C259.592 48.0822 251.809 46.986 246.996 49.6944ZM263.551 52.4672L266.025 53.628L262.426 54.4018C260.447 54.8532 256.713 55.9494 254.104 56.9812C249.11 58.7868 244.521 59.3026 243.667 58.0774C242.677 56.6588 245.421 53.628 249.38 51.6934C251.854 50.5327 260.312 50.9841 263.551 52.4672Z" fill="#BB8B5E"/>
<path d="M315.016 49.5009C313.487 50.1458 311.057 51.4355 309.663 52.4672C306.739 54.4663 306.918 54.9821 310.787 55.627C312.137 55.8204 315.916 57.2391 319.11 58.7223C324.104 60.9793 325.543 61.4307 328.917 61.4307C332.741 61.4951 332.966 61.4307 334.001 59.6896C334.585 58.7223 335.08 57.5615 335.08 57.1746C335.08 55.627 331.032 50.9196 328.602 49.6299C325.363 47.8888 319.065 47.8243 315.016 49.5009ZM328.197 52.7252C330.987 54.5307 332.786 56.9812 332.021 58.0774C331.121 59.3671 326.533 58.7868 320.864 56.7232C317.895 55.627 314.161 54.5307 312.632 54.3373C310.697 54.0149 310.023 53.6924 310.472 53.3055C313.936 50.5327 324.193 50.2102 328.197 52.7252Z" fill="#BB8B5E"/>
</svg>
