<svg width="40" height="46" viewBox="0 0 40 46" fill="none" xmlns="http://www.w3.org/2000/svg">
<path d="M22.5885 0.585941C22.6843 0.660419 22.78 0.797913 22.8814 1.01562C22.9321 1.11875 23.101 1.25051 23.3094 1.34218C23.5234 1.43385 23.5065 1.34792 23.2812 1.16458C22.7575 0.729168 22.7519 0.723438 22.9039 0.780727C23.1348 0.866665 23.2699 0.918224 23.2981 0.929684C23.4952 0.998436 23.6247 1.09583 23.7205 1.23906C23.8218 1.39948 24.109 1.57708 24.216 1.54271C24.2442 1.53698 24.3286 1.58281 24.4075 1.64583C24.5821 1.78333 24.6947 1.79479 24.5877 1.66302C24.4807 1.53125 24.796 1.7375 24.9706 1.9151C25.0382 1.98957 25.1283 2.04687 25.1621 2.04687C25.2015 2.04687 25.2972 2.10416 25.3761 2.17291C25.4549 2.24739 25.4887 2.26458 25.4493 2.20729C25.3141 2.02968 25.5112 2.0526 25.7759 2.24739C25.9167 2.35051 26.1757 2.49947 26.3559 2.57395C26.5305 2.64843 26.66 2.73436 26.6375 2.76301C26.6094 2.78593 26.6263 2.79166 26.6713 2.76301C26.7389 2.72291 26.7333 2.70572 26.6488 2.63697C26.5249 2.55103 26.5812 2.53385 26.7332 2.61979C26.8065 2.65989 26.8346 2.65416 26.8234 2.60259C26.8177 2.56822 26.8008 2.53384 26.7783 2.53384C26.7614 2.53384 26.6826 2.47655 26.6094 2.40781C26.5362 2.33333 26.3954 2.24739 26.294 2.21301C26.1926 2.17864 26.1138 2.12708 26.1138 2.09843C26.1138 2.07552 26.0744 2.06978 26.0181 2.08697C25.9505 2.11562 25.9392 2.10416 25.973 2.04687C26.0012 2.00104 25.9955 1.98385 25.9617 2.00676C25.928 2.02968 25.821 2.01822 25.7196 1.98385C25.5732 1.93229 25.5281 1.93228 25.4887 1.9953C25.4493 2.06405 25.4211 2.06406 25.3254 2.00104C25.2635 1.96093 25.1846 1.94374 25.1621 1.9552C25.1339 1.97239 25.0664 1.93229 25.01 1.86354C24.903 1.74322 24.903 1.74322 25.0157 1.78333C25.1114 1.8177 25.1114 1.80624 24.9931 1.6802C24.9143 1.59999 24.8467 1.5427 24.8298 1.55416C24.8186 1.57135 24.6665 1.43958 24.492 1.2677C24.323 1.09583 24.1597 0.958332 24.1315 0.958332C24.109 0.958332 24.0865 0.935413 24.0865 0.901039C24.0865 0.872395 24.2442 0.975521 24.4356 1.13021C24.6271 1.29062 24.8073 1.41666 24.8411 1.41666C24.8693 1.41666 24.9875 1.51979 25.1001 1.64583C25.3141 1.88645 25.286 1.875 25.9449 1.90364C26.0237 1.90364 26.1476 1.93228 26.2264 1.96093C26.3053 1.98957 26.3897 2.01249 26.4235 2.01822C26.4798 2.02395 26.7389 2.13281 26.9191 2.22448C26.9754 2.25885 27.0373 2.2703 27.0599 2.25312C27.0824 2.24166 27.1781 2.29322 27.2682 2.37343C27.364 2.45364 27.4034 2.49947 27.3583 2.47655C27.3077 2.44218 27.2908 2.45364 27.3189 2.49947C27.3414 2.53384 27.3809 2.55103 27.4034 2.53957C27.4484 2.51093 28.4114 2.88332 28.5184 2.97499C28.5578 3.00936 28.5803 3.0552 28.5635 3.07811C28.5466 3.10103 28.6029 3.16405 28.6817 3.22134L28.8225 3.31301L28.7324 3.12395L28.6367 2.93488L28.7831 3.10676C28.8619 3.19843 28.9239 3.30728 28.9295 3.34165C28.9295 3.38176 28.9689 3.42759 29.0196 3.44477C29.1041 3.47915 29.1041 3.46769 29.0365 3.38176C28.9971 3.32447 29.0309 3.34165 29.1153 3.41613C29.1998 3.49634 29.2617 3.58228 29.2561 3.61665C29.2392 3.67968 29.2786 3.70832 29.3744 3.70832C29.4307 3.70832 29.2054 3.11249 29.0365 2.8203C28.9745 2.71145 28.9351 2.59687 28.9577 2.56249C28.9802 2.52812 28.9633 2.45364 28.9295 2.40208C28.8901 2.35051 28.9633 2.41926 29.0928 2.56249C29.2223 2.70572 29.4476 3.03801 29.5884 3.30728C29.7292 3.57655 29.8812 3.83435 29.9263 3.88592C30.0389 4.02342 30.2191 4.84842 30.1853 5.07186C30.1684 5.18071 30.1966 5.4156 30.2585 5.61039L30.3599 5.95987L30.9005 5.9255C31.244 5.90258 31.5594 5.84529 31.7677 5.77081C32.3646 5.54165 32.2013 5.73644 31.4355 6.16613C31.1539 6.32081 30.8216 6.50414 30.6921 6.57862C30.4612 6.71039 30.3599 6.91664 30.5288 6.91664C30.5682 6.91664 30.6978 7.03695 30.816 7.18591C31.0075 7.44372 31.0244 7.4781 30.9962 7.76455C30.9793 7.92497 30.923 8.14268 30.878 8.2458C30.6978 8.60101 30.8442 10.2739 31.2496 12.5598C31.3679 13.2531 31.4749 14.0151 31.4805 14.2557C31.4862 14.6395 31.4749 14.7197 31.3397 14.926C31.2553 15.052 31.1201 15.2067 31.0413 15.264C30.9624 15.3213 30.7766 15.4645 30.6302 15.5791C30.3993 15.7682 30.3317 15.7968 30.067 15.7968C29.7292 15.7968 29.1942 15.5734 28.8788 15.2984C28.6761 15.1208 28.6479 14.989 28.7324 14.5765C28.7718 14.376 28.7493 14.3244 28.4508 13.8661L28.1242 13.3677L28.0397 13.5395C27.9947 13.6312 27.9102 13.7687 27.8539 13.8432C27.792 13.9177 27.7469 14.038 27.7469 14.1124C27.7469 14.1869 27.7244 14.2499 27.6906 14.2499C27.6624 14.2499 27.6512 14.2041 27.6681 14.1468C27.685 14.0953 27.6343 14.164 27.5554 14.3072C27.4766 14.4505 27.4146 14.6281 27.409 14.7025C27.409 14.9088 27.7019 15.413 28.2988 16.2208C29.1998 17.4353 29.3687 17.6989 29.5321 18.1458C29.701 18.6156 29.7292 19.0452 29.6447 20.0536L29.5996 20.5577L30.0445 20.2484C30.2923 20.0765 30.6133 19.8932 30.7653 19.8359C31.2215 19.6697 31.6044 19.4749 32.0549 19.177C32.8264 18.6614 33.1362 18.5239 33.5472 18.5239C34.0822 18.5239 34.3131 18.5869 34.5384 18.7874C35.0114 19.2114 35.1691 19.8874 35.0734 21.0562C35.0227 21.715 35.0283 21.9098 35.124 22.626C35.186 23.0786 35.2986 23.6515 35.3774 23.9036C35.4507 24.1556 35.5182 24.4937 35.5182 24.6541V24.9463L36.1771 25.628C36.5431 26.0061 36.9768 26.4244 37.1401 26.5561C37.3034 26.6936 37.5624 26.9916 37.7145 27.2207C37.8665 27.4556 38.165 27.7994 38.379 27.9942C38.8295 28.4009 38.9309 28.6244 38.8802 29.1171C38.8577 29.3405 38.8802 29.5468 38.959 29.8218C39.0942 30.3145 39.0942 30.5494 38.9534 30.6926C38.7394 30.9103 38.2776 30.8129 37.6582 30.4176C37.1513 30.0968 36.943 29.8619 36.8979 29.5525C36.8754 29.4093 36.836 29.2603 36.8078 29.2259C36.7853 29.1916 36.7684 29.0655 36.7797 28.9395C36.7966 28.7103 36.729 28.5499 36.6333 28.6072C36.6051 28.6244 36.5431 28.6072 36.4925 28.5613C36.408 28.4926 36.408 28.4983 36.4699 28.6129C36.56 28.7962 36.4756 28.7791 36.3292 28.5843L36.2053 28.4296L36.1658 28.5843C36.1208 28.7619 36.0307 28.802 36.0307 28.6416C36.0251 28.4124 35.9856 28.2577 35.9293 28.2577C35.8505 28.2577 35.6815 28.0285 35.5858 27.8108C35.5464 27.7134 35.4901 27.6676 35.4507 27.6905C35.4112 27.7134 35.4056 27.7077 35.4281 27.6676C35.4507 27.6275 35.445 27.5989 35.4169 27.5989C35.3887 27.5989 35.3324 27.4843 35.2986 27.3468C35.2254 27.0431 35.1353 26.9572 35.1635 27.215L35.186 27.3983L35.0959 27.1978C35.0283 27.0546 34.9945 27.0202 34.9607 27.0775C34.9044 27.1634 34.8594 27.1061 34.7862 26.8655C34.7411 26.7223 34.7411 26.728 34.7298 26.94C34.7186 27.1176 34.7129 27.1405 34.6792 27.0374L34.6454 26.8999L34.4933 27.0259C34.4088 27.089 34.2005 27.1692 34.0259 27.1978C33.8176 27.2322 33.5472 27.3468 33.2094 27.5473C32.9334 27.7077 32.6631 27.8452 32.6068 27.8509C32.4548 27.8624 32.4491 27.3697 32.5843 26.6364C32.7476 25.777 32.8039 25.6051 32.9222 25.565C32.9785 25.5478 33.0967 25.4676 33.1756 25.3931C33.2995 25.2728 33.3501 25.2614 33.4402 25.3129C33.6261 25.4103 33.6148 25.3416 33.4177 25.1525C33.0798 24.8202 32.3478 24.5739 31.2947 24.4249C30.9061 24.3676 30.2641 24.2473 29.8699 24.1499C29.3124 24.0181 29.0759 23.9838 28.845 24.0124C28.6479 24.0353 28.3607 24.0067 27.9947 23.9379C27.685 23.8749 27.2288 23.8119 26.981 23.8004L26.5249 23.7718L26.1926 24.0869C26.0068 24.2588 25.6182 24.5567 25.3254 24.7515C25.0326 24.9463 24.3568 25.3989 23.8331 25.7598C21.986 27.0202 21.7664 27.1176 20.0882 27.3926C18.6466 27.6275 18.0891 27.6676 17.3119 27.5931C16.0561 27.4785 15.5718 27.4556 15.1326 27.4957C14.5469 27.553 14.485 27.5989 14.4005 28.0228C14.3667 28.2119 14.2597 28.6301 14.164 28.9452C13.995 29.5009 13.9894 29.5468 14.0063 30.5494C14.0401 33.5113 14.057 33.179 13.7641 34.3592C13.6177 34.9436 13.4206 35.6999 13.3305 36.0493C13.2404 36.3931 13.1616 36.7426 13.1616 36.8228C13.1616 36.9832 13.6571 38.4613 13.8092 38.7821C14.1245 39.4066 15.1551 40.9649 15.538 41.3946C15.7802 41.6639 16.0505 42.0134 16.1406 42.1738C16.3095 42.4832 16.9402 43.1248 17.0698 43.1248C17.2218 43.1248 17.8187 43.629 17.9595 43.8753C18.1285 44.1847 18.1904 44.3451 18.1172 44.2993C17.9821 44.2134 18.0834 44.4024 18.3988 44.8149C18.5846 45.0613 18.7367 45.2904 18.7367 45.3305C18.7367 45.5826 18.0947 45.7373 17.2556 45.6858C16.4053 45.6285 16.3208 45.5941 16.1181 45.216C15.966 44.9295 15.9604 44.8837 16.0111 44.6201C16.0617 44.3681 16.0561 44.3279 15.9379 44.179C15.7858 43.9842 15.7745 44.0243 15.8928 44.305C15.9491 44.4483 15.9548 44.4998 15.9097 44.4884C15.8703 44.4712 15.8252 44.4024 15.8083 44.3337C15.7914 44.2649 15.7633 44.2134 15.7464 44.2248C15.7239 44.2363 15.6507 44.179 15.5831 44.0988C15.4817 43.9785 15.4648 43.9727 15.4986 44.0701C15.5155 44.1332 15.5493 44.2592 15.5606 44.3566L15.5887 44.5285L15.493 44.3566C15.4423 44.2592 15.3297 44.1045 15.2508 44.0071C14.8003 43.4571 14.6933 43.3139 14.4962 43.0217C14.164 42.5233 14.1527 42.5118 14.1133 42.6722C14.0739 42.8269 14.0795 42.8384 13.8937 42.317C13.736 41.8759 13.4488 41.4748 13.3756 41.5837C13.3305 41.6467 13.3305 41.641 13.353 41.555C13.3756 41.492 13.3361 41.366 13.2629 41.2399L13.1334 41.0337L13.0996 41.2342L13.0602 41.4347L13.0658 41.2056C13.0658 41.0795 13.0377 40.9134 12.9926 40.8332C12.8575 40.5696 11.6298 38.7019 11.3595 38.3467C10.8527 37.6764 10.757 37.3327 10.9034 36.7082C10.971 36.4045 10.9822 35.167 10.9203 35.0582C10.8471 34.9436 9.96857 35.8889 9.92352 36.1353C9.79963 36.8571 9.74331 37.642 9.78837 38.1405C9.81089 38.4384 9.86157 39.0915 9.89536 39.5899C9.94604 40.3978 9.96857 40.5353 10.1206 40.8905C10.2107 41.1024 10.2896 41.3545 10.2896 41.4405C10.2896 41.6295 10.7119 42.0707 10.9484 42.128C11.0385 42.1509 11.2976 42.2941 11.5285 42.4431C11.8664 42.6608 11.979 42.7696 12.0803 42.9816C12.2211 43.2738 12.2324 43.3196 12.1479 43.2681C11.9846 43.1649 12.1423 43.4056 12.5196 43.841C12.7843 44.1389 12.9363 44.3623 12.9194 44.4082C12.8687 44.5399 12.5309 44.6087 11.5791 44.6832L10.695 44.7462L10.4303 44.5285C10.1713 44.3108 10.1657 44.2993 10.1882 44.03C10.2107 43.8295 10.1938 43.7378 10.1319 43.6863C10.0587 43.6233 10.0474 43.629 10.0812 43.7092C10.0981 43.7665 10.0925 43.8123 10.0699 43.8123C9.99673 43.8123 9.95168 43.6576 9.98547 43.5545C10.008 43.503 9.9911 43.4686 9.94604 43.4686C9.90662 43.4686 9.79963 43.3998 9.70953 43.3082L9.55185 43.1535L9.63632 43.3253C9.75458 43.5545 9.7039 43.5774 9.52932 43.3597C9.36038 43.1592 9.23649 43.1191 9.33222 43.291C9.36038 43.354 9.36601 43.4571 9.34348 43.5259C9.29843 43.6405 9.2928 43.6347 9.2027 43.4285C9.10133 43.1821 9.0225 43.0561 8.83666 42.8212C8.76908 42.7295 8.71277 42.6321 8.71277 42.5977C8.71277 42.5691 8.63393 42.3514 8.54383 42.1108C8.43683 41.8415 8.37488 41.578 8.36925 41.3889C8.36925 41.1712 8.35236 41.1196 8.31857 41.2056C8.29041 41.2686 8.26789 41.4061 8.26789 41.5149C8.25662 41.9103 8.18905 41.6238 8.15526 41.0509L8.12147 40.4608L8.02011 40.7472L7.92437 41.0337L7.95816 40.7759C7.98069 40.6327 8.00321 40.392 8.00884 40.2431C8.0201 40.0941 8.04263 39.9509 8.06516 39.928C8.08768 39.9051 8.09332 39.9623 8.07079 40.0597C8.04826 40.1514 8.04826 40.2087 8.07079 40.1858C8.13836 40.117 8.14963 39.6816 8.08205 39.7217C8.04826 39.7446 8.04263 39.7103 8.06516 39.6301C8.09332 39.5384 8.08768 39.5155 8.037 39.5441C7.98632 39.5785 7.98632 39.5613 8.03137 39.4639C8.13273 39.2806 8.00321 39.3149 7.89621 39.4983C7.81737 39.6415 7.81174 39.6415 7.84553 39.5212C7.86806 39.4238 7.86243 39.4009 7.81174 39.4295C7.77795 39.4524 7.82301 39.3493 7.91311 39.1946C8.09332 38.9082 8.10458 38.7019 7.93564 38.8394C7.86243 38.9025 7.86242 38.891 7.94127 38.7707C8.02574 38.6389 8.02574 38.5472 7.95253 37.7394C7.90748 37.2525 7.81738 36.6165 7.7498 36.3243C7.58649 35.6197 7.62591 35.3676 7.95816 34.9723C8.36362 34.4853 8.69588 33.9525 9.02813 33.2306C9.19707 32.8639 9.43359 32.4228 9.55748 32.2624L9.7771 31.9645L9.45611 31.7525C8.34109 31.0077 7.02335 29.5124 6.4771 28.3723C6.17864 27.7478 5.91959 26.8483 5.80696 26.0463C5.69434 25.2213 5.68871 25.2041 5.40714 25.3015C5.00167 25.439 4.77079 25.7254 4.70884 26.1895C4.65253 26.6134 4.89468 27.6619 5.64928 30.2285C5.72813 30.4921 5.85765 30.853 5.93649 31.0306C6.16737 31.5577 6.23495 31.8785 6.31942 32.8697C6.36448 33.391 6.46584 34.1243 6.53905 34.5025C6.6742 35.1613 6.69673 35.4363 6.57847 35.041C6.49963 34.7545 6.50526 34.9035 6.60099 35.5394C6.64605 35.8488 6.67983 36.2212 6.67983 36.3644C6.6742 36.5993 6.66294 36.5879 6.57847 36.1639C6.51652 35.8717 6.46584 35.7457 6.44894 35.8202C6.43205 35.8832 6.41515 35.7801 6.40952 35.591C6.39263 35.0811 6.38137 34.9952 6.33632 35.0238C6.31379 35.0353 6.25748 34.892 6.20116 34.703C6.15048 34.5139 6.09417 34.365 6.0829 34.3764C6.07164 34.3879 6.0829 34.6915 6.11106 35.0467C6.13922 35.4077 6.13922 35.9233 6.11106 36.2155C6.0829 36.5535 6.08854 36.8858 6.12795 37.1665C6.21243 37.7509 6.19553 38.1806 6.06601 38.6103C5.84639 39.3608 5.28325 40.9649 5.2213 41.028C5.18188 41.0623 5.19315 40.9993 5.24383 40.8675C5.36772 40.5639 5.48598 40.0712 5.53103 39.6587C5.58171 39.2004 5.50287 39.3035 5.30577 39.9452C5.14809 40.478 4.82147 41.1941 4.70884 41.2686C4.66379 41.2972 4.65816 41.2858 4.68632 41.2342C4.71447 41.1826 4.70884 41.1712 4.66943 41.1998C4.63 41.2228 4.60185 41.2743 4.60185 41.3087C4.60185 41.3488 4.5399 41.492 4.46669 41.6353C4.39349 41.7785 4.29212 42.0306 4.24144 42.191C4.13444 42.5175 4.07249 42.5977 4.12881 42.3342C4.17949 42.0764 4.06686 42.2884 3.83034 42.8785C3.71208 43.1707 3.59946 43.4113 3.57693 43.4113C3.53188 43.4113 3.63324 43.0332 3.74024 42.8097C3.79092 42.7123 3.80219 42.6608 3.77403 42.6951C3.70082 42.7696 3.45867 43.2451 3.30099 43.6118C3.19399 43.8639 3.1771 43.8811 3.14331 43.7665C3.10953 43.6405 3.09826 43.6576 2.97437 43.9097C2.90117 44.0587 2.83359 44.2306 2.82796 44.2821C2.80543 44.4024 2.63086 44.666 2.63086 44.5858C2.63086 44.4769 2.95747 43.7092 3.10952 43.4686C3.23904 43.2623 3.25031 43.205 3.19962 43.079C3.16021 43.0045 3.14894 42.8842 3.16584 42.8155C3.1771 42.7524 3.08137 42.9243 2.95185 43.205C2.80543 43.5144 2.6928 43.692 2.66465 43.6519C2.64212 43.6175 2.65901 43.503 2.70406 43.3998C2.74911 43.2967 2.81669 43.1248 2.85048 43.016C2.90117 42.8556 2.90117 42.8326 2.82796 42.8957C2.78291 42.93 2.67027 43.1019 2.57454 43.2738C2.48444 43.4457 2.38871 43.5832 2.37744 43.5832C2.36055 43.5832 2.37181 43.5316 2.4056 43.4743C2.47881 43.3253 2.47881 43.1649 2.39997 43.2165C2.36618 43.2337 2.28734 43.3712 2.22539 43.5087C2.08461 43.8352 2.02266 43.7837 2.14655 43.4399C2.32676 42.9644 2.21413 42.9644 1.98324 43.4399C1.85935 43.692 1.75799 43.904 1.75235 43.9155C1.74672 43.9212 1.70731 43.9155 1.65662 43.8925C1.57215 43.8639 1.57215 43.841 1.66788 43.6519C1.79177 43.4113 1.91003 42.9988 1.87061 42.9587C1.8312 42.9186 1.56089 43.2337 1.56089 43.3253C1.56089 43.3712 1.51021 43.4342 1.44827 43.4686C1.38632 43.503 1.30184 43.6519 1.25679 43.8009C1.21174 43.9498 1.17232 44.0243 1.17232 43.9613C1.16669 43.8753 1.1498 43.8696 1.08222 43.9269C0.969589 44.0243 0.969589 43.9212 1.08785 43.692C1.1329 43.5946 1.16106 43.503 1.14417 43.4858C1.12727 43.4686 1.14417 43.3998 1.17796 43.3311C1.23427 43.228 1.22864 43.2222 1.15543 43.2852C1.10475 43.3253 1.04844 43.417 1.03154 43.4858C0.992119 43.6576 0.654236 44.2821 0.620445 44.2477C0.609184 44.2363 0.62608 44.1618 0.665501 44.0873C0.704918 44.0186 0.744335 43.8639 0.749969 43.755C0.749969 43.6462 0.778126 43.5087 0.800652 43.4457C0.840073 43.3597 0.800652 43.3712 0.603554 43.503C0.47403 43.5946 0.389561 43.6748 0.423347 43.6863C0.457138 43.6977 0.468395 43.7493 0.4515 43.8009C0.423344 43.8811 0.440243 43.8811 0.547237 43.7837C0.665497 43.6806 0.665497 43.692 0.519081 43.9155C0.361401 44.1618 0.271301 44.242 0.378296 44.0472C0.462769 43.8868 0.445873 43.8467 0.338875 43.9326C0.254406 44.0071 0.254402 44.0014 0.316345 43.8811C0.367031 43.7894 0.367027 43.7264 0.32761 43.6748C0.288189 43.629 0.305088 43.5545 0.378296 43.4399C0.440243 43.3425 0.490921 43.2222 0.490921 43.1649C0.490921 43.1076 0.541607 42.9931 0.603554 42.9071C0.665501 42.8212 0.766865 42.6035 0.828812 42.4144C0.918915 42.1451 0.924541 42.0936 0.851334 42.1566C0.778126 42.2196 0.772495 42.2082 0.806282 42.0592C0.828808 41.9675 0.958332 41.641 1.09912 41.3259C1.23427 41.0165 1.44826 40.3863 1.56652 39.9222C1.69041 39.4639 1.80304 39.0399 1.81993 38.9769C1.84246 38.9139 1.8312 38.8853 1.79741 38.9082C1.72984 38.9483 1.76925 38.7936 1.94946 38.3066C2.03393 38.0775 2.05645 37.9457 2.02266 37.854C1.97198 37.7222 1.97198 37.7222 1.91003 37.9113C1.8143 38.1806 1.79177 38.1118 1.84246 37.7108C1.86499 37.4988 1.88752 37.4358 1.89878 37.5389C1.91004 37.6993 1.91567 37.6936 1.98888 37.453C2.09024 37.1321 2.10714 36.1353 2.01703 35.803C1.93256 35.5051 1.93819 32.4915 2.02266 32.2223C2.05082 32.1191 2.09587 31.5119 2.12403 30.8645C2.16908 29.6613 2.18034 29.6098 2.5126 28.4869C2.58017 28.2634 2.68153 27.7936 2.74348 27.4327C2.94621 26.2239 3.36294 25.6108 4.56806 24.7629C5.14246 24.3562 5.42966 24.0869 6.34758 23.1187C6.95014 22.4885 7.77796 21.6749 8.18342 21.314C9.1126 20.5062 9.42796 20.3515 11.2187 19.8645C12.7167 19.4635 13.4206 19.2228 14.4005 18.8046C14.789 18.6327 15.172 18.4838 15.2565 18.4609C15.3916 18.4265 15.4141 18.3921 15.4141 18.226C15.4141 18.0541 15.4029 18.0369 15.3128 18.0827C15.2621 18.1114 15.1551 18.2031 15.0819 18.2833C14.9693 18.4036 14.6257 18.6327 14.6257 18.5869C14.6257 18.5812 14.6933 18.4437 14.7722 18.289C14.8848 18.0656 14.9129 18.0426 14.8848 18.1744C14.8566 18.3291 14.8623 18.3234 14.9636 18.1228C15.0875 17.8708 15.0931 17.8593 15.0312 17.865C14.8735 17.8937 14.8679 17.8364 15.0199 17.7103C15.1157 17.6244 15.1776 17.5442 15.1607 17.527C15.1495 17.5098 15.2001 17.4124 15.279 17.3036C15.3578 17.2005 15.4029 17.1145 15.3803 17.1145C15.3635 17.1145 15.3747 17.0744 15.4141 17.0286C15.4536 16.977 15.4761 16.9255 15.4592 16.914C15.4141 16.8682 14.6201 17.7963 14.4286 18.1228C14.2935 18.352 14.2428 18.4036 14.2541 18.3062C14.2597 18.2317 14.3104 18.1057 14.3611 18.0312C14.4737 17.865 14.4906 17.7218 14.3836 17.7791C14.3442 17.802 14.3498 17.7791 14.4005 17.7103C14.4455 17.6531 14.5131 17.5442 14.5525 17.4812C14.6145 17.3609 14.6088 17.3609 14.4286 17.401L14.2372 17.4468L14.3329 17.315C14.3836 17.2406 14.4512 17.2005 14.4793 17.2176C14.5075 17.2348 14.5131 17.2176 14.4906 17.1833C14.4737 17.1489 14.4793 17.1088 14.5131 17.0859C14.5413 17.0687 14.5694 17.0228 14.5694 16.9885C14.5694 16.9484 14.4906 16.9942 14.3949 17.0916L14.2146 17.2577L14.316 17.0973C14.3723 17.0114 14.4455 16.9197 14.4793 16.8968C14.5582 16.851 14.744 16.4671 14.7046 16.4327C14.6933 16.4156 14.6088 16.4786 14.5244 16.5588C14.4343 16.6447 14.3498 16.702 14.3329 16.6848C14.316 16.6676 14.1527 16.8223 13.9725 17.0286C13.6402 17.401 13.4826 17.5156 13.6346 17.2692C13.674 17.2005 13.7078 17.0859 13.6966 17.0171C13.6909 16.9426 13.736 16.8452 13.7923 16.788C13.8486 16.7364 13.8937 16.6505 13.8937 16.5932C13.8937 16.5359 13.95 16.4499 14.0232 16.3984C14.0964 16.3525 14.209 16.238 14.2766 16.1463L14.4005 15.9744L14.2315 16.0718C14.1414 16.1234 14.0626 16.1864 14.0626 16.2093C14.0626 16.2322 14.0063 16.2781 13.9331 16.3124C13.8655 16.3468 14.0175 16.1749 14.2766 15.9229C14.5356 15.6708 14.7834 15.3958 14.8285 15.3041C14.8904 15.1723 14.8566 15.1895 14.6652 15.4015C14.5356 15.5505 14.3723 15.6994 14.2991 15.7338C14.2259 15.7739 14.2879 15.6765 14.4568 15.5046C14.7553 15.1838 14.7834 15.0864 14.53 15.2525C14.378 15.3557 14.3836 15.3499 14.5638 15.115C14.6652 14.9833 14.7384 14.8572 14.7158 14.84C14.6539 14.777 14.2879 15.115 14.1865 15.3213C14.1358 15.4359 14.0513 15.5447 14.0063 15.5562C13.9443 15.5791 13.9443 15.5562 14.0232 15.4645C14.0795 15.4015 14.1302 15.3098 14.1414 15.264C14.1471 15.2182 14.1978 15.1093 14.2597 15.0176C14.3216 14.926 14.3723 14.84 14.3723 14.8229C14.3723 14.8057 14.4061 14.7312 14.4512 14.651C14.4962 14.5536 14.4568 14.5822 14.316 14.7369C13.9556 15.1437 13.9331 15.1666 13.8711 15.1666C13.8373 15.1666 13.8711 15.115 13.95 15.052C14.0288 14.989 14.0682 14.9374 14.0401 14.9374C14.0175 14.9374 14.0851 14.8343 14.1921 14.714C14.2991 14.588 14.4174 14.4333 14.4568 14.3703C14.4906 14.3015 14.5413 14.2614 14.5694 14.2786C14.6314 14.3187 14.7046 14.2041 14.7102 14.0552C14.7158 13.9921 14.7665 13.9005 14.8285 13.8489C14.8848 13.7973 15.0087 13.6713 15.1044 13.5682L15.2733 13.3848L15.1044 13.4135C15.0087 13.4307 14.8792 13.5109 14.8116 13.5911C14.744 13.6713 14.6708 13.7343 14.6539 13.7343C14.6201 13.7343 14.9749 13.2703 15.4479 12.6859C15.6169 12.4739 15.7351 12.302 15.707 12.302C15.6394 12.302 14.6539 13.276 14.4061 13.5911C14.1978 13.8489 14.2315 13.7515 14.4512 13.4536C14.5694 13.2932 14.5751 13.2588 14.4962 13.2932C14.4343 13.3161 14.4061 13.3104 14.4286 13.2703C14.4512 13.2359 14.4962 13.2187 14.5356 13.2359C14.6314 13.2703 14.9298 12.8921 14.8454 12.8406C14.8059 12.8177 14.7947 12.8234 14.8116 12.8578C14.8454 12.9151 14.7271 13.001 14.6032 13.0124C14.5807 13.0182 14.4455 13.1442 14.3047 13.3046C14.164 13.4593 14.0739 13.5453 14.102 13.4937C14.1245 13.4421 14.3273 13.1958 14.5413 12.9494C14.7609 12.7031 14.9805 12.4281 15.0368 12.3421C15.0931 12.2562 15.1551 12.1989 15.1832 12.2104C15.2058 12.2276 15.2733 12.1588 15.3297 12.0557C15.4198 11.8953 15.4254 11.8838 15.3409 11.9526C15.2508 12.0213 15.2452 12.0213 15.279 11.9239C15.3184 11.8208 15.3128 11.8208 15.1889 11.9296C15.1157 11.9927 15.0763 12.0098 15.0988 11.9697C15.1945 11.8093 14.7384 12.1531 14.316 12.5713C14.0682 12.8177 13.9049 12.9666 13.9556 12.9036C14.0007 12.8406 14.0964 12.6916 14.164 12.5713L14.2822 12.3593L14.1302 12.4395C14.0457 12.4854 13.9162 12.5885 13.843 12.6687C13.7641 12.7489 13.6797 12.8177 13.6515 12.8177C13.6177 12.8177 13.6459 12.7604 13.7135 12.6859C13.781 12.6114 13.8204 12.5312 13.7979 12.5026C13.7698 12.4796 13.781 12.4682 13.8092 12.4911C13.8655 12.5197 14.1471 12.302 14.7665 11.7463L14.9918 11.5458L14.7102 11.6718C14.5525 11.7463 14.3273 11.8552 14.2034 11.9182C14.0175 12.0156 13.9894 12.0213 14.057 11.9411C14.0964 11.8895 14.1752 11.8437 14.2259 11.8437C14.2935 11.8437 14.2991 11.8322 14.2428 11.7921C14.1696 11.7463 14.1921 11.7406 14.6088 11.6432C14.6483 11.6317 14.744 11.5744 14.8228 11.5057C14.9073 11.4427 15.0143 11.4083 15.065 11.4255C15.1382 11.4484 15.1438 11.4427 15.0819 11.3968C15.0199 11.351 15.0312 11.3338 15.1269 11.2994C15.1889 11.2822 15.2452 11.2307 15.2452 11.1906C15.2452 11.1505 15.3015 11.0875 15.3691 11.0531C15.493 10.9958 15.4873 10.9901 15.324 10.9901C15.2283 10.9843 15.1157 11.0244 15.0763 11.0703C15.0368 11.1161 14.9636 11.1562 14.9073 11.1562C14.8566 11.1562 14.7102 11.2307 14.5863 11.3224C14.4624 11.414 14.3104 11.5057 14.2484 11.5229C14.1809 11.5458 14.0288 11.6317 13.9105 11.7119C13.7923 11.7921 13.6177 11.8781 13.5276 11.9067L13.3587 11.9526L13.5558 11.7864C13.6628 11.689 13.7698 11.6145 13.7923 11.6145C13.8148 11.6145 13.8373 11.5744 13.8373 11.5286C13.8373 11.4828 13.8655 11.4427 13.8937 11.4427C13.9274 11.4427 14.0851 11.3052 14.2541 11.139C14.4174 10.9786 14.6032 10.8067 14.6595 10.7666C14.7553 10.7036 14.7496 10.6979 14.6032 10.7265C14.4568 10.7552 14.4512 10.7494 14.53 10.6692C14.5807 10.6234 14.6877 10.5833 14.7778 10.5833C14.8848 10.5833 14.9129 10.5661 14.8623 10.5317C14.8003 10.4974 14.8228 10.4573 14.9411 10.3599C15.0481 10.2739 15.065 10.2395 14.9974 10.2395C14.9467 10.2395 14.9073 10.2682 14.9073 10.3026C14.9073 10.3312 14.8792 10.3427 14.8397 10.3198C14.8003 10.2968 14.7947 10.3026 14.8172 10.3427C14.8397 10.3828 14.8228 10.4114 14.7665 10.4114C14.7158 10.4114 14.5694 10.4744 14.4399 10.5489C14.3104 10.6291 14.1921 10.6864 14.1752 10.6807C14.0682 10.652 13.6571 10.9385 13.522 11.139C13.4319 11.2765 13.3474 11.3567 13.3361 11.3224C13.3305 11.2937 13.3643 11.2135 13.4206 11.1505C13.4713 11.0932 13.4882 11.0416 13.46 11.0416C13.4262 11.0416 13.4713 10.9614 13.5614 10.864C13.8937 10.5031 13.7135 10.5718 13.3418 10.9442C12.9983 11.2937 12.9419 11.3281 12.8181 11.2765C12.7449 11.2479 12.7111 11.2192 12.7449 11.2192C12.7786 11.2135 12.8856 11.1046 12.9814 10.9671C13.1334 10.7494 13.6853 10.125 14.0063 9.7984L14.1302 9.67236L13.9669 9.65517L13.8092 9.63226L13.9781 9.58069C14.1358 9.53486 14.4174 9.32288 14.316 9.32288C14.2935 9.32288 14.316 9.27132 14.3667 9.21403C14.4399 9.12809 14.4455 9.09945 14.3892 9.07653C14.3498 9.05934 14.3836 9.04215 14.4681 9.04215C14.5525 9.03642 14.637 9.00778 14.6595 8.96767C14.6877 8.92757 14.6764 8.92184 14.6257 8.95049C14.5751 8.97913 14.5638 8.9734 14.5919 8.9333C14.6145 8.89319 14.6652 8.86455 14.7102 8.86455C14.7496 8.86455 14.7947 8.82444 14.8172 8.77861C14.8623 8.64684 14.6652 8.66976 14.5413 8.80726C14.485 8.87028 14.4117 8.92184 14.378 8.92184C14.2991 8.92184 14.164 9.13382 14.2203 9.16819C14.2428 9.17965 14.2315 9.18538 14.1978 9.17392C14.164 9.16819 14.1076 9.18538 14.0795 9.21403C14.0457 9.2484 14.0232 9.23694 14.0232 9.17965C14.0232 9.12809 14.1133 9.0135 14.2203 8.91611C14.3273 8.81871 14.4005 8.72705 14.3836 8.70986C14.3667 8.6984 14.2372 8.79007 14.0908 8.92757C13.8937 9.1109 13.8148 9.151 13.7698 9.10517C13.7191 9.05361 13.7247 9.03642 13.7867 9.03642C13.8373 9.03642 13.9331 8.9734 14.0007 8.89892C14.1189 8.76715 14.1245 8.7557 14.0232 8.73278C13.95 8.71559 13.9556 8.70414 14.0626 8.69841C14.1414 8.69268 14.2879 8.60101 14.4005 8.49216C14.6426 8.24007 14.5863 8.23434 14.3047 8.47496C14.1865 8.57809 14.1245 8.61819 14.164 8.56663C14.209 8.51507 14.2259 8.44632 14.209 8.41768C14.1921 8.38903 14.2372 8.33174 14.316 8.29164C14.3892 8.25153 14.4343 8.18851 14.423 8.14841C14.4061 8.1083 14.4962 8.03955 14.6314 7.98799C14.8003 7.91924 14.8566 7.86768 14.8341 7.80466C14.8116 7.75309 14.8285 7.71872 14.8848 7.71872C14.9861 7.71872 15.5042 7.45518 15.5549 7.37497C15.5774 7.3406 15.5211 7.31768 15.431 7.31195C15.3184 7.30622 15.3466 7.28904 15.538 7.24893C15.6901 7.21456 15.8083 7.16872 15.8083 7.14008C15.8083 6.97966 14.5075 7.44945 14.4343 7.63278C14.4174 7.68435 14.3723 7.70726 14.3385 7.69007C14.3047 7.66716 14.2203 7.70726 14.1414 7.78174C14.0682 7.85049 14.0063 7.89059 14.0063 7.86195C14.0063 7.83903 13.95 7.86195 13.8768 7.92497C13.8092 7.98226 13.8261 7.94789 13.9162 7.84476C14.0119 7.74737 14.1189 7.66143 14.164 7.66143C14.209 7.66143 14.2315 7.62706 14.2146 7.58122C14.1809 7.50101 14.3385 7.31768 14.4343 7.31768C14.4624 7.31768 14.4455 7.34632 14.4005 7.37497C14.2653 7.46091 14.4117 7.43799 14.5694 7.34632C14.6989 7.27185 14.6877 7.26612 14.3667 7.28331C14.1189 7.29477 13.9725 7.3406 13.8542 7.42653C13.7641 7.49528 13.6459 7.5583 13.5952 7.56976C13.5389 7.57549 13.3925 7.68435 13.2573 7.81039L13.0208 8.03382L13.2404 7.7932C13.3587 7.66716 13.4431 7.52966 13.4206 7.50101C13.4037 7.47236 13.4657 7.41507 13.5558 7.37497C13.6515 7.33487 13.7247 7.28331 13.7247 7.25466C13.7247 7.23175 13.8768 7.12289 14.0626 7.01403C14.2484 6.91091 14.3836 6.80206 14.3611 6.78487C14.3273 6.7505 14.3611 6.73904 14.6257 6.72185C14.7496 6.71612 14.8566 6.63018 14.8228 6.56716C14.8003 6.53852 14.8285 6.5156 14.8792 6.5156C14.9242 6.5156 15.0931 6.42393 15.2508 6.31508C15.4085 6.20622 15.5042 6.11456 15.4592 6.11456C15.4141 6.11456 15.3522 6.14321 15.324 6.17185C15.2565 6.2406 14.7158 6.13748 14.5413 6.01717C14.4399 5.94841 14.4455 5.94268 14.6088 5.94268C14.7046 5.94268 14.851 5.91977 14.9355 5.8854C15.0312 5.84529 15.0706 5.84529 15.0481 5.8854C15.0312 5.91977 15.0706 5.94269 15.1438 5.94841C15.2677 5.94841 15.2677 5.95414 15.1607 5.99998C15.0763 6.03435 15.1157 6.05154 15.3128 6.05154C15.4648 6.05727 15.5831 6.02863 15.5831 5.99998C15.5831 5.9656 15.5324 5.94268 15.4648 5.94268C15.324 5.94268 15.1326 5.84529 15.1326 5.76508C15.1326 5.73071 15.172 5.73071 15.2396 5.77081C15.3184 5.81092 15.4761 5.81092 15.7577 5.77081C16.2025 5.70779 16.3152 5.66196 16.0561 5.65051C15.966 5.65051 15.7802 5.62758 15.6394 5.61039C15.4986 5.59321 15.1551 5.57602 14.8792 5.57602C14.5976 5.57602 14.4286 5.56456 14.5018 5.5531C14.5694 5.54165 14.6145 5.51873 14.6032 5.49581C14.592 5.4729 14.6539 5.44998 14.7496 5.44998C14.8454 5.44425 14.9355 5.42133 14.958 5.39269C14.9918 5.34113 15.0087 5.3354 15.279 5.31821L15.4254 5.31248L15.2959 5.1979L15.1607 5.08905L15.4029 5.08331C15.538 5.08331 15.6338 5.0604 15.6169 5.03175C15.6 5.00311 15.7182 4.963 15.8815 4.94009L16.1744 4.89998L15.8928 4.79113C15.7351 4.72811 15.4367 4.65363 15.2227 4.62498C15.003 4.59061 14.8228 4.55623 14.8116 4.54477C14.8003 4.53332 14.9073 4.50467 15.0537 4.48175C15.2508 4.45311 15.3015 4.43019 15.2396 4.39008C15.1832 4.34998 15.217 4.34425 15.3409 4.36717C15.4423 4.39009 15.5324 4.37863 15.5549 4.33853C15.5718 4.30988 15.6112 4.29269 15.6394 4.30988C15.6619 4.32706 15.8196 4.34998 15.9885 4.36717L16.287 4.39008L16.0617 4.30988L15.8365 4.22968L16.1181 4.25259C16.2701 4.26405 16.5235 4.30415 16.6756 4.33279C16.8501 4.3729 16.9797 4.3729 17.0416 4.33853C17.1092 4.29842 17.0585 4.28123 16.8501 4.28123C16.6925 4.27551 16.4897 4.24113 16.3996 4.20103C16.2307 4.12082 16.2307 4.12082 16.4841 4.14946C16.6249 4.16092 16.7938 4.17811 16.867 4.18957C16.9684 4.20676 16.9797 4.1953 16.929 4.13228C16.8783 4.06926 16.9065 4.05207 17.081 4.05207C17.2838 4.04634 17.295 4.04061 17.1937 3.96613C17.1317 3.9203 16.9853 3.88019 16.867 3.88019C16.7488 3.88019 16.653 3.85155 16.653 3.8229C16.653 3.78853 16.7206 3.76561 16.8051 3.76561C16.8952 3.76561 17.0641 3.74842 17.188 3.72551L17.4133 3.68541L17.2162 3.65103C17.1092 3.62811 16.9797 3.63384 16.929 3.65676C16.8389 3.70259 16.4447 3.50207 16.501 3.43905C16.5235 3.42186 16.5742 3.44478 16.6136 3.49061C16.6756 3.55363 16.8558 3.57655 17.3175 3.57655C17.6554 3.58228 18.0834 3.6052 18.258 3.62239C18.4945 3.65676 18.5902 3.6453 18.6409 3.58801C18.6803 3.54218 18.686 3.53072 18.6578 3.55363C18.6297 3.57655 18.5733 3.56509 18.5283 3.52499C18.4832 3.49061 18.3537 3.43905 18.2411 3.41613C18.1228 3.39322 18.3875 3.38176 18.8774 3.38749C19.3392 3.39894 19.6658 3.39322 19.5926 3.38176C19.5251 3.3703 19.48 3.33019 19.4969 3.30155C19.5138 3.2729 19.4913 3.26718 19.4462 3.28436C19.3955 3.30155 19.2322 3.2901 19.0802 3.24999C18.9281 3.21562 18.579 3.16405 18.303 3.14113L17.8075 3.0953L18.2524 3.08384C18.6635 3.07812 18.6916 3.07238 18.5902 2.99218C18.5339 2.94634 18.365 2.90623 18.2186 2.90623C18.0722 2.90623 17.937 2.87759 17.9201 2.84895C17.8976 2.80885 17.9314 2.79739 18.0158 2.81457C18.1397 2.84322 18.5902 2.88332 19.2716 2.93488C19.6715 2.96353 19.801 2.91197 19.6546 2.7802C19.5363 2.67707 19.2998 2.59687 18.8324 2.5052C18.6578 2.47083 18.5114 2.41926 18.5114 2.39061C18.5114 2.36197 18.5621 2.35051 18.624 2.36197C18.686 2.37343 18.7479 2.36197 18.7648 2.33332C18.793 2.28749 18.7085 2.25885 18.3481 2.19009C18.2693 2.17864 18.1848 2.13281 18.151 2.09843C18.1059 2.04687 18.1059 2.04114 18.151 2.06405C18.1848 2.08697 18.303 2.10989 18.4157 2.12708C18.6916 2.16145 18.8718 2.22447 18.9169 2.29895C18.9507 2.34478 18.9619 2.33905 18.9619 2.29322C18.9619 2.24166 19.0013 2.23593 19.1083 2.27603C19.1872 2.31041 19.328 2.34478 19.4237 2.36197C19.5814 2.39062 19.5926 2.38489 19.5251 2.30468C19.48 2.25312 19.3336 2.14427 19.1928 2.06979C19.052 1.98958 18.9844 1.94374 19.0464 1.96093C19.1083 1.98384 19.1872 2.00677 19.2153 2.0125C19.2491 2.01822 19.3505 2.07552 19.4406 2.13854C19.5363 2.20729 19.6771 2.27603 19.7616 2.29895C19.8517 2.31614 19.9193 2.36197 19.9193 2.39061C19.9193 2.41926 19.953 2.43072 19.9981 2.41353C20.0431 2.39634 20.0938 2.40781 20.1164 2.44218C20.1332 2.47655 20.1783 2.5052 20.2065 2.5052C20.2402 2.5052 20.2459 2.47655 20.2234 2.43645C20.2008 2.39635 20.2797 2.42499 20.4036 2.49947C20.5838 2.60832 20.6063 2.61406 20.5331 2.52812C20.4824 2.4651 20.4542 2.39062 20.4655 2.35051C20.4768 2.31614 20.4599 2.27031 20.4317 2.24739C20.3923 2.22447 20.381 2.25312 20.4036 2.31614C20.4261 2.4078 20.4261 2.4078 20.3585 2.31041C20.3191 2.25312 20.2234 2.12708 20.1558 2.04114C20.0826 1.94947 20.0488 1.87499 20.0882 1.87499C20.122 1.87499 20.1332 1.84634 20.1164 1.8177C20.0938 1.78333 20.0544 1.7776 20.0206 1.79478C19.9812 1.8177 19.9756 1.80624 19.9981 1.76614C20.0263 1.72031 20.0938 1.74322 20.2121 1.84635C20.4092 2.01249 20.4993 1.9953 20.3416 1.8177C20.1558 1.60572 20.2853 1.69739 20.6119 2.00676C20.7921 2.17291 20.9836 2.31041 21.0455 2.31614C21.192 2.32759 21.1919 2.31614 20.9836 2.07552C20.8653 1.94374 20.8428 1.88645 20.9048 1.9151C20.9836 1.94374 20.9949 1.93228 20.9611 1.87499C20.9329 1.82343 20.9385 1.81197 20.978 1.84062C21.0174 1.86353 21.0455 1.9151 21.0455 1.94947C21.0455 2.04114 21.7157 2.6427 21.7607 2.59687C21.7832 2.57968 21.6819 2.45937 21.5467 2.33332C21.4116 2.20728 21.2708 2.07552 21.2426 2.04114C21.2088 2.00676 21.1019 1.88645 21.0005 1.78333C20.8428 1.61718 20.8315 1.58854 20.9216 1.58854C20.978 1.58854 21.0737 1.6401 21.1244 1.6974C21.1807 1.76042 21.2595 1.79478 21.3046 1.7776C21.3496 1.76041 21.3834 1.77187 21.3834 1.80624C21.3834 1.83489 21.4228 1.87499 21.4623 1.89218C21.5186 1.9151 21.5355 1.89791 21.5186 1.84635C21.4904 1.77187 21.389 1.70885 21.3271 1.72604C21.2933 1.73177 21.2595 1.70885 20.8315 1.33073C20.4711 1.01562 20.5106 0.992706 20.8991 1.29635C21.3271 1.62291 21.3834 1.63437 21.1019 1.33073C20.9385 1.15312 20.8991 1.0901 20.9949 1.15312C21.0737 1.20468 21.1582 1.2276 21.1863 1.20469C21.2088 1.17604 21.2145 1.19323 21.1863 1.23906C21.1525 1.29635 21.1638 1.30781 21.2088 1.27343C21.2539 1.25051 21.344 1.29635 21.4454 1.39375L21.6143 1.55416L21.5242 1.37656C21.4454 1.21614 21.2989 1.11302 21.13 1.10156C21.1019 1.10156 21.0681 1.05 21.0568 0.986977C21.0455 0.923958 21.0568 0.895309 21.085 0.929684C21.1356 0.992706 21.3609 1.13021 21.4172 1.13021C21.4397 1.13021 21.4228 1.0901 21.3834 1.04427C21.3496 0.998432 21.3327 0.935413 21.3553 0.906765C21.3722 0.872391 21.3609 0.786457 21.3271 0.717709C21.2821 0.620316 21.2989 0.626041 21.3891 0.746353C21.4566 0.83802 21.5636 0.935413 21.6312 0.964058C21.8283 1.05573 21.9972 1.16458 22.1155 1.27343C22.3351 1.47395 22.2901 1.30781 22.0648 1.07864C21.9353 0.946869 21.8508 0.843746 21.8734 0.843746C21.8959 0.843746 21.8396 0.763538 21.7495 0.671875C21.6594 0.574478 21.6087 0.5 21.6368 0.5C21.6931 0.5 22.5829 1.42812 22.5885 1.49687C22.5942 1.52552 22.6561 1.58854 22.735 1.6401C22.8588 1.72031 22.8701 1.72031 22.8082 1.6401C22.7687 1.58854 22.7519 1.53698 22.7687 1.51979C22.7856 1.5026 22.5998 1.28489 22.3577 1.03854C22.0423 0.717709 21.9916 0.654682 22.1831 0.809368C22.3295 0.92395 22.4365 0.981247 22.4196 0.935413C22.3745 0.815102 22.4365 0.820835 22.6054 0.958332C22.6843 1.02135 22.7744 1.07291 22.8025 1.07291C22.8645 1.07291 22.6392 0.729168 22.5097 0.631771C22.3858 0.540108 22.459 0.494274 22.5885 0.585941ZM21.4904 1.02708C21.5129 1.10156 21.5918 1.1875 21.6594 1.22187C21.7326 1.26198 21.7607 1.29634 21.7213 1.31353C21.6875 1.32499 21.8339 1.51979 22.0536 1.75468C22.2732 1.98384 22.4534 2.14999 22.4534 2.12135C22.4534 2.0927 22.3408 1.94374 22.2 1.80051C21.9466 1.53125 21.8621 1.38802 22.0423 1.53698C22.1155 1.59999 22.1268 1.59999 22.093 1.54271C22.0704 1.5026 21.986 1.4453 21.9071 1.41093C21.8339 1.38229 21.7889 1.33645 21.8058 1.30208C21.8227 1.27343 21.7551 1.17031 21.6537 1.07864C21.4285 0.866661 21.4341 0.866665 21.4904 1.02708ZM23.2981 1.01562C23.2981 1.04427 23.3544 1.10156 23.422 1.13594C23.5515 1.20469 23.5515 1.20468 23.4445 1.07864C23.3263 0.946869 23.2981 0.929684 23.2981 1.01562ZM22.887 1.34791C22.9039 1.41666 22.9377 1.47395 22.9658 1.47395C22.994 1.47395 22.9827 1.41093 22.9489 1.33073C22.8757 1.15885 22.8363 1.1703 22.887 1.34791ZM23.1855 1.48541C23.1855 1.45104 23.1629 1.41666 23.1404 1.41666C23.1123 1.41666 23.0897 1.45104 23.0897 1.49687C23.0897 1.53698 23.1292 1.57135 23.1798 1.55989C23.2305 1.55416 23.3375 1.61145 23.422 1.69166C23.6247 1.88072 23.6247 1.82343 23.4276 1.59427C23.3206 1.46823 23.2643 1.43958 23.2305 1.49114C23.1967 1.54271 23.1855 1.5427 23.1855 1.48541ZM24.0414 1.70312C24.0809 1.76614 24.1372 1.8177 24.1653 1.8177C24.1935 1.8177 24.2667 1.86353 24.323 1.9151C24.4244 2.00676 24.4244 2.00676 24.3906 1.9151C24.3737 1.86353 24.3399 1.8177 24.3117 1.8177C24.2892 1.8177 24.216 1.76614 24.1428 1.70312C24.0696 1.6401 24.002 1.58854 23.9908 1.58854C23.9795 1.58854 24.002 1.6401 24.0414 1.70312ZM24.5989 1.83489C24.6102 1.84635 24.7116 1.9151 24.8186 1.98958L25.0157 2.12708L24.8805 1.97239C24.8017 1.88645 24.7059 1.8177 24.6609 1.8177C24.6102 1.8177 24.5877 1.82343 24.5989 1.83489ZM24.492 1.93229C24.5314 1.9953 24.5989 2.05833 24.6496 2.07552C24.6947 2.09843 24.6722 2.04687 24.5989 1.96666C24.4356 1.78906 24.3962 1.7776 24.492 1.93229ZM21.3553 2.04687C21.3722 2.07552 21.4454 2.13281 21.5129 2.16718C21.6368 2.23593 21.6368 2.23593 21.5298 2.10989C21.4228 1.98958 21.2877 1.93801 21.3553 2.04687ZM20.4542 2.16145C20.5106 2.22447 20.5725 2.25885 20.5894 2.24166C20.6063 2.22447 20.5725 2.17291 20.5162 2.12708C20.3585 2.01249 20.336 2.02968 20.4542 2.16145ZM25.5507 2.21301C25.6182 2.35051 25.8379 2.51666 25.8829 2.47083C25.9111 2.44791 25.5619 2.10989 25.5056 2.10416C25.5 2.10416 25.5169 2.15572 25.5507 2.21301ZM20.7358 2.44791C20.7921 2.51093 20.8541 2.55103 20.8653 2.53384C20.8822 2.51665 20.8484 2.4651 20.7865 2.41926C20.6344 2.30468 20.6175 2.31614 20.7358 2.44791ZM26.035 2.68853C26.1138 2.83176 26.2996 3.01509 26.3391 2.99218C26.3559 2.98072 26.4967 3.07239 26.6431 3.1927C26.7952 3.31874 26.9247 3.42186 26.9416 3.42186C26.9529 3.42186 26.8853 3.32447 26.7952 3.20416C26.6206 2.98645 26.4123 2.80312 26.3109 2.78593C26.2771 2.7802 26.2039 2.7401 26.142 2.69999C26.0068 2.6026 25.9843 2.59687 26.035 2.68853ZM26.6488 2.90051C26.6319 2.92916 26.6713 2.99218 26.7332 3.03801C26.7896 3.07811 26.9191 3.21561 27.0205 3.34165C27.1725 3.53644 27.6568 3.81717 27.7244 3.74842C27.7356 3.73697 27.6568 3.62238 27.5498 3.49634C27.4428 3.36457 27.3527 3.23853 27.3527 3.20988C27.3527 3.12968 27.0205 2.89478 26.9585 2.93488C26.9303 2.95207 26.8966 2.94061 26.874 2.90623C26.829 2.83176 26.6938 2.83176 26.6488 2.90051ZM28.1974 2.92915C28.1974 2.94061 28.2368 2.96926 28.2875 2.98645C28.3326 3.00364 28.3551 2.99791 28.3382 2.96353C28.3044 2.90624 28.1974 2.88332 28.1974 2.92915ZM18.7367 3.47915C18.7817 3.5078 18.8831 3.53072 18.9619 3.53072L19.1027 3.52499L18.9619 3.47915C18.8831 3.45623 18.7817 3.43332 18.7367 3.42759C18.6635 3.42186 18.6635 3.42759 18.7367 3.47915ZM27.7694 3.71978C27.8314 3.80572 27.8595 3.82291 27.8595 3.75988C27.8595 3.66822 27.7413 3.51926 27.7019 3.56509C27.6906 3.57655 27.7187 3.6453 27.7694 3.71978ZM17.2218 3.88019C17.2725 3.90884 17.4245 3.94894 17.5597 3.96613L17.8075 3.99478L17.6385 3.91457C17.4471 3.81717 17.0698 3.78852 17.2218 3.88019ZM17.8525 3.91457C17.8694 3.93176 17.9201 3.93748 17.9595 3.9203C18.0046 3.90311 17.9877 3.88592 17.9257 3.88592C17.8638 3.88019 17.83 3.89738 17.8525 3.91457ZM17.9483 4.10936C17.9933 4.138 18.0834 4.16665 18.1454 4.16665C18.2411 4.16665 18.2411 4.15519 18.1735 4.10936C18.1285 4.08071 18.0384 4.05207 17.9764 4.05207C17.8807 4.05207 17.8807 4.06353 17.9483 4.10936ZM17.2781 4.13228C17.3401 4.18384 17.6667 4.21821 17.6385 4.16665C17.6216 4.13228 17.5259 4.10936 17.4302 4.10936C17.3344 4.10936 17.2669 4.12082 17.2781 4.13228ZM29.8868 6.063C29.8868 6.09164 29.9094 6.11456 29.9431 6.11456C29.9713 6.11456 29.9995 6.07446 29.9995 6.0229C29.9995 5.97706 29.9713 5.95414 29.9431 5.97133C29.9094 5.98852 29.8868 6.02862 29.8868 6.063ZM14.8679 5.97706C14.8848 5.99425 14.9355 5.99998 14.9749 5.98279C15.0199 5.9656 15.003 5.94841 14.9411 5.94841C14.8792 5.94269 14.8454 5.95987 14.8679 5.97706ZM14.7665 7.31768C14.7496 7.35206 14.7722 7.35779 14.8172 7.3406C14.9186 7.3005 14.9355 7.26039 14.8566 7.26039C14.8228 7.26039 14.7834 7.28331 14.7665 7.31768ZM14.2597 7.48955C14.2428 7.5182 14.2541 7.54685 14.2822 7.54685C14.316 7.54685 14.3442 7.5182 14.3442 7.48955C14.3442 7.45518 14.3329 7.43226 14.3216 7.43226C14.3047 7.43226 14.2766 7.45518 14.2597 7.48955ZM14.8792 8.5208C14.7778 8.56664 14.7834 8.57236 14.9186 8.57236C15.0087 8.57809 15.0763 8.54945 15.0763 8.5208C15.0763 8.45205 15.0312 8.45205 14.8792 8.5208ZM14.485 8.57809C14.4681 8.60674 14.4737 8.63538 14.5075 8.63538C14.5356 8.63538 14.5807 8.60674 14.5976 8.57809C14.6145 8.54371 14.6088 8.5208 14.5751 8.5208C14.5469 8.5208 14.5018 8.54371 14.485 8.57809ZM14.7665 9.78694C14.7384 9.81559 14.7947 9.80986 14.896 9.77549C14.9918 9.74111 15.0763 9.701 15.0763 9.68382C15.0763 9.64371 14.8341 9.72965 14.7665 9.78694ZM14.4455 10.0448C14.3949 10.0963 14.3611 10.1651 14.3836 10.1994C14.4005 10.2338 14.3892 10.2395 14.3498 10.2166C14.2766 10.1651 13.7416 10.675 13.8036 10.738C13.8204 10.7552 13.8937 10.7208 13.9669 10.652C14.0401 10.5833 14.1189 10.526 14.1527 10.526C14.1809 10.526 14.3047 10.4343 14.4286 10.3255C14.6032 10.1708 14.6257 10.125 14.5469 10.125C14.3949 10.125 14.4568 10.0791 14.6483 10.0448C14.7384 10.0276 14.8397 9.98173 14.8735 9.94735C14.9693 9.84423 14.5694 9.9359 14.4455 10.0448ZM15.8083 10.6979C15.8534 10.7265 15.9153 10.7552 15.9491 10.7552C15.9773 10.7552 15.966 10.7265 15.921 10.6979C15.8759 10.6692 15.8083 10.6406 15.7802 10.6406C15.7464 10.6406 15.7633 10.6692 15.8083 10.6979ZM15.6675 12.1302C15.6112 12.1932 15.5774 12.2447 15.5943 12.2447C15.6112 12.2447 15.6675 12.1932 15.7239 12.1302C15.7802 12.0671 15.814 12.0156 15.7971 12.0156C15.7802 12.0156 15.7239 12.0671 15.6675 12.1302ZM14.2597 12.2447C14.2428 12.2734 14.2484 12.302 14.2822 12.302C14.3104 12.302 14.3554 12.2734 14.3723 12.2447C14.3892 12.2104 14.3836 12.1875 14.3498 12.1875C14.3216 12.1875 14.2766 12.2104 14.2597 12.2447ZM27.0542 12.5427C27.0317 12.5999 27.0317 12.6458 27.043 12.6458C27.0768 12.6458 27.2401 12.325 27.2401 12.2619C27.2401 12.2046 27.0993 12.4166 27.0542 12.5427ZM27.364 12.9322C27.2682 13.1729 27.1387 13.4651 27.0711 13.5796C26.9529 13.7802 26.9472 13.8203 27.0148 14.0208C27.0993 14.2843 27.1443 14.2729 27.302 13.9463L27.4203 13.7057L27.2682 13.8489L27.1106 13.9921L27.2176 13.8374C27.2739 13.7515 27.3414 13.677 27.364 13.677C27.3921 13.677 27.409 13.6427 27.409 13.6026C27.409 13.5567 27.4653 13.4765 27.5273 13.4135C27.5949 13.3562 27.685 13.2187 27.73 13.1156C27.7976 12.9494 27.792 12.9093 27.685 12.6973C27.623 12.5656 27.5611 12.4739 27.5498 12.4854C27.5385 12.4911 27.4541 12.6973 27.364 12.9322ZM15.0594 13.3505C15.0706 13.3734 15.11 13.3791 15.1382 13.3562C15.1664 13.339 15.1776 13.3046 15.1607 13.2817C15.1495 13.2531 15.2001 13.1729 15.2733 13.1041C15.3522 13.0296 15.4141 12.9437 15.4141 12.9093C15.4141 12.875 15.324 12.9494 15.2227 13.0755C15.1157 13.2015 15.0425 13.3218 15.0594 13.3505ZM15.2508 14.1755C15.0594 14.3703 15.0537 14.376 15.217 14.2786C15.4198 14.1583 15.5268 14.0265 15.5211 13.9119C15.5211 13.8432 15.5099 13.8374 15.4873 13.8947C15.4704 13.9406 15.3635 14.0666 15.2508 14.1755ZM14.7496 14.502C14.4624 14.777 14.4343 14.8916 14.7158 14.6682C14.8228 14.5822 14.9636 14.4046 15.0256 14.2786C15.0819 14.1525 15.1044 14.101 15.065 14.164C15.0256 14.227 14.8848 14.3817 14.7496 14.502ZM14.9073 14.7369C14.8341 14.8171 14.8003 14.8802 14.8341 14.8802C14.8623 14.8802 14.9467 14.8171 15.0199 14.7369C15.0931 14.6567 15.1269 14.5937 15.0931 14.5937C15.065 14.5937 14.9805 14.6567 14.9073 14.7369ZM13.7529 16.8854C13.736 16.914 13.7416 16.9426 13.7754 16.9426C13.8036 16.9426 13.8486 16.914 13.8655 16.8854C13.8824 16.851 13.8768 16.8281 13.843 16.8281C13.8148 16.8281 13.7698 16.851 13.7529 16.8854ZM15.3522 17.4984C15.279 17.59 15.2846 17.5958 15.3691 17.5213C15.4254 17.4812 15.4704 17.4353 15.4704 17.4239C15.4704 17.3781 15.4254 17.4067 15.3522 17.4984ZM15.172 17.7333C15.1157 17.7906 15.0931 17.8536 15.11 17.8708C15.1269 17.8937 15.1157 17.9624 15.0763 18.0255C14.9693 18.2374 15.065 18.1572 15.2396 17.888C15.4085 17.6301 15.3635 17.5213 15.172 17.7333ZM15.3015 17.9223C15.3015 18.0255 15.4029 17.9739 15.431 17.8536C15.4536 17.7619 15.4479 17.7505 15.3803 17.8077C15.3353 17.8421 15.3015 17.8937 15.3015 17.9223ZM32.4379 21.503C32.1676 21.8296 31.9254 22.0989 31.9029 22.0989C31.8747 22.0989 31.8578 22.1218 31.8578 22.1562C31.8578 22.202 32.1281 22.2937 33.2657 22.6431C33.4008 22.689 33.5247 22.7119 33.536 22.7004C33.5867 22.6489 33.5529 22.2536 33.4966 22.2192C33.4628 22.1963 33.4234 22.076 33.4065 21.9499C33.3952 21.8239 33.3445 21.503 33.2938 21.2395C33.2488 20.9702 33.2094 20.7296 33.2094 20.701C33.2094 20.615 32.9728 20.8614 32.4379 21.503ZM2.19724 31.0191C2.2085 31.1395 2.21976 31.0535 2.21976 30.8358C2.21976 30.6124 2.2085 30.5207 2.19724 30.6181C2.18597 30.7212 2.18597 30.9046 2.19724 31.0191ZM2.08461 32.3082C2.10151 32.3483 2.11277 32.3197 2.11277 32.2395C2.11277 32.1592 2.10151 32.1306 2.08461 32.165C2.07335 32.2051 2.07335 32.2738 2.08461 32.3082ZM2.02829 33.454C2.03956 33.6202 2.04519 33.4999 2.04519 33.1848C2.04519 32.8697 2.03956 32.7322 2.02829 32.8811C2.01703 33.0301 2.01703 33.2879 2.02829 33.454ZM6.19553 33.3395C6.21243 33.3796 6.22369 33.3509 6.22369 33.2707C6.22369 33.1905 6.21243 33.1618 6.19553 33.1962C6.18427 33.2363 6.18427 33.3051 6.19553 33.3395ZM6.25184 33.6832C6.26874 33.7233 6.28 33.6947 6.28 33.6145C6.28 33.5342 6.26874 33.5056 6.25184 33.54C6.24058 33.5801 6.24058 33.6488 6.25184 33.6832ZM6.43768 34.64C6.46021 34.7374 6.48837 34.8118 6.49963 34.7947C6.51652 34.7832 6.51089 34.6858 6.48837 34.5884C6.43768 34.3535 6.39263 34.3993 6.43768 34.64ZM6.30816 34.7717C6.32505 34.8176 6.34195 34.8004 6.34195 34.7374C6.34758 34.6743 6.33068 34.64 6.31379 34.6629C6.2969 34.6801 6.29126 34.7316 6.30816 34.7717ZM2.02829 35.4879C2.03956 35.5795 2.05082 35.5165 2.05082 35.3618C2.05082 35.2014 2.03956 35.1327 2.02829 35.2014C2.01703 35.2759 2.01703 35.4019 2.02829 35.4879ZM2.08461 35.803C2.10151 35.8488 2.1184 35.8316 2.1184 35.7686C2.12403 35.7056 2.10714 35.6712 2.09024 35.6941C2.07335 35.7113 2.06771 35.7629 2.08461 35.803ZM5.73375 39.1316C5.69997 39.2233 5.67181 39.3379 5.67744 39.3894C5.68307 39.5556 6.00969 38.49 6.04348 38.2092C6.06038 38.0144 6.03222 38.0832 5.93085 38.4556C5.85765 38.7363 5.76754 39.0457 5.73375 39.1316ZM4.71447 41.0337C4.71447 41.0623 4.74263 41.0509 4.77079 41.005C4.79895 40.9592 4.8271 40.8905 4.8271 40.8618C4.8271 40.8274 4.79895 40.8446 4.77079 40.8905C4.74263 40.9363 4.71447 40.9993 4.71447 41.0337ZM2.63086 42.4717C2.63086 42.5175 2.65338 42.5519 2.67591 42.5519C2.73222 42.5519 2.85611 42.2941 2.85611 42.191C2.85048 42.0936 2.63086 42.3743 2.63086 42.4717ZM1.07096 43.0217C1.08785 43.0675 1.10475 43.0504 1.10475 42.9873C1.11038 42.9243 1.09348 42.8899 1.07659 42.9129C1.05969 42.93 1.05406 42.9816 1.07096 43.0217ZM0.60918 43.1821C0.547234 43.3196 0.547237 43.3196 0.626076 43.2165C0.676762 43.1535 0.716179 43.079 0.716179 43.0446C0.716179 42.9759 0.688019 43.0045 0.60918 43.1821ZM9.87847 43.3253C9.89536 43.3769 9.92352 43.4056 9.93478 43.3884C9.95168 43.3712 9.94604 43.3368 9.92352 43.3024C9.87284 43.2108 9.83905 43.228 9.87847 43.3253Z" fill="#F5F5F5"/>
</svg>
