<svg width="199" height="123" viewBox="0 0 199 123" fill="none" xmlns="http://www.w3.org/2000/svg">
<path d="M1.57314 94.117C1.57314 92.7598 1.3394 92.6882 0.809002 92.6882C0.755063 92.6882 0.00439453 92.7189 0.00439453 92.5961C0.00439453 92.5245 0.0583544 92.4734 0.278605 92.4734H4.16669C4.31502 92.4734 4.45437 92.4938 4.45437 92.5961C4.45437 92.6678 4.35997 92.6678 4.30603 92.6678C3.17331 92.6678 3.15983 93.0804 3.15983 94.0454V96.695C3.15983 100.518 5.68598 100.828 7.24122 100.828C7.60981 100.828 7.9649 100.777 8.30652 100.705C10.6394 100.187 11.1338 98.5944 11.1338 96.4802V91.0241C11.1338 90.3012 10.972 89.8238 9.9067 89.8238C9.56509 89.8238 9.55162 89.7931 9.55162 89.7317C9.55162 89.6499 9.646 89.6396 9.85277 89.6396C11.6013 89.6396 11.7226 89.6294 13.2105 89.6294C13.4037 89.6294 13.5656 89.6499 13.5656 89.7419C13.5656 89.7624 13.5656 89.7829 13.5386 89.8033C12.6531 89.8033 12.3115 90.0216 12.3115 90.632C12.3115 92.0812 12.2845 92.62 12.2845 96.2347C12.2845 97.0326 12.2036 97.7658 11.9699 98.4819C11.3945 100.19 9.49766 101.35 6.7288 101.35C6.22537 101.35 4.38245 101.288 3.16433 100.364C2.42717 99.8766 1.58211 98.9252 1.58211 96.7598V94.1204L1.57314 94.117ZM7.91996 87.4061C7.91996 87.9142 7.38954 88.3166 6.7198 88.3166C6.05006 88.3166 5.51966 87.9142 5.51966 87.4061C5.51966 86.898 6.03657 86.4956 6.7198 86.4956C7.40303 86.4956 7.91996 86.9184 7.91996 87.4061Z" fill="white"/>
<path d="M20.6991 98.7887C16.1683 98.5091 16.0559 95.9925 16.0559 93.4247V86.0522C16.0559 85.5032 16.0694 85.1724 15.8087 84.9951C15.6738 84.9133 14.9636 84.8826 14.9636 84.7666C14.9636 84.695 15.031 84.6746 15.2108 84.6746H18.609C18.7438 84.6746 18.8697 84.6746 18.8697 84.7666C18.8697 84.8076 18.8023 84.8587 18.7349 84.8587C17.7774 84.8587 17.5482 85.0565 17.5482 85.5305C17.5482 88.0266 17.5212 92.7802 17.5212 94.6864C17.5212 96.1971 17.7954 98.1749 20.7036 98.3318V98.7887H20.6991Z" fill="white"/>
<path d="M26.6504 91.4469C29.4642 91.4469 32.3005 91.539 35.4829 91.3753C37.1909 91.2832 39.0024 90.9729 39.9328 89.7589C39.5373 90.3488 38.6518 91.9754 36.4942 92.3881C33.6534 92.9371 30.3092 92.5654 27.419 92.5654C25.0457 92.5654 22.8881 92.6574 22.8881 94.8944C22.8881 96.4494 24.0209 97.9805 26.0705 98.3215H40.3464V98.7887H20.7036V98.3215H24.0748C22.6005 97.7316 21.5891 96.5824 21.5891 95.1025C21.5891 93.0939 23.8411 91.4469 26.6549 91.4469" fill="white"/>
<path d="M45.5738 98.0419C46.1762 98.2295 46.801 98.3113 47.4437 98.3113C50.5407 98.3113 51.7858 96.313 51.7858 94.3863C51.7858 91.839 49.7406 90.0795 46.9133 90.0795C46.4773 90.0795 46.0278 90.1204 45.5738 90.2159V89.7692C46.0773 89.6873 46.5987 89.6566 47.1156 89.6566C51.0756 89.6566 53.4085 91.6754 53.4085 94.0692C53.4085 94.1715 53.4085 94.2772 53.395 94.3795C53.395 95.631 53.3545 97.186 54.9637 97.943C55.4537 98.1817 56.0425 98.3045 56.5864 98.3249V98.7921C54.7704 98.6898 53.1208 97.943 52.5589 96.4631C51.4127 97.9635 49.2552 98.7819 46.9493 98.7819C46.4863 98.7819 46.0368 98.7512 45.5693 98.6898V98.0487L45.5738 98.0419Z" fill="white"/>
<path d="M78.5127 98.3215V98.7887C76.89 98.6864 75.4426 98.1169 74.7324 96.9473C74.0357 97.8987 72.7817 98.7887 71.2399 98.7887H56.5955V98.3215H70.8893C72.9659 98.3215 74.0402 96.4358 74.0402 94.874C74.0402 93.8169 73.3165 92.6779 71.8287 92.5961C71.0511 92.5756 70.287 92.5654 69.5228 92.5654C66.5337 92.5654 63.3963 92.7529 60.4611 92.3881C58.2361 91.9652 57.472 90.3079 57.0225 89.7589C57.9529 90.9695 59.7644 91.2798 61.4724 91.3753C64.5155 91.5424 67.4237 91.4469 70.3049 91.4469C72.9659 91.4469 75.2853 93.1655 75.3258 95.2047C75.3527 96.6131 76.0359 98.2295 78.5216 98.3215M67.0686 100.528C67.0686 101.046 66.5382 101.438 65.8685 101.438C65.1987 101.438 64.6683 101.046 64.6683 100.528C64.6683 100.009 65.1987 99.6173 65.8685 99.6173C66.5382 99.6173 67.0686 100.02 67.0686 100.528Z" fill="white"/>
<path d="M78.5127 98.3318C81.3939 98.1783 81.6906 96.2107 81.6906 94.6864V91.4673C81.6906 91.3003 81.6906 86.1647 81.6771 86.0522C81.6771 85.3497 81.6906 85.0156 81.1287 84.9133C80.9939 84.8826 80.3376 84.8928 80.3376 84.7666C80.3376 84.6746 80.459 84.6746 80.5983 84.6746H83.9965C84.1718 84.6746 84.2437 84.695 84.2437 84.7666C84.2437 84.8076 84.1763 84.8587 84.1223 84.8587C83.2773 84.8587 83.1515 85.0974 83.1515 85.7589V92.105C83.1515 95.0445 83.7538 98.4647 78.5127 98.7853V98.3283V98.3318Z" fill="white"/>
<path d="M86.8775 85.5442C86.8505 85.0156 86.5629 84.8826 85.9246 84.8724C85.8302 84.8724 85.8032 84.8417 85.8032 84.811C85.8032 84.7599 85.8976 84.6848 86.0504 84.6848H89.4486C89.597 84.6848 89.6958 84.7564 89.6958 84.811C89.6958 84.8417 89.6554 84.8724 89.5745 84.8724C88.8912 84.8826 88.4283 84.9133 88.3878 85.5442C88.3069 86.591 88.3339 87.655 88.3608 97.4009C88.3608 98.5296 88.662 98.5807 89.5745 98.591C89.6554 98.6012 89.6958 98.6216 89.6958 98.6626C89.6958 98.7137 89.6014 98.7853 89.4486 98.7853H86.0504C85.9021 98.7853 85.8032 98.7137 85.8032 98.6626C85.8032 98.6216 85.8302 98.6012 85.9246 98.591C86.7562 98.5705 86.864 98.3011 86.891 97.6907L86.8775 85.5442Z" fill="white"/>
<path d="M116.337 98.3216C116.899 98.3114 117.443 98.1647 117.947 97.9294C119.407 97.2372 119.515 95.9005 119.515 94.6763V90.7513C119.515 90.3898 119.596 89.8818 118.846 89.8818C118.625 89.8818 118.176 89.9124 118.176 89.759C118.176 89.7181 118.176 89.6976 118.23 89.6771C119.403 89.6771 120.621 89.6567 121.808 89.6567C122.19 89.6567 122.19 89.8442 121.781 89.8442H121.605C121.21 89.8545 121.003 89.9465 121.003 90.5296C121.003 90.6013 120.976 92.7769 120.976 93.0258C120.976 95.73 121.111 98.5057 116.333 98.7922H105.087C102.003 98.6694 99.041 96.9712 99.041 94.059C99.041 93.51 99.1624 92.9712 99.4231 92.4734H101.104C100.803 93.0531 100.655 93.7385 100.655 94.4103C100.655 96.3574 101.936 98.325 105.091 98.325H116.337V98.3216ZM109.703 87.3958C109.703 87.9142 109.173 88.3063 108.503 88.3063C107.833 88.3063 107.303 87.9142 107.303 87.3958C107.303 86.8775 107.86 86.4854 108.503 86.4854C109.146 86.4854 109.703 86.8877 109.703 87.3958ZM112.638 87.3958C112.638 87.9142 112.076 88.3063 111.438 88.3063C110.8 88.3063 110.238 87.9142 110.238 87.3958C110.238 86.8775 110.768 86.4854 111.438 86.4854C112.108 86.4854 112.638 86.8877 112.638 87.3958Z" fill="white"/>
<path d="M126.855 93.984C126.842 93.3326 126.842 92.712 126.842 92.0573C126.842 89.9533 126.855 87.8936 126.855 85.793C126.855 85.2645 126.788 84.8928 125.885 84.8621C125.804 84.8621 125.763 84.8417 125.763 84.8007C125.763 84.7496 125.858 84.678 126.01 84.678H129.409C129.557 84.678 129.656 84.7496 129.656 84.8007C129.656 84.8417 129.615 84.8621 129.534 84.8621C128.622 84.8928 128.321 84.9133 128.321 86.0522C128.321 87.9891 128.294 89.8851 128.294 91.822C128.294 92.5586 128.294 93.2713 128.307 93.9874H126.86L126.855 93.984ZM126.909 95.0922H128.316C128.37 96.521 128.86 98.3352 131.499 98.3352C134.407 98.3352 134.695 96.2005 134.695 94.6898C134.695 92.5995 134.668 88.8928 134.668 85.7658C134.668 85.1008 134.56 84.8655 133.467 84.8655C133.373 84.8655 133.166 84.678 133.589 84.678H137.234C137.468 84.678 137.495 84.7189 137.495 84.77C137.468 84.811 137.414 84.8417 137.333 84.8621C137.266 84.8826 137.113 84.8928 136.897 84.8928C136.681 84.8928 136.529 84.9235 136.434 84.9746C136.187 85.1213 136.146 85.4316 136.146 85.7317V86.0522C136.146 88.8382 136.133 91.3548 136.133 94.6898C136.133 96.2141 136.421 98.1715 139.329 98.3352V98.7921C137.198 98.6694 136.025 98.0351 135.409 97.1348C134.793 98.0351 133.647 98.7921 131.503 98.7921C127.939 98.7921 127.134 96.9916 126.918 95.0956" fill="white"/>
<path d="M145.5 97.9294C146.004 98.1783 146.566 98.3113 147.123 98.3215V98.7887C144.993 98.6659 143.846 98.0317 143.204 97.1416C142.588 98.0317 141.442 98.6625 139.315 98.7887V98.3215C142.071 98.2192 142.453 96.1255 142.48 94.6455V90.7512C142.48 90.2431 142.399 89.8612 141.635 89.8612C141.347 89.8612 141.131 89.8305 141.131 89.7589C141.131 89.6771 141.253 89.6566 141.392 89.6566H145.051C145.258 89.6566 145.312 89.7078 145.312 89.7589C145.312 89.8612 144.862 89.8612 144.808 89.8612C144.031 89.8612 143.963 90.2738 143.963 90.6285C143.963 90.7001 143.963 90.7717 143.936 94.6762C143.936 95.9413 144.044 97.2337 145.505 97.9294M144.413 100.528C144.413 101.046 143.878 101.438 143.213 101.438C142.547 101.438 142.012 101.046 142.012 100.528C142.012 100.009 142.547 99.6173 143.213 99.6173C143.878 99.6173 144.413 100.02 144.413 100.528Z" fill="white"/>
<path d="M147.123 98.7887V98.3215H150.359C150.346 95.9925 150.373 86.1545 150.332 85.5339C150.292 84.9235 149.784 84.8621 149.132 84.8621C149.038 84.8519 148.997 84.8314 148.997 84.7905C148.997 84.7394 149.105 84.6746 149.245 84.6746H152.656C152.805 84.6746 152.917 84.7462 152.917 84.8007C152.917 84.8314 152.877 84.8519 152.796 84.8621C152.139 84.8621 151.825 85.0292 151.825 85.5339C151.825 85.834 151.798 88.3608 151.798 91.1366C152.683 90.4205 153.847 89.6771 155.169 89.6771H161.61C161.718 89.6771 161.83 89.6668 162.334 89.6975C165.39 89.8851 167.687 91.5321 167.714 94.0351C167.714 95.8254 167.755 98.0214 170.951 98.3215V98.7887C169.094 98.6864 167.485 97.9498 166.923 96.4392C165.885 97.7964 163.988 98.7887 161.75 98.7887H147.132H147.123ZM155.164 90.1408C152.993 90.1408 151.793 91.9413 151.793 93.4656C151.793 95.5457 151.82 97.452 151.82 98.3215H161.606C164.433 98.3215 166.137 96.6029 166.137 94.3966C166.137 92.429 164.77 90.1408 162.015 90.1408H155.164Z" fill="white"/>
<path d="M182.601 97.1417C181.878 98.1682 180.282 98.7888 178.709 98.7888C176.592 98.6558 175.472 98.0215 174.861 97.1417C174.245 98.0215 173.099 98.6729 170.946 98.7888V98.3216C171.508 98.3216 172.065 98.1784 172.569 97.9295C174.03 97.2338 174.137 95.9107 174.137 94.6763V90.7104C174.137 90.5024 174.111 90.1512 173.85 89.9738C173.674 89.8715 172.785 89.892 172.785 89.7556C172.785 89.7045 172.784 89.6533 173.045 89.6533H176.677C176.911 89.6533 176.924 89.684 176.924 89.7556C176.924 89.8477 176.789 89.8579 176.421 89.8579C175.657 89.8579 175.576 90.1887 175.576 90.4785C175.576 90.5195 175.576 91.9176 175.589 94.6729C175.589 96.2176 176.093 98.3182 178.713 98.3182C181.334 98.3182 181.882 96.2585 181.882 94.6729V91.1537C181.882 91.123 181.882 90.9764 181.869 90.7172C181.855 90.4478 181.828 90.2705 181.774 90.1785C181.72 90.0864 181.639 90.0114 181.527 89.9602C181.159 89.8033 180.462 89.8886 180.543 89.7522C180.543 89.701 180.529 89.6499 180.79 89.6499H184.422C184.602 89.6499 184.683 89.6806 184.683 89.7522C184.683 89.8443 184.507 89.8545 184.179 89.8545C183.536 89.8545 183.361 90.1137 183.361 90.516C183.361 91.3754 183.334 91.9039 183.334 94.6695C183.334 95.8903 183.442 97.227 184.903 97.9226C185.433 98.1716 185.941 98.3148 186.525 98.3148C189.186 98.3148 189.708 96.2858 189.708 94.6695C189.694 92.0199 189.681 90.6422 189.667 90.5501C189.667 90.4581 189.6 90.3114 189.461 90.1239C189.326 89.9363 189.119 89.8443 188.858 89.8545C188.355 89.8647 188.341 89.8034 188.341 89.7317C188.341 89.6908 188.368 89.6704 188.422 89.6704C189.622 89.6704 190.809 89.6499 192 89.6499C192.176 89.6499 192.261 89.6806 192.261 89.7522C192.261 89.9704 191.169 89.6397 191.169 90.5195V93.7181C191.169 96.1631 190.908 98.782 186.53 98.782C184.372 98.782 183.24 98.0249 182.615 97.1349" fill="white"/>
<path d="M194.886 85.5442C194.859 85.0156 194.571 84.8826 193.929 84.8724C193.834 84.8724 193.807 84.8417 193.807 84.811C193.807 84.7599 193.902 84.6848 194.054 84.6848H197.453C197.601 84.6848 197.7 84.7564 197.7 84.811C197.7 84.8417 197.659 84.8724 197.578 84.8724C196.895 84.8826 196.432 84.9133 196.392 85.5442C196.311 86.591 196.338 87.655 196.365 97.4009C196.365 98.5296 196.666 98.5807 197.578 98.591C197.659 98.6012 197.7 98.6216 197.7 98.6626C197.7 98.7137 197.605 98.7853 197.453 98.7853H194.054C193.906 98.7853 193.807 98.7137 193.807 98.6626C193.807 98.6216 193.834 98.6012 193.929 98.591C194.76 98.5705 194.872 98.3011 194.899 97.6907L194.886 85.5442Z" fill="white"/>
<path d="M7.92004 106.141C8.18524 105.585 8.27962 105.476 8.41897 105.476C8.54482 105.476 8.63921 105.558 8.9179 106.093C9.24602 106.744 12.8105 113.854 14.2039 116.463C15.0175 117.994 15.6738 118.277 16.1412 118.373C16.7211 118.54 17.2829 118.407 17.2829 118.587C17.2829 118.741 17.1751 118.731 15.8311 118.731C14.5815 118.731 12.5947 118.707 12.5947 118.564C12.5947 118.42 12.9408 118.492 12.9408 118.195C12.9408 118.137 12.9229 118.066 12.8779 117.98L10.7833 113.745C10.7383 113.687 10.6889 113.65 10.581 113.65H5.69955C5.59167 113.65 5.51075 113.697 5.4658 113.779L4.10383 116.828C3.91505 117.23 3.78921 117.636 3.78921 117.933C3.78921 118.311 4.21172 118.478 4.64773 118.478H4.88147C5.03879 118.478 5.10172 118.516 5.10172 118.584C5.10172 118.679 4.96237 118.714 4.7556 118.714H0.422496C0.139316 118.714 0 118.679 0 118.584C0 118.512 0.0943713 118.478 0.202249 118.478C1.76648 118.478 2.25194 117.899 2.76886 116.828L7.91554 106.137L7.92004 106.141ZM10.2799 113.022C10.3428 113.022 10.3742 112.998 10.3742 112.974C10.3742 112.951 10.3743 112.927 10.3563 112.903L8.21219 108.265C8.14926 108.136 8.08634 108.074 8.02341 108.074C7.97846 108.074 7.91554 108.132 7.8661 108.265L5.86136 112.903C5.84787 112.927 5.84786 112.951 5.84786 112.964C5.84786 113.012 5.87934 113.022 5.94226 113.022H10.2754H10.2799Z" fill="white"/>
<path d="M21.3867 114.506C21.3867 116.654 21.4316 117.53 21.7912 117.793C22.1058 118.032 22.87 118.137 24.4342 118.137C25.4815 118.137 26.3715 118.124 26.8435 117.687C27.0952 117.472 27.248 117.152 27.3289 116.869C27.3424 116.763 27.4054 116.678 27.5312 116.678C27.6076 116.678 27.6571 116.749 27.6571 116.903C27.6571 117.056 27.5312 117.936 27.3739 118.362C27.2345 118.707 27.1536 118.755 26.0928 118.755C24.668 118.755 23.5577 118.741 22.6183 118.707C21.7103 118.683 21.0406 118.669 20.4427 118.669C20.3483 118.669 20.0202 118.669 19.6292 118.683C19.2246 118.707 18.7841 118.717 18.4695 118.717C18.2672 118.717 18.1548 118.683 18.1548 118.598C18.1548 118.55 18.1998 118.478 18.3121 118.478C18.5009 118.478 18.7481 118.444 18.9234 118.407C19.3145 118.335 19.3595 118.062 19.4404 117.636C19.5662 117.029 19.5662 115.88 19.5662 114.468V111.894C19.5662 109.616 19.5662 109.213 19.5168 108.736C19.4718 108.238 19.3595 107.999 18.7032 107.928C18.5324 107.914 18.2043 107.89 18.0155 107.89C17.9525 107.89 17.8582 107.832 17.8582 107.771C17.8582 107.689 17.9526 107.651 18.1728 107.651C19.0808 107.651 20.3304 107.686 20.4427 107.686C20.5371 107.686 22.0384 107.651 22.6497 107.651C22.852 107.651 22.9644 107.686 22.9644 107.771C22.9644 107.829 22.87 107.877 22.8071 107.877C22.6677 107.877 22.3845 107.89 22.1508 107.914C21.5575 107.996 21.4451 108.221 21.4001 108.732C21.3867 109.206 21.3867 109.609 21.3867 111.89V114.499V114.506Z" fill="white"/>
<path d="M33.123 114.836C33.123 117.626 33.123 118.679 32.4353 119.904C31.9678 120.77 30.9655 121.578 29.136 122.536C28.8394 122.69 28.4798 122.881 28.246 122.976C28.2011 122.986 28.1517 123 28.0887 123C28.0258 123 27.9314 122.976 27.9314 122.904C27.9314 122.799 28.0393 122.751 28.246 122.645C28.5292 122.526 28.8394 122.315 29.0417 122.158C30.5115 121.029 31.2172 120.115 31.2172 115.679V110.707C31.2172 108.013 31.2172 107.539 31.1722 106.98C31.1273 106.396 30.952 106.124 30.2013 106.008C30.0125 105.974 29.6395 105.95 29.4372 105.95C29.3428 105.95 29.2484 105.926 29.2484 105.854C29.2484 105.749 29.3563 105.711 29.608 105.711C30.6239 105.711 32.0622 105.769 32.1746 105.769C32.287 105.769 33.7253 105.711 34.3951 105.711C34.6468 105.711 34.7547 105.749 34.7547 105.854C34.7547 105.926 34.6603 105.95 34.5839 105.95C34.4265 105.95 34.2872 105.974 34.004 106.008C33.3927 106.09 33.2219 106.386 33.1725 106.98C33.1275 107.539 33.1275 108.013 33.1275 110.707V114.836H33.123Z" fill="white"/>
<path d="M42.3556 107.955C42.6073 107.467 42.7017 107.385 42.8231 107.385C43.0433 107.385 43.1063 107.587 43.3085 107.921C43.6681 108.538 46.873 114.577 48.0956 116.797C48.8148 118.103 49.3632 118.291 49.7992 118.4C50.0824 118.472 50.379 118.482 50.5813 118.482C50.7071 118.482 50.833 118.519 50.833 118.601C50.833 118.683 50.6128 118.72 50.379 118.72C50.0823 118.72 48.6125 118.72 47.2371 118.686C46.846 118.673 46.5314 118.673 46.5314 118.591C46.5314 118.519 46.5763 118.519 46.6707 118.485C46.7786 118.451 46.9854 118.332 46.8415 118.093L45.0571 114.734C45.0121 114.663 44.9806 114.652 44.8682 114.652H40.27C40.1756 114.652 40.0991 114.686 40.0677 114.772L38.926 117.111C38.7372 117.479 38.6293 117.834 38.6293 118.096C38.6293 118.379 38.9754 118.489 39.317 118.489H39.4878C39.6452 118.489 39.6901 118.536 39.6901 118.608C39.6901 118.69 39.5822 118.727 39.4069 118.727C38.9215 118.727 37.8292 118.68 37.609 118.68C37.4067 118.68 36.4043 118.727 35.5908 118.727C35.339 118.727 35.1997 118.693 35.1997 118.608C35.1997 118.536 35.2941 118.489 35.3885 118.489C35.5278 118.489 35.811 118.475 35.9818 118.454C36.8898 118.373 37.2629 117.851 37.6539 117.114L42.3466 107.965L42.3556 107.955ZM44.5761 114.042C44.6705 114.042 44.6705 114.008 44.639 113.936L42.6703 109.926C42.5624 109.711 42.45 109.711 42.3421 109.926L40.4812 113.936C40.4498 114.008 40.4812 114.042 40.5441 114.042H44.5806H44.5761Z" fill="white"/>
<path d="M52.4466 111.894C52.4466 109.616 52.4466 109.213 52.3971 108.736C52.3522 108.238 52.2398 107.999 51.5836 107.928C51.4128 107.914 51.0847 107.894 50.8959 107.894C50.8329 107.894 50.7385 107.836 50.7385 107.774C50.7385 107.692 50.8329 107.655 51.0532 107.655C51.9611 107.655 53.2602 107.692 53.3681 107.692C53.6018 107.692 54.8694 107.655 56.0425 107.655C58.0428 107.655 61.6882 107.512 64.0525 109.329C65.0549 110.076 66.0078 111.3 66.0078 113.043C66.0078 114.884 64.9605 116.292 63.8502 117.148C62.9917 117.824 61.1937 118.847 57.7955 118.847C56.937 118.847 55.8717 118.789 55.0132 118.751C54.1367 118.703 53.467 118.669 53.3726 118.669C53.3276 118.669 52.968 118.683 52.559 118.683C52.1544 118.707 51.669 118.717 51.3544 118.717C51.1521 118.717 51.0397 118.683 51.0397 118.598C51.0397 118.55 51.0846 118.478 51.197 118.478C51.3858 118.478 51.633 118.444 51.8083 118.407C52.1994 118.335 52.2443 118.062 52.3252 117.636C52.4511 117.029 52.4511 115.88 52.4511 114.468V111.894H52.4466ZM54.2626 113.472C54.2626 115.027 54.2626 116.381 54.276 116.654C54.3075 117.022 54.3524 117.554 54.5098 117.711C54.7615 117.984 55.4627 118.291 57.809 118.291C59.6565 118.291 61.2836 117.827 62.4882 116.961C63.5356 116.224 64.0525 114.836 64.0525 113.496C64.0525 111.634 62.9872 110.448 62.1781 109.83C60.2857 108.385 58.0967 108.194 55.7189 108.194C55.3278 108.194 54.6851 108.241 54.5143 108.299C54.3255 108.347 54.2626 108.419 54.2626 108.582V113.472Z" fill="white"/>
<path d="M72.8175 107.955C73.0693 107.467 73.1636 107.385 73.285 107.385C73.5053 107.385 73.5682 107.587 73.7705 107.921C74.1301 108.538 77.3349 114.577 78.5575 116.797C79.2767 118.103 79.8251 118.291 80.2611 118.4C80.5443 118.472 80.841 118.482 81.0432 118.482C81.1691 118.482 81.2949 118.519 81.2949 118.601C81.2949 118.683 81.0747 118.72 80.841 118.72C80.5443 118.72 79.0745 118.72 77.699 118.686C77.308 118.673 76.9933 118.673 76.9933 118.591C76.9933 118.519 77.0383 118.519 77.1327 118.485C77.2405 118.451 77.4473 118.332 77.3035 118.093L75.519 114.734C75.474 114.663 75.4426 114.652 75.3302 114.652H70.7319C70.6375 114.652 70.5611 114.686 70.5296 114.772L69.3879 117.111C69.1991 117.479 69.0912 117.834 69.0912 118.096C69.0912 118.379 69.4374 118.489 69.779 118.489H69.9498C70.1071 118.489 70.152 118.536 70.152 118.608C70.152 118.69 70.0442 118.727 69.8689 118.727C69.3834 118.727 68.2911 118.68 68.0709 118.68C67.8686 118.68 66.8663 118.727 66.0527 118.727C65.801 118.727 65.6616 118.693 65.6616 118.608C65.6616 118.536 65.756 118.489 65.8504 118.489C65.9898 118.489 66.2729 118.475 66.4437 118.454C67.3517 118.373 67.7248 117.851 68.1159 117.114L72.8085 107.965L72.8175 107.955ZM75.038 114.042C75.1324 114.042 75.1324 114.008 75.1009 113.936L73.1322 109.926C73.0243 109.711 72.9119 109.711 72.804 109.926L70.9431 113.936C70.9117 114.008 70.9432 114.042 71.0061 114.042H75.0425H75.038Z" fill="white"/>
<path d="M85.9428 107.955C86.1945 107.467 86.2889 107.385 86.4103 107.385C86.6305 107.385 86.6934 107.587 86.8957 107.921C87.2553 108.538 90.4602 114.577 91.6828 116.797C92.402 118.103 92.9503 118.291 93.3863 118.4C93.6695 118.472 93.9662 118.482 94.1685 118.482C94.2943 118.482 94.4202 118.519 94.4202 118.601C94.4202 118.683 94.1999 118.72 93.9662 118.72C93.6695 118.72 92.1997 118.72 90.8243 118.686C90.4332 118.673 90.1186 118.673 90.1186 118.591C90.1186 118.519 90.1635 118.519 90.2579 118.485C90.3658 118.451 90.5725 118.332 90.4287 118.093L88.6442 114.734C88.5993 114.663 88.5678 114.652 88.4554 114.652H83.8571C83.7627 114.652 83.6863 114.686 83.6549 114.772L82.5131 117.111C82.3244 117.479 82.2165 117.834 82.2165 118.096C82.2165 118.379 82.5626 118.489 82.9042 118.489H83.075C83.2323 118.489 83.2773 118.536 83.2773 118.608C83.2773 118.69 83.1694 118.727 82.9941 118.727C82.5086 118.727 81.4164 118.68 81.1961 118.68C80.9939 118.68 79.9915 118.727 79.1779 118.727C78.9262 118.727 78.7869 118.693 78.7869 118.608C78.7869 118.536 78.8813 118.489 78.9756 118.489C79.115 118.489 79.3982 118.475 79.569 118.454C80.4769 118.373 80.85 117.851 81.2411 117.114L85.9338 107.965L85.9428 107.955ZM88.1632 114.042C88.2576 114.042 88.2577 114.008 88.2262 113.936L86.2574 109.926C86.1495 109.711 86.0372 109.711 85.9293 109.926L84.0684 113.936C84.0369 114.008 84.0684 114.042 84.1313 114.042H88.1677H88.1632Z" fill="white"/>
<path d="M96.8653 116.726C96.9103 117.936 97.0991 118.291 97.6474 118.4C98.007 118.471 98.461 118.482 98.6318 118.482C98.7262 118.482 98.8026 118.529 98.8026 118.601C98.8026 118.683 98.6633 118.72 98.425 118.72C97.3013 118.72 96.5012 118.673 96.3304 118.673C96.1416 118.673 95.2966 118.72 94.3886 118.72C94.1864 118.72 94.074 118.71 94.074 118.601C94.074 118.529 94.1369 118.482 94.2313 118.482C94.3886 118.482 94.7617 118.471 95.0449 118.4C95.5438 118.294 95.6247 117.902 95.6247 116.572V108.194C95.6247 107.61 95.7326 107.457 95.8899 107.457C96.1236 107.457 96.4518 107.74 96.6586 107.897C96.9867 108.146 99.8814 110.485 102.96 112.893C104.947 114.434 107.073 116.18 107.685 116.654L107.482 109.333C107.469 108.385 107.343 108.05 106.732 107.969C106.372 107.921 105.918 107.897 105.761 107.897C105.621 107.897 105.603 107.815 105.603 107.767C105.603 107.672 105.761 107.662 105.976 107.662C106.884 107.662 107.837 107.699 108.071 107.699C108.291 107.699 108.948 107.662 109.761 107.662C109.963 107.662 110.139 107.675 110.139 107.767C110.139 107.815 110.044 107.897 109.905 107.897C109.811 107.897 109.653 107.897 109.438 107.934C108.781 108.04 108.732 108.337 108.732 109.217L108.687 117.783C108.687 118.744 108.655 118.826 108.53 118.826C108.327 118.826 108.125 118.707 107.01 117.936C106.79 117.793 103.913 115.648 101.801 113.974C99.4993 112.136 97.2519 110.342 96.6406 109.834L96.8608 116.729L96.8653 116.726Z" fill="white"/>
<path d="M117.142 118.506C116.827 118.376 116.814 118.315 116.814 117.841C116.814 116.985 116.89 116.299 116.922 116.026C116.94 115.836 116.985 115.754 117.092 115.754C117.232 115.754 117.263 115.801 117.263 115.931C117.263 116.098 117.263 116.333 117.326 116.572C117.672 117.841 119.156 118.328 120.675 118.328C122.864 118.328 123.929 117.142 123.929 116.037C123.929 114.85 123.273 114.161 121.318 112.94L120.302 112.313C117.893 110.806 117.344 109.738 117.344 108.576C117.344 106.738 119.16 105.479 122.037 105.479C122.927 105.479 123.588 105.551 124.149 105.646C124.585 105.718 124.761 105.742 124.945 105.742C125.129 105.742 125.179 105.776 125.179 105.861C125.179 105.946 125.084 106.512 125.084 107.675C125.084 107.958 125.039 108.078 124.927 108.078C124.788 108.078 124.756 107.996 124.738 107.853C124.725 107.651 124.581 107.177 124.442 106.986C124.302 106.809 123.691 106.083 121.61 106.083C120.046 106.083 118.827 106.819 118.827 108.078C118.827 109.05 119.407 109.68 121.578 110.959L122.221 111.338C124.896 112.94 125.538 114.008 125.538 115.385C125.538 116.098 125.179 117.404 123.615 118.243C122.63 118.755 121.408 118.966 120.189 118.966C119.111 118.966 118.077 118.847 117.142 118.502" fill="white"/>
<path d="M134.506 114.468C134.506 115.88 134.506 117.032 134.6 117.636C134.663 118.062 134.758 118.335 135.364 118.407C135.648 118.441 136.102 118.478 136.272 118.478C136.412 118.478 136.43 118.55 136.43 118.598C136.43 118.669 136.353 118.717 136.115 118.717C135.018 118.717 133.755 118.669 133.643 118.669C133.548 118.669 132.173 118.717 131.58 118.717C131.359 118.717 131.265 118.683 131.265 118.598C131.265 118.55 131.31 118.502 131.422 118.502C131.611 118.502 131.827 118.468 132.016 118.431C132.42 118.359 132.533 118.062 132.596 117.636C132.69 117.032 132.69 115.88 132.69 114.468V108.333L129.813 108.357C128.564 108.381 128.092 108.487 127.795 108.831C127.561 109.08 127.543 109.186 127.48 109.295C127.435 109.414 127.354 109.425 127.278 109.425C127.229 109.425 127.139 109.387 127.139 109.305C127.139 109.152 127.548 107.846 127.561 107.726C127.606 107.645 127.701 107.454 127.763 107.454C127.903 107.454 128.11 107.573 128.653 107.621C129.215 107.668 129.997 107.692 130.218 107.692H137.742C138.416 107.692 138.87 107.655 139.181 107.621C139.477 107.583 139.648 107.549 139.742 107.549C139.837 107.549 139.837 107.645 139.837 107.726C139.837 108.177 139.774 109.22 139.774 109.387C139.774 109.517 139.679 109.578 139.585 109.578C139.491 109.578 139.446 109.53 139.428 109.329L139.396 109.176C139.333 108.726 138.897 108.391 137 108.357L134.497 108.333V114.468H134.506Z" fill="white"/>
<path d="M145.959 107.955C146.211 107.467 146.305 107.385 146.426 107.385C146.647 107.385 146.705 107.587 146.912 107.921C147.271 108.538 150.476 114.577 151.699 116.797C152.418 118.103 152.967 118.291 153.403 118.4C153.686 118.472 153.982 118.482 154.185 118.482C154.31 118.482 154.436 118.519 154.436 118.601C154.436 118.683 154.216 118.72 153.982 118.72C153.686 118.72 152.216 118.72 150.84 118.686C150.449 118.673 150.135 118.673 150.135 118.591C150.135 118.519 150.18 118.519 150.274 118.485C150.382 118.451 150.584 118.332 150.445 118.093L148.66 114.734C148.615 114.663 148.584 114.652 148.472 114.652H143.873C143.779 114.652 143.702 114.686 143.671 114.772L142.529 117.111C142.34 117.479 142.233 117.834 142.233 118.096C142.233 118.379 142.579 118.489 142.92 118.489H143.091C143.248 118.489 143.293 118.536 143.293 118.608C143.293 118.69 143.186 118.727 143.01 118.727C142.525 118.727 141.428 118.68 141.212 118.68C141.01 118.68 140.008 118.727 139.194 118.727C138.942 118.727 138.803 118.693 138.803 118.608C138.803 118.536 138.897 118.489 138.992 118.489C139.131 118.489 139.414 118.475 139.585 118.454C140.493 118.373 140.866 117.851 141.257 117.114L145.95 107.965L145.959 107.955ZM148.179 114.042C148.274 114.042 148.274 114.008 148.242 113.936L146.269 109.926C146.161 109.711 146.049 109.711 145.941 109.926L144.08 113.936C144.049 114.008 144.08 114.042 144.143 114.042H148.179Z" fill="white"/>
<path d="M156.054 111.894C156.054 109.616 156.054 109.213 156.005 108.736C155.96 108.238 155.848 107.965 155.191 107.894C155.021 107.88 154.693 107.856 154.504 107.856C154.441 107.856 154.346 107.832 154.346 107.774C154.346 107.692 154.441 107.655 154.661 107.655C155.569 107.655 156.868 107.692 156.976 107.692C157.461 107.692 158.383 107.655 159.322 107.655C162.653 107.655 163.516 109.114 163.516 109.899C163.516 111.048 162.514 111.774 161.498 112.463C163.017 112.807 164.999 113.851 164.999 115.501C164.999 117.152 163.404 118.751 159.992 118.751C159.632 118.751 158.895 118.738 158.27 118.703C157.628 118.68 157.066 118.666 156.971 118.666C156.927 118.666 156.562 118.68 156.158 118.68C155.753 118.703 155.268 118.714 154.953 118.714C154.751 118.714 154.639 118.68 154.639 118.594C154.639 118.547 154.688 118.512 154.796 118.512C154.985 118.512 155.232 118.465 155.407 118.441C155.798 118.393 155.843 118.062 155.924 117.633C156.05 117.029 156.05 115.876 156.05 114.465V111.89L156.054 111.894ZM157.776 112.2C157.776 112.306 157.821 112.33 157.915 112.354C158.023 112.368 158.383 112.426 159.138 112.426C160.248 112.426 160.684 112.388 161.093 112.047C161.516 111.679 161.857 111.181 161.857 110.482C161.857 109.367 161.044 108.122 159.044 108.122C158.823 108.122 158.338 108.146 158.028 108.194C157.839 108.228 157.776 108.265 157.776 108.347V112.204V112.2ZM157.776 113.813C157.776 114.952 157.776 116.709 157.79 116.934C157.87 117.633 157.87 117.813 158.477 118.025C159.026 118.216 159.853 118.24 160.23 118.24C161.543 118.24 163.156 117.861 163.156 115.986C163.156 115.334 162.81 114.076 161.251 113.316C160.563 112.995 159.938 113.009 159.453 112.937C159.201 112.9 158.203 112.9 157.888 112.9C157.826 112.9 157.781 112.937 157.781 113.005V113.813H157.776Z" fill="white"/>
<path d="M171.431 114.506C171.431 116.654 171.476 117.53 171.836 117.793C172.151 118.032 172.915 118.137 174.479 118.137C175.526 118.137 176.421 118.124 176.888 117.687C177.14 117.472 177.293 117.152 177.374 116.869C177.392 116.763 177.45 116.678 177.576 116.678C177.652 116.678 177.702 116.749 177.702 116.903C177.702 117.056 177.576 117.936 177.419 118.362C177.279 118.707 177.198 118.755 176.138 118.755C174.713 118.755 173.602 118.741 172.663 118.707C171.755 118.683 171.081 118.669 170.487 118.669C170.393 118.669 170.065 118.669 169.674 118.683C169.265 118.707 168.829 118.717 168.514 118.717C168.312 118.717 168.2 118.683 168.2 118.598C168.2 118.55 168.244 118.478 168.357 118.478C168.546 118.478 168.793 118.444 168.968 118.407C169.359 118.335 169.404 118.062 169.485 117.636C169.611 117.029 169.611 115.88 169.611 114.468V111.894C169.611 109.616 169.611 109.213 169.561 108.736C169.517 108.238 169.404 107.999 168.748 107.928C168.577 107.914 168.249 107.89 168.06 107.89C167.997 107.89 167.903 107.832 167.903 107.771C167.903 107.689 167.997 107.651 168.218 107.651C169.125 107.651 170.375 107.686 170.487 107.686C170.582 107.686 172.083 107.651 172.694 107.651C172.897 107.651 173.009 107.686 173.009 107.771C173.009 107.829 172.915 107.877 172.852 107.877C172.712 107.877 172.429 107.89 172.195 107.914C171.602 107.996 171.49 108.221 171.445 108.732C171.431 109.206 171.431 109.609 171.431 111.89V114.499V114.506Z" fill="white"/>
<path d="M180.74 111.894C180.74 109.616 180.74 109.213 180.696 108.736C180.646 108.238 180.538 107.999 179.882 107.928C179.711 107.914 179.383 107.89 179.194 107.89C179.131 107.89 179.037 107.832 179.037 107.771C179.037 107.689 179.131 107.651 179.352 107.651C180.26 107.651 181.559 107.686 181.666 107.686C181.806 107.686 185.982 107.696 186.436 107.686C186.813 107.662 187.186 107.614 187.343 107.604C187.42 107.58 187.514 107.532 187.609 107.532C187.672 107.532 187.703 107.604 187.703 107.662C187.703 107.767 187.595 107.945 187.546 108.351C187.514 108.494 187.469 109.145 187.42 109.322C187.406 109.38 187.343 109.476 187.249 109.476C187.141 109.476 187.092 109.404 187.092 109.285C187.092 109.179 187.06 108.94 186.966 108.763C186.84 108.524 186.638 108.419 185.541 108.323C185.199 108.289 182.885 108.265 182.664 108.265C182.57 108.265 182.556 108.323 182.556 108.419V112.395C182.556 112.504 182.556 112.548 182.664 112.548C182.916 112.548 185.541 112.548 185.995 112.514C186.48 112.477 186.764 112.466 186.966 112.313C187.105 112.204 187.2 112.122 187.263 112.122C187.339 112.122 187.388 112.16 187.388 112.241C187.388 112.323 187.263 112.572 187.218 113.05C187.186 113.346 187.141 113.892 187.141 113.998C187.141 114.117 187.096 114.27 186.952 114.27C186.858 114.27 186.813 114.223 186.813 114.141C186.813 113.998 186.813 113.844 186.732 113.653C186.656 113.452 186.48 113.275 185.698 113.203C185.15 113.155 183.024 113.145 182.678 113.145C182.57 113.145 182.552 113.193 182.552 113.241V114.461C182.552 114.959 182.52 116.668 182.552 116.954C182.601 117.94 182.956 118.131 184.93 118.131C185.447 118.131 186.4 118.13 186.93 117.977C187.447 117.81 187.712 117.551 187.838 116.957C187.869 116.79 187.914 116.743 188.04 116.743C188.148 116.743 188.166 116.862 188.166 116.957C188.166 117.063 188.009 118.062 187.901 118.369C187.762 118.748 187.555 118.748 186.791 118.748C185.289 118.748 184.13 118.714 183.321 118.7C182.475 118.662 181.959 118.662 181.662 118.662C181.617 118.662 181.239 118.662 180.803 118.676C180.412 118.7 179.958 118.71 179.648 118.71C179.446 118.71 179.334 118.676 179.334 118.591C179.334 118.543 179.378 118.472 179.491 118.472C179.68 118.472 179.927 118.424 180.102 118.4C180.493 118.352 180.538 118.055 180.619 117.629C180.745 117.022 180.745 115.873 180.745 114.461V111.887L180.74 111.894Z" fill="white"/>
<path d="M190.477 118.516C190.211 118.41 190.193 118.362 190.193 117.97C190.193 117.247 190.27 116.654 190.301 116.415C190.301 116.262 190.346 116.177 190.459 116.177C190.571 116.177 190.647 116.224 190.647 116.344C190.647 116.463 190.647 116.674 190.71 116.879C191.025 117.946 192.526 118.325 193.852 118.325C195.839 118.325 196.855 117.483 196.855 116.378C196.855 115.334 196.104 114.836 194.338 113.837L193.43 113.316C191.272 112.095 190.566 111.205 190.566 110.182C190.566 108.46 192.364 107.43 194.994 107.43C195.789 107.43 196.572 107.512 197.057 107.607C197.448 107.665 197.605 107.665 197.763 107.665C197.92 107.665 197.965 107.689 197.965 107.771C197.965 107.842 197.871 108.33 197.871 109.326C197.871 109.551 197.857 109.646 197.713 109.646C197.57 109.646 197.556 109.575 197.525 109.455C197.507 109.288 197.354 108.886 197.241 108.732C197.102 108.565 196.446 108.01 194.643 108.01C193.191 108.01 192 108.569 192 109.599C192 110.523 192.612 111.058 194.58 112.078L195.142 112.361C197.565 113.619 198.41 114.639 198.41 115.897C198.41 116.753 197.974 117.677 196.549 118.39C195.704 118.806 194.468 118.901 193.376 118.901C192.454 118.901 191.295 118.806 190.468 118.509" fill="white"/>
<path d="M110.791 23.6759C110.629 25.1183 110.845 26.5608 111.465 27.8702C111.613 28.1976 111.802 28.5147 112.004 28.8216C112.22 29.1251 112.454 29.4184 112.714 29.6946C113.231 30.2504 113.861 30.7415 114.566 31.1609C115.267 31.5838 116.045 31.935 116.872 32.2146C117.695 32.501 118.544 32.7125 119.421 32.8216C120.293 32.9307 121.183 32.9341 122.077 32.8489C122.972 32.7704 123.871 32.6068 124.792 32.4328C125.714 32.2623 126.662 32.0782 127.646 31.9691C128.631 31.8566 129.656 31.8225 130.672 31.9043C131.184 31.9486 131.669 32.01 132.15 32.085C132.636 32.16 133.117 32.2487 133.598 32.3544C134.555 32.5624 135.499 32.8693 136.367 33.224C136.798 33.3979 137.212 33.582 137.603 33.7287C137.998 33.8787 138.376 33.9878 138.771 34.056C139.167 34.1208 139.585 34.1481 140.008 34.1413C140.417 34.1345 140.826 34.0867 141.217 33.9981C141.999 33.8207 142.722 33.4797 143.338 33.0364C143.959 32.5931 144.475 32.0475 144.884 31.461C145.294 30.8711 145.599 30.2334 145.792 29.5821C145.981 28.9342 146.058 28.2624 145.941 27.6417C145.887 27.3314 145.774 27.0416 145.613 26.7961C145.442 26.5471 145.244 26.38 144.934 26.2266C144.314 25.9197 143.419 25.7594 142.52 25.6332C140.7 25.3843 138.735 25.2274 136.83 24.733C135.877 24.4909 134.946 24.1635 134.088 23.7304C133.229 23.3008 132.461 22.762 131.818 22.155C131.494 21.8515 131.206 21.531 130.946 21.2002C130.815 21.0331 130.694 20.866 130.577 20.6955L130.254 20.1942C129.836 19.5259 129.462 18.8439 129.116 18.1584C128.424 16.791 127.876 15.4031 127.143 14.121C126.419 12.8354 125.439 11.676 124.082 10.7723C122.738 9.85841 121.106 9.1764 119.398 8.6308L118.603 8.40574L119.192 7.89082C119.668 7.47479 120.064 7.00762 120.383 6.50976C120.702 6.00848 120.94 5.47992 121.124 4.93773C121.304 4.39212 121.426 3.83629 121.484 3.28045C121.515 3.00083 121.529 2.72462 121.529 2.45182C121.529 2.31542 121.52 2.17901 121.506 2.05284C121.493 1.93008 121.47 1.79027 121.448 1.73912L123.156 2.13127C122.199 2.8542 121.165 3.51916 120.059 4.10227C118.958 4.6888 117.794 5.2003 116.602 5.65383C114.225 6.56431 111.761 7.2361 109.366 7.93856C106.97 8.63762 104.628 9.37418 102.421 10.2881C101.311 10.7382 100.245 11.2395 99.2117 11.7783C98.1733 12.3136 97.189 12.9036 96.2405 13.5242C94.3482 14.7723 92.5996 16.1704 91.0534 17.6674C89.5521 19.1303 88.4239 20.8353 87.6642 22.6188C86.9001 24.4056 86.5045 26.2845 86.5045 28.1601C86.5045 30.0356 86.9091 31.9111 87.7002 33.6877C88.4868 35.4678 89.6825 37.1353 91.1568 38.6562C92.6671 40.1907 94.3527 41.6502 96.0742 43.0994C99.5263 45.9877 103.082 48.8794 106.174 52.0849C107.716 53.6876 109.141 55.3653 110.359 57.1351C111.573 58.905 112.589 60.76 113.317 62.6833C113.681 63.6449 113.968 64.6236 114.171 65.6091C114.36 66.598 114.494 67.5937 114.521 68.5895C114.593 70.5809 114.328 72.569 113.712 74.482C113.73 72.511 113.654 70.5673 113.357 68.6508C113.204 67.6926 113.016 66.7412 112.75 65.8035C112.494 64.8623 112.184 63.9348 111.82 63.0175C111.092 61.1829 110.089 59.4131 108.889 57.7217C107.689 56.0303 106.282 54.4208 104.758 52.876C101.702 49.7797 98.1329 46.9801 94.6493 44.0713C92.9098 42.6152 91.1792 41.1353 89.5925 39.536C87.9968 37.906 86.6888 36.102 85.8213 34.1651C84.9493 32.2351 84.5088 30.1925 84.5088 28.1533C84.5088 26.1141 84.9313 24.0783 85.7584 22.1414C86.5855 20.2045 87.8036 18.3528 89.4712 16.7194C91.1073 15.1371 92.9233 13.6776 94.928 12.3546C95.9304 11.6998 96.9777 11.0724 98.0744 10.5063C99.1667 9.93343 100.299 9.40488 101.464 8.92747C103.787 7.96243 106.228 7.19859 108.646 6.4893C111.065 5.7766 113.465 5.11505 115.699 4.25913C117.933 3.41003 119.983 2.3461 121.736 1.02983L123.111 0L123.439 1.42198C123.489 1.66409 123.484 1.82436 123.484 1.99828C123.484 2.16878 123.471 2.33246 123.453 2.49274C123.417 2.81669 123.363 3.13041 123.295 3.44414C123.156 4.06817 122.949 4.68197 122.675 5.27873C122.401 5.87548 122.059 6.4586 121.628 7.00762C121.201 7.55663 120.679 8.06814 120.064 8.51486L119.857 7.77488C121.659 8.32048 123.444 9.00931 124.963 10.0119C126.496 11.0008 127.638 12.3273 128.424 13.6845C129.229 15.0451 129.795 16.4261 130.492 17.7492C130.838 18.4108 131.206 19.0587 131.611 19.693C131.818 20.0135 132.016 20.3204 132.245 20.6034C132.474 20.8933 132.726 21.1661 133 21.4252C134.097 22.4687 135.616 23.2019 137.324 23.6247C139.037 24.0646 140.884 24.2147 142.808 24.4704C143.289 24.5386 143.779 24.6136 144.278 24.7296C144.777 24.8421 145.289 24.9887 145.783 25.2309C146.031 25.3502 146.264 25.4968 146.48 25.6742C146.691 25.8515 146.858 26.0458 146.997 26.2436C147.267 26.6426 147.411 27.0586 147.487 27.461C147.635 28.276 147.537 29.0637 147.325 29.8242C147.105 30.5846 146.745 31.3144 146.264 31.9998C145.779 32.6852 145.168 33.3263 144.404 33.8719C143.639 34.4175 142.7 34.8608 141.657 35.0927C141.136 35.2086 140.592 35.27 140.048 35.2768C139.518 35.2836 138.983 35.2495 138.448 35.1575C137.913 35.0654 137.4 34.9085 136.946 34.7346C136.488 34.5607 136.079 34.3766 135.67 34.2095C134.865 33.8753 134.052 33.6127 133.18 33.4115C132.748 33.3126 132.303 33.2274 131.858 33.1524C131.409 33.0773 130.955 33.016 130.523 32.975C129.642 32.9 128.752 32.9171 127.858 33.0126C126.959 33.1046 126.055 33.2683 125.125 33.4354C124.194 33.5991 123.237 33.7696 122.239 33.848C121.246 33.9333 120.212 33.923 119.205 33.79C117.191 33.5104 115.357 32.825 113.802 31.8497C113.029 31.3587 112.368 30.7619 111.833 30.1174C111.294 29.4695 110.925 28.7568 110.674 28.0305C110.211 26.571 110.247 25.0467 110.8 23.652" fill="white"/>
<path d="M104.965 8.21141C103.886 8.59333 102.767 8.89342 101.652 9.18669C101.095 9.32991 100.538 9.47653 99.9758 9.61634L98.3036 10.0358C96.0742 10.5916 93.8717 11.1884 91.7456 11.9147C87.5024 13.3606 83.5379 15.2872 80.342 17.8073C78.7463 19.0622 77.3394 20.4534 76.1572 21.9436C74.975 23.4372 74.0131 25.0297 73.249 26.6768C72.8714 27.502 72.5433 28.3409 72.2556 29.1865C71.9814 30.0356 71.7387 30.8916 71.5454 31.7543C71.1544 33.4798 70.9611 35.2291 70.7768 37.0092C70.3992 40.5556 70.161 44.1361 69.716 47.7201C69.4957 49.5104 69.208 51.304 68.8305 53.0875C68.6417 53.9809 68.4304 54.8709 68.1787 55.7575C67.9225 56.6442 67.6393 57.5239 67.3157 58.4003C66.6639 60.1497 65.8908 61.882 64.866 63.5324C64.3581 64.3611 63.7962 65.1692 63.1759 65.9535C62.5511 66.7344 61.8634 67.4915 61.1217 68.2076C59.6339 69.6466 57.8854 70.9288 55.9391 71.9825C54.9682 72.5145 53.9433 72.9816 52.8915 73.3977C51.8397 73.8137 50.7519 74.1786 49.6372 74.4786C50.689 74.0694 51.7139 73.6295 52.6937 73.1419C53.6736 72.6543 54.6041 72.1189 55.4941 71.5494C57.2651 70.4037 58.8203 69.0908 60.1328 67.6518C62.7623 64.7669 64.4524 61.4557 65.5807 58.0491C65.8638 57.1966 66.1066 56.3338 66.3268 55.4677C66.5516 54.6015 66.7538 53.732 66.9246 52.859C67.2707 51.1097 67.527 49.3467 67.7472 47.5769C68.1877 44.0373 68.3945 40.4703 68.7496 36.8864C68.8485 35.9896 68.9429 35.0961 69.0912 34.1925C69.226 33.2888 69.4193 32.3886 69.6396 31.4917C69.8643 30.5949 70.1385 29.7049 70.4487 28.8217C70.7723 27.9419 71.1364 27.0689 71.5544 26.2096C72.3994 24.4943 73.4513 22.8336 74.7368 21.2787C76.0268 19.7271 77.5416 18.2812 79.2587 16.9923C80.9757 15.7033 82.8816 14.5677 84.9088 13.589C86.9405 12.6138 89.0936 11.8056 91.2961 11.1168C93.5031 10.4348 95.764 9.86187 98.0474 9.38788C100.335 8.91047 102.646 8.56606 104.965 8.20801" fill="white"/>
<path d="M99.1396 38.7006C99.2025 39.1507 99.3778 39.5769 99.6205 39.9793C99.8588 40.3817 100.16 40.7602 100.488 41.1251C101.144 41.8514 101.908 42.5266 102.709 43.1745C103.504 43.8258 104.331 44.4601 105.176 45.0807C106.026 45.7014 106.871 46.3288 107.729 46.9426C111.168 49.4081 114.598 51.9281 117.713 54.6936C119.263 56.0815 120.747 57.5171 122.086 59.0414C123.421 60.5623 124.639 62.1548 125.615 63.8359C126.105 64.6748 126.563 65.5239 126.932 66.4003C127.3 67.2732 127.61 68.1599 127.849 69.0567C128.312 70.8538 128.469 72.6884 128.253 74.4889C127.826 70.8879 126.365 67.4779 124.185 64.3645C122.005 61.2477 119.196 58.4037 116.162 55.6996C113.123 52.992 109.82 50.4379 106.597 47.7883C104.983 46.4652 103.387 45.1114 101.94 43.6588C101.585 43.2905 101.234 42.9188 100.911 42.5334C100.582 42.1515 100.268 41.756 100.003 41.3433C99.7329 40.9307 99.4947 40.5079 99.3284 40.0612C99.1711 39.6179 99.0812 39.1541 99.1351 38.704" fill="white"/>
<path d="M110.791 26.2539C110.018 26.3289 109.226 26.4755 108.471 26.6699C107.712 26.8575 106.983 27.1064 106.282 27.386C105.59 27.6759 104.916 27.9964 104.313 28.3783C103.702 28.7534 103.131 29.1695 102.632 29.6332C102.115 30.0868 101.679 30.5949 101.293 31.1234C100.897 31.652 100.569 32.2146 100.295 32.7977C99.7376 33.964 99.4095 35.2121 99.1443 36.4908C98.8971 35.2121 98.9196 33.8821 99.2837 32.5829C99.6388 31.2837 100.362 30.0117 101.441 28.9171C101.994 28.3783 102.619 27.8771 103.316 27.444C104.021 27.0177 104.776 26.6392 105.59 26.3494C106.395 26.0527 107.244 25.8276 108.116 25.6776C108.988 25.5378 109.878 25.4491 110.791 25.5139V26.2505V26.2539Z" fill="white"/>
</svg>
